<svg xmlns="http://www.w3.org/2000/svg" width="24" height="24" viewBox="0 0 24 24">
    <g fill="currentColor" fill-rule="evenodd">
        <path d="M19 11.916a5 5 0 0 0-6.345 7.06l-5.649.018a2 2 0 0 1-2.006-2V7a2 2 0 0 1 2-2h10a2 2 0 0 1 2 2v4.916zM8.75 8a.75.75 0 0 0 0 1.5h6.5a.75.75 0 1 0 0-1.5h-6.5zm0 3a.75.75 0 1 0 0 1.5h3.5a.75.75 0 1 0 0-1.5h-3.5zm0 3a.75.75 0 1 0 0 1.5h1.5a.75.75 0 1 0 0-1.5h-1.5z"/>
        <path d="M16.5 15.5v-2a.5.5 0 1 1 1 0v2h2a.5.5 0 1 1 0 1h-2v2a.5.5 0 1 1-1 0v-2h-2a.5.5 0 1 1 0-1h2z"/>
    </g>
</svg>
