<?xml version="1.0" encoding="UTF-8"?>
<svg width="24px" height="24px" viewBox="0 0 24 24" version="1.1" xmlns="http://www.w3.org/2000/svg" xmlns:xlink="http://www.w3.org/1999/xlink">
    <!-- Generator: Sketch 58 (84663) - https://sketch.com -->
    <title>Icon/add-note</title>
    <desc>Created with Sketch.</desc>
    <g id="Icon/add-note" stroke="none" stroke-width="1" fill="none" fill-rule="evenodd">
        <g id="add-note" transform="translate(3.000000, 3.000000)" fill="currentColor">
            <path d="M18,8.8958011 C15.4608542,7.7854676 12.4962618,8.42787578 10.6439392,10.4898123 C8.79161672,12.5517488 8.46848188,15.5691164 9.84214286,17.9768242 L2.57914286,17.9999885 C1.89582198,18.0020278 1.2397855,17.7319 0.755879354,17.249235 C0.271973208,16.76657 0,16.1110652 0,15.4274492 L0,2.57252779 C0,1.15175992 1.15126779,0 2.57142857,0 L15.4285714,0 C16.8487322,0 18,1.15175992 18,2.57252779 L18,8.8958011 L18,8.8958011 Z M4.82142857,3.85879168 C4.28886828,3.85879168 3.85714286,4.29070166 3.85714286,4.82348961 C3.85714286,5.35627756 4.28886828,5.78818753 4.82142857,5.78818753 L13.1785714,5.78818753 C13.7111317,5.78818753 14.1428571,5.35627756 14.1428571,4.82348961 C14.1428571,4.29070166 13.7111317,3.85879168 13.1785714,3.85879168 L4.82142857,3.85879168 Z M4.82142857,7.71758337 C4.47692246,7.71758337 4.15858567,7.90145374 3.98633261,8.19993232 C3.81407955,8.4984109 3.81407955,8.86615168 3.98633261,9.16463026 C4.15858567,9.46310884 4.47692246,9.64697921 4.82142857,9.64697921 L9.32142857,9.64697921 C9.85398887,9.64697921 10.2857143,9.21506924 10.2857143,8.68228129 C10.2857143,8.14949334 9.85398887,7.71758337 9.32142857,7.71758337 L4.82142857,7.71758337 L4.82142857,7.71758337 Z M4.82142857,11.5763751 C4.28886828,11.5763751 3.85714286,12.008285 3.85714286,12.541073 C3.85714286,13.0738609 4.28886828,13.5057709 4.82142857,13.5057709 L6.75,13.5057709 C7.28256029,13.5057709 7.71428571,13.0738609 7.71428571,12.541073 C7.71428571,12.008285 7.28256029,11.5763751 6.75,11.5763751 L4.82142857,11.5763751 L4.82142857,11.5763751 Z" id="Shape"></path>
            <path d="M14.3333333,13.3333333 L14.3333333,10.6666667 C14.3333333,10.2984768 14.6318102,10 15,10 C15.3681898,10 15.6666667,10.2984768 15.6666667,10.6666667 L15.6666667,13.3333333 L18.3333333,13.3333333 C18.7015232,13.3333333 19,13.6318102 19,14 C19,14.3681898 18.7015232,14.6666667 18.3333333,14.6666667 L15.6666667,14.6666667 L15.6666667,17.3333333 C15.6666667,17.7015232 15.3681898,18 15,18 C14.6318102,18 14.3333333,17.7015232 14.3333333,17.3333333 L14.3333333,14.6666667 L11.6666667,14.6666667 C11.2984768,14.6666667 11,14.3681898 11,14 C11,13.6318102 11.2984768,13.3333333 11.6666667,13.3333333 L14.3333333,13.3333333 Z" id="Path"></path>
        </g>
    </g>
</svg>