<?xml version="1.0" encoding="UTF-8"?>
<svg width="24px" height="24px" viewBox="0 0 24 24" version="1.1" xmlns="http://www.w3.org/2000/svg" xmlns:xlink="http://www.w3.org/1999/xlink">
    <!-- Generator: Sketch 58 (84663) - https://sketch.com -->
    <title>Icon/Alert</title>
    <desc>Created with Sketch.</desc>
    <g id="Icon/Alert" stroke="none" stroke-width="1" fill="none" fill-rule="evenodd">
        <path d="M9.31029518,6.16589596 C10.361163,5.2726748 11.76232,4.86246509 13.1497544,5.04096932 C15.5468886,5.34897661 17.3539478,7.41822563 17.3539478,9.85498336 L17.3539478,9.85498336 L17.3539478,12.9826575 L18.6547127,14.2447874 C18.9927238,14.5737951 19.0931159,15.0638068 18.9089432,15.4929169 C18.7254928,15.9227271 18.2972009,16.1999337 17.8176297,16.1999337 L17.8176297,16.1999337 L15.3894389,16.1999337 L15.3894389,16.4386393 C15.3894389,17.8512728 14.0937298,19 12.5004553,19 C10.9071809,19 9.61147172,17.8512728 9.61147172,16.4386393 L9.61147172,16.4386393 L9.61147172,16.1999337 L7.18255875,16.1999337 C6.70298747,16.1999337 6.27469565,15.9220271 6.09052294,15.4929169 C5.90707248,15.0638068 6.00746466,14.5737951 6.34619799,14.2454874 L6.34619799,14.2454874 L7.64624062,12.9826575 L7.64696286,9.70867989 C7.64696286,8.35484782 8.25292718,7.06331722 9.31029518,6.16589596 Z M13.9449471,16.1999337 L11.0559635,16.1999337 L11.0559635,16.4386393 C11.0559635,17.0679542 11.7175408,17.5999668 12.5004553,17.5999668 C13.2833699,17.5999668 13.9449471,17.0679542 13.9449471,16.4386393 L13.9449471,16.4386393 L13.9449471,16.1999337 Z" id="Combined-Shape" fill="currentColor"></path>
    </g>
</svg>