<?xml version="1.0" encoding="UTF-8"?>
<svg width="24px" height="24px" viewBox="0 0 24 24" version="1.1" xmlns="http://www.w3.org/2000/svg" xmlns:xlink="http://www.w3.org/1999/xlink">
    <!-- Generator: Sketch 58 (84663) - https://sketch.com -->
    <title>Icon/alert</title>
    <desc>Created with Sketch.</desc>
    <g id="Icon/alert" stroke="none" stroke-width="1" fill="none" fill-rule="evenodd">
        <path d="M14,18.341 C14,19.24 13.084,20 12,20 C10.916,20 10,19.24 10,18.341 L10,18 L14,18 L14,18.341 Z M18.7208508,13.4037964 L18.7208508,8.93569051 C18.7208508,4.10526316 15.3159205,2 11.9735294,2 C9.03853334,2 5.27941009,4.10526316 5.28041012,8.72668556 L5.27941009,13.4037964 L3.47935107,15.2078391 C3.01033569,15.6768502 2.87133113,16.3768668 3.12533946,16.9898813 C3.38034782,17.6028958 3.97336726,17.9999052 4.63738904,17.9999052 L8.0004993,17.9999052 L8.0004993,18.3409133 C8.0004993,20.3589611 9.79455813,22 12.0006305,22 C14.2067028,22 16.0007616,20.3589611 16.0007616,18.3409133 L16.0007616,17.9999052 L19.3628719,17.9999052 C20.0268936,17.9999052 20.6199131,17.6038959 20.8739214,16.9898813 C21.1289298,16.3768668 20.9899252,15.6768502 20.5219099,15.2068391 L18.7208508,13.4037964 Z" id="path-1" fill="#000000" fill-rule="nonzero"></path>
    </g>
</svg>