<?xml version="1.0" encoding="UTF-8"?>
<svg width="24px" height="24px" viewBox="0 0 24 24" version="1.1" xmlns="http://www.w3.org/2000/svg" xmlns:xlink="http://www.w3.org/1999/xlink">
    <!-- Generator: Sketch 58 (84663) - https://sketch.com -->
    <title>Icon/Alert Line</title>
    <desc>Created with Sketch.</desc>
    <g id="Icon/Alert-Line" stroke="none" stroke-width="1" fill="none" fill-rule="evenodd">
        <path d="M13.1816354,4.79301044 L13.4017206,4.82624125 C15.7318145,5.23092572 17.4912556,7.23028072 17.5989407,9.6289061 L17.6039478,9.85498336 L17.6039478,12.8768897 L18.8290874,14.0656409 C19.2412103,14.4667864 19.3637104,15.0672062 19.1388753,15.5910559 C18.9370764,16.0638549 18.4909629,16.3872327 17.9600871,16.4428119 L17.8175013,16.4499336 L15.6394139,16.45 C15.63256,18.0025688 14.2213686,19.2499986 12.5004553,19.2499986 C10.8466675,19.2499986 9.46816533,18.0949086 9.36689661,16.6029359 L9.36183206,16.45 L7.18255875,16.4499337 C6.60413167,16.4499337 6.08482516,16.1135081 5.86064874,15.5911913 C5.65989192,15.1215997 5.73633444,14.5873702 6.06739333,14.1797773 L6.17200644,14.0661628 L7.39626393,12.8769487 L7.39696286,9.70867989 C7.39696286,8.28062732 8.03580665,6.91968942 9.14838481,5.97540966 C10.2529023,5.03658711 11.7244144,4.60553344 13.1816354,4.79301044 Z M14.1393809,16.45 L10.8615351,16.45 C10.8692976,17.1458709 11.5893607,17.7500004 12.5004553,17.7500004 C13.4117475,17.7500004 14.1319253,17.1456089 14.1393809,16.45 Z M10.2938449,6.97958121 L10.1223725,7.11618295 L9.96755846,7.25513517 C9.33497699,7.85684322 8.95801476,8.65599515 8.90376364,9.4977256 L8.89696283,9.70895564 L8.89614736,13.4055475 L8.82033886,13.584817 L7.41499426,14.9499337 L14.3516445,14.9528066 L14.3894389,14.9499337 L17.5864168,14.9499337 L16.1798557,13.5851499 L16.1039478,13.4057287 L16.1039478,9.85498336 C16.1039478,8.0460305 14.7629597,6.50852603 12.9902469,6.28075049 C12.0261691,6.15671437 11.0536854,6.41159553 10.2938449,6.97958121 Z" id="Combined-Shape" fill="currentColor" fill-rule="nonzero"></path>
    </g>
</svg>