<?xml version="1.0" encoding="UTF-8"?>
<svg width="24px" height="24px" viewBox="0 0 24 24" version="1.1" xmlns="http://www.w3.org/2000/svg" xmlns:xlink="http://www.w3.org/1999/xlink">
    <!-- Generator: Sketch 58 (84663) - https://sketch.com -->
    <title>Icon/alert-line</title>
    <desc>Created with Sketch.</desc>
    <g id="Icon/alert-line" stroke="none" stroke-width="1" fill="none" fill-rule="evenodd">
        <path d="M11.9735294,2 C15.3159205,2 18.7208508,4.10526316 18.7208508,8.93569051 L18.7208508,8.93569051 L18.7208508,13.4037964 L20.5219099,15.2068391 C20.9899252,15.6768502 21.1289298,16.3768668 20.8739214,16.9898813 C20.6199131,17.6038959 20.0268936,17.9999052 19.3628719,17.9999052 L19.3628719,17.9999052 L16.0007616,17.9999052 L16,18 L16.0007616,18.3409133 C16.0007616,20.3589611 14.2067028,22 12.0006305,22 C9.79455813,22 8.0004993,20.3589611 8.0004993,18.3409133 L8.0004993,18.3409133 L8.0004993,17.9999052 L4.63738904,17.9999052 C3.97336726,17.9999052 3.38034782,17.6028958 3.12533946,16.9898813 C2.87133113,16.3768668 3.01033569,15.6768502 3.47935107,15.2078391 L3.47935107,15.2078391 L5.27941009,13.4037964 L5.28041012,8.72668556 C5.27941009,4.10526316 9.03853334,2 11.9735294,2 Z M14,18 L10,18 L10.0004993,18.3409133 C10.0004993,19.1690307 10.7773552,19.9210508 11.8318901,19.9941825 L12.0006305,20 C13.1399795,20 14.0007616,19.2126158 14.0007616,18.3409133 L14.0007616,18.3409133 L14,18 Z M11.9735294,4 C9.44174243,4 7.27978266,5.82681541 7.28041007,8.72711319 L7.28041007,8.72711319 L7.27923324,14.231106 L5.5143388,15.9999052 L10.0004993,15.9999052 L10,16 L14,16 L14.0007616,15.9999052 L18.4872318,15.9999052 L16.7208508,14.2315787 L16.7208508,8.93569051 C16.7208508,5.7282878 14.7801249,4 11.9735294,4 Z" id="Combined-Shape" fill="currentColor" fill-rule="nonzero"></path>
    </g>
</svg>