<?xml version="1.0" encoding="UTF-8"?>
<svg width="24px" height="24px" viewBox="0 0 24 24" version="1.1" xmlns="http://www.w3.org/2000/svg" xmlns:xlink="http://www.w3.org/1999/xlink">
    <!-- Generator: Sketch 58 (84663) - https://sketch.com -->
    <title>Icon/alert-line</title>
    <desc>Created with Sketch.</desc>
    <g id="Icon/alert-line" stroke="none" stroke-width="1" fill="none" fill-rule="evenodd">
        <path d="M15,18.341 C15,19.8379686 13.5992213,21 12,21 C10.4007787,21 9,19.8379686 9,18.341 L9,17 L15,17 L15,18.341 Z M19.814414,15.9135566 L17.7208508,13.8176875 L17.7208508,8.93569051 C17.7208508,5.14851362 15.3082457,3 11.9735294,3 C8.92322983,3 6.27965431,5.23377169 6.2804101,8.72689937 L6.27932166,13.8174512 L5.98729802,14.1101211 L4.18645463,15.9149491 C4.00355597,16.0978461 3.94996293,16.3676569 4.0486378,16.6057978 C4.14883147,16.8466533 4.37811241,16.9999052 4.63738904,16.9999052 L9.0004993,16.9999052 L9.0004993,18.3409133 C9.0004993,19.7857779 10.3279082,21 12.0006305,21 C13.6733527,21 15.0007616,19.7857779 15.0007616,18.3409133 L15.0007616,16.9999052 L19.3628719,16.9999052 C19.6225421,16.9999052 19.850641,16.8474793 19.9506231,16.6057978 C20.0500673,16.3667438 19.9966396,16.096561 19.814414,15.9135566 Z" id="path-1" stroke="#000000" stroke-width="2" fill-rule="nonzero"></path>
    </g>
</svg>