<?xml version="1.0" encoding="UTF-8"?>
<svg width="24px" height="24px" viewBox="0 0 24 24" version="1.1" xmlns="http://www.w3.org/2000/svg" xmlns:xlink="http://www.w3.org/1999/xlink">
    <!-- Generator: Sketch 58 (84663) - https://sketch.com -->
    <title>alert</title>
    <desc>Created with Sketch.</desc>
    <defs>
        <path d="M8.5,12.755975 C8.5,13.430225 7.813,14.000225 7,14.000225 C6.187,14.000225 5.5,13.430225 5.5,12.755975 L5.5,12.500225 L8.5,12.500225 L8.5,12.755975 Z M13.39075,10.405475 L12.04,9.053225 L12.04,5.702225 C12.04,3.091475 10.1635,0.874475 7.67425,0.544475 C6.2335,0.353225 4.7785,0.792725 3.68725,1.749725 C2.58925,2.711225 1.96,4.094975 1.96,5.545475 L1.95925,9.053225 L0.60925,10.406225 C0.2575,10.757975 0.15325,11.282975 0.34375,11.742725 C0.535,12.202475 0.97975,12.500225 1.47775,12.500225 L4,12.500225 L4,12.755975 C4,14.269475 5.3455,15.500225 7,15.500225 C8.6545,15.500225 10,14.269475 10,12.755975 L10,12.500225 L12.5215,12.500225 C13.0195,12.500225 13.46425,12.203225 13.65475,11.742725 C13.846,11.282975 13.74175,10.757975 13.39075,10.405475 L13.39075,10.405475 Z" id="path-1"></path>
    </defs>
    <g id="alert" stroke="none" stroke-width="1" fill="none" fill-rule="evenodd">
        <g id="arrow-left" transform="translate(5.000000, 4.000000)">
            <mask id="mask-2" fill="white">
                <use xlink:href="#path-1"></use>
            </mask>
            <use id="🎨-Icon-Сolor" fill="currentColor" xlink:href="#path-1"></use>
        </g>
    </g>
</svg>