<svg xmlns="http://www.w3.org/2000/svg" width="13" height="12" viewBox="0 0 13 12">
    <g fill="currentColor" fill-rule="evenodd">
        <path d="M4.213 7.113a.525.525 0 0 0-.022.725.486.486 0 0 0 .7.024l3.065-2.975c.2-.194.21-.518.023-.725a.483.483 0 0 0-.7-.023L4.213 7.113z"/>
        <path d="M11.283.888c-1.225-1.2-3.27-1.183-4.567.046L5.014 2.61a.49.49 0 0 0-.002.696.499.499 0 0 0 .702.003l1.694-1.67c.905-.858 2.33-.881 3.178-.052.388.382.599.912.592 1.494-.007.588-.242 1.142-.645 1.518L8.66 6.349a.49.49 0 0 0-.022.696.495.495 0 0 0 .702.021l1.874-1.75c.598-.557.946-1.368.957-2.223a3.04 3.04 0 0 0-.887-2.205M6.456 8.69l-1.695 1.671c-.905.857-2.33.88-3.177.05-.389-.38-.6-.91-.592-1.492A2.11 2.11 0 0 1 1.636 7.4l1.875-1.75a.49.49 0 0 0 .021-.696.499.499 0 0 0-.701-.021L.957 6.684C.359 7.241.01 8.051 0 8.906c-.01.84.313 1.643.887 2.205A3.16 3.16 0 0 0 3.111 12a3.41 3.41 0 0 0 2.343-.934L7.155 9.39a.49.49 0 0 0 .003-.696.499.499 0 0 0-.702-.002"/>
    </g>
</svg>
