<?xml version="1.0" encoding="UTF-8"?>
<svg width="24px" height="24px" viewBox="0 0 24 24" version="1.1" xmlns="http://www.w3.org/2000/svg" xmlns:xlink="http://www.w3.org/1999/xlink">
    <!-- Generator: Sketch 58 (84663) - https://sketch.com -->
    <title>Icon/author-filled</title>
    <desc>Created with Sketch.</desc>
    <g id="Icon/author-filled" stroke="none" stroke-width="1" fill="none" fill-rule="evenodd">
        <path d="M12,3 C14.7566075,3 17,5.2335444 17,8 C17,9.194224 16.5819488,10.2891412 15.8850265,11.1479482 C18.4267697,11.4685848 19.6003864,12.3701823 20.4191425,14.3946562 C20.7811418,15.2913713 20.9466702,16.3211427 20.9889279,17.8944761 L20.996123,18.2400884 L21,18.9360855 L21,20 C21,20.5522847 20.5522847,21 20,21 C19.9996628,21 19.9993257,20.9999998 19.9989886,20.9999995 L19.9988251,21 L4,21 C3.9636461,21 3.92909577,20.9981566 3.89634901,20.9944699 C3.39266737,20.9427257 3,20.5172191 3,20 L3.00075679,19.9607336 L3.00258017,19.3820864 L3,18.7293839 C3,16.6758324 3.15602094,15.4233531 3.58407984,14.3935815 C4.37584246,12.4817756 5.72059331,11.5804191 8.17035452,11.213879 C7.44022866,10.3464076 7,9.2254913 7,8 C7,5.2335444 9.24339248,3 12,3 Z" id="Combined-Shape" fill="currentColor" fill-rule="nonzero"></path>
    </g>
</svg>