<svg xmlns="http://www.w3.org/2000/svg" width="27" height="30" viewBox="0 0 27 30">
    <path fill="#6096FF" fill-rule="evenodd" d="M13.5 2.333c2.575 0 4.67 2.077 4.67 4.62 0 2.552-2.095 4.62-4.67 4.62-2.575 0-4.669-2.068-4.669-4.62 0-2.543 2.094-4.62 4.669-4.62zm7.029 4.62C20.529 3.12 17.375 0 13.5 0S6.472 3.119 6.472 6.954c0 3.834 3.153 6.953 7.028 6.953 3.875 0 7.029-3.119 7.029-6.953zm4.112 20.714H2.359v-5.414c0-1.369.542-2.707 1.45-3.586.463-.45 1.228-.995 2.319-.964.601.015 2.465-.008 4.731-.016 3.386-.015 7.657-.039 9.867-.039 2.69 0 3.915 2.17 3.915 4.185v5.834zM10.848 15.354c-2.25.008-4.108.015-4.688.015-1.47-.023-2.892.553-4.004 1.634C.806 18.31 0 20.27 0 22.253v6.58C0 29.471.528 30 1.18 30h24.64c.652 0 1.18-.529 1.18-1.167v-7c0-3.158-2.199-6.518-6.274-6.518-2.212 0-6.488.023-9.878.039z"/>
</svg>
