<?xml version="1.0" encoding="UTF-8"?>
<svg width="24px" height="24px" viewBox="0 0 24 24" version="1.1" xmlns="http://www.w3.org/2000/svg" xmlns:xlink="http://www.w3.org/1999/xlink">
    <!-- Generator: Sketch 58 (84663) - https://sketch.com -->
    <title>Icon/author-more-item</title>
    <desc>Created with Sketch.</desc>
    <g id="Icon/author-more-item" stroke="none" stroke-width="1" fill="none" fill-rule="evenodd">
        <g id="author-more-item" transform="translate(3.000000, 7.000000)" fill="#000000">
            <path d="M1.125,0 L16.875,0 C17.4963203,0 18,0.44771525 18,1 C18,1.55228475 17.4963203,2 16.875,2 L1.125,2 C0.503679656,2 0,1.55228475 0,1 C0,0.44771525 0.503679656,0 1.125,0 Z" id="a-path"></path>
            <path d="M1.125,4 L16.875,4 C17.4963203,4 18,4.44771525 18,5 C18,5.55228475 17.4963203,6 16.875,6 L1.125,6 C0.503679656,6 0,5.55228475 0,5 C0,4.44771525 0.503679656,4 1.125,4 Z" id="a-path"></path>
            <path d="M1.125,8 L7.875,8 C8.49632034,8 9,8.44771525 9,9 C9,9.55228475 8.49632034,10 7.875,10 L1.125,10 C0.503679656,10 0,9.55228475 0,9 C0,8.44771525 0.503679656,8 1.125,8 Z" id="a-path"></path>
        </g>
    </g>
</svg>