<svg xmlns="http://www.w3.org/2000/svg" width="24" height="29" viewBox="0 0 24 29">
    <path fill="#9AA3B5" fill-rule="nonzero" d="M.365.959C.61.6.938.339 1.35.173 1.612.058 1.887 0 2.175 0h19.65c.288 0 .562.058.825.172.412.166.74.429.984.786.244.358.366.754.366 1.189v24.706c0 .435-.122.83-.366 1.189a2.12 2.12 0 0 1-.984.786 2.035 2.035 0 0 1-.825.172c-.588 0-1.106-.21-1.556-.632l-8.27-8.128-8.268 8.128a2.205 2.205 0 0 1-1.556.613c-.313 0-.588-.051-.825-.153a2.12 2.12 0 0 1-.985-.787A2.064 2.064 0 0 1 0 26.853V2.147c0-.435.122-.83.365-1.188z"/>
</svg>
