<?xml version="1.0" encoding="UTF-8"?>
<svg width="14px" height="16px" viewBox="0 0 14 16" version="1.1" xmlns="http://www.w3.org/2000/svg" xmlns:xlink="http://www.w3.org/1999/xlink">
    <!-- Generator: Sketch 50.2 (55047) - http://www.bohemiancoding.com/sketch -->
    <title>Combined Shape</title>
    <desc>Created with Sketch.</desc>
    <defs>
        <path d="M5.21311378,4.52888736 C5.35535563,4.33135558 5.54690135,4.18690144 5.78732954,4.09526565 C5.94045119,4.03189103 6.10092819,4.00014816 6.26868393,4.00014816 L17.7313161,4 C17.8989952,4 18.059319,4.03174287 18.2124789,4.0951175 C18.4530604,4.1866792 18.6445295,4.33131854 18.7866947,4.5287392 C18.9288216,4.72615986 19,4.94461897 19,5.1843758 L19,18.8156242 C19,19.0554551 18.9288216,19.2738401 18.7866947,19.471446 C18.6445295,19.6688296 18.4530604,19.8134319 18.2124789,19.9049566 C18.0594722,19.9683312 17.8989952,20 17.7313161,20 C17.3884876,20 17.0860369,19.8836218 16.823466,19.6511618 L11.9999617,15.167083 L7.1764574,19.6512729 C6.92120358,19.8765102 6.61859965,19.9893326 6.26872224,19.9893326 C6.08637072,19.9893326 5.92593202,19.9613307 5.78736785,19.9049195 C5.54693966,19.8133949 5.35539394,19.6687926 5.21315209,19.4711497 C5.07102517,19.2738031 5.00000002,19.055381 5.00000002,18.8155872 L5.00000002,5.18452396 C4.99996171,4.94476713 5.0711401,4.72630802 5.21311378,4.52888736 Z M8,8 C7.44771525,8 7,8.44771525 7,9 L7,10 C7,10.5522847 7.44771525,11 8,11 L16,11 C16.5522847,11 17,10.5522847 17,10 L17,9 C17,8.44771525 16.5522847,8 16,8 L8,8 Z" id="path-1"></path>
    </defs>
    <g id="Symbols" stroke="none" stroke-width="1" fill="none" fill-rule="evenodd">
        <g id="Icon/Bookmark-Copy" transform="translate(-5.000000, -4.000000)">
            <mask id="mask-2" fill="white">
                <use xlink:href="#path-1"></use>
            </mask>
            <use id="Combined-Shape" fill="currentColor" fill-rule="nonzero" xlink:href="#path-1"></use>
        </g>
    </g>
</svg>
