<?xml version="1.0" encoding="UTF-8"?>
<svg width="24px" height="24px" viewBox="0 0 24 24" version="1.1" xmlns="http://www.w3.org/2000/svg" xmlns:xlink="http://www.w3.org/1999/xlink">
    <!-- Generator: Sketch 58 (84663) - https://sketch.com -->
    <title>Icon/bookmark</title>
    <desc>Created with Sketch.</desc>
    <g id="Icon/bookmark" stroke="none" stroke-width="1" fill="none" fill-rule="evenodd">
        <path d="M4.24337381,2.6613791 C4.40670672,2.41379297 4.62537283,2.23379303 4.90003879,2.11931031 C5.07470501,2.03999999 5.25803787,2 5.45003738,2 L18.5500037,2 C18.7420032,2 18.9246694,2.03999999 19.1000023,2.11862065 C19.3746683,2.23310337 19.5933344,2.41448263 19.7560006,2.66068944 C19.9186669,2.90758591 20,3.18068927 20,3.48068918 L20,20.5193044 C20,20.8193043 19.9186669,21.091718 19.7560006,21.3393041 C19.5954606,21.5845625 19.3666982,21.7735949 19.1000023,21.8813729 C18.9266788,21.9601804 18.7393292,22.0005869 18.5500037,22 C18.1580047,22 17.8126723,21.855166 17.5126731,21.5641316 L11.9993539,15.9586162 L6.48736804,21.5641316 C6.20866976,21.8404969 5.8360624,21.992351 5.45003738,21.9868901 C5.24137124,21.9868901 5.05803838,21.9517177 4.90003879,21.8813729 C4.63300798,21.7735304 4.40398947,21.5842379 4.24337381,21.3386145 C4.08281997,21.0978591 3.99785637,20.8117836 4,20.5193044 L4,3.48068918 C4,3.18068927 4.08137422,2.90827557 4.24337381,2.6613791 Z" id="Path" fill="currentColor" fill-rule="nonzero"></path>
    </g>
</svg>