<?xml version="1.0" encoding="UTF-8"?>
<svg width="24px" height="24px" viewBox="0 0 24 24" version="1.1" xmlns="http://www.w3.org/2000/svg" xmlns:xlink="http://www.w3.org/1999/xlink">
    <!-- Generator: Sketch 58 (84663) - https://sketch.com -->
    <title>Icon/bookmark</title>
    <desc>Created with Sketch.</desc>
    <g id="Icon/bookmark" stroke="none" stroke-width="1" fill="none" fill-rule="evenodd">
        <path d="M6.18253036,3.59524119 C6.30503004,3.37241367 6.46902962,3.21041373 6.67502909,3.10737928 C6.80602875,3.03599999 6.9435284,3 7.08752803,3 L16.9125028,3 C17.0565024,3 17.1935021,3.03599999 17.3250017,3.10675859 C17.5310012,3.20979304 17.6950008,3.37303436 17.8170005,3.5946205 C17.9390002,3.81682732 18,4.06262035 18,4.33262026 L18,19.6673739 C18,19.9373739 17.9390002,20.1825462 17.8170005,20.4053737 C17.6965954,20.6261062 17.5250237,20.7962354 17.3250017,20.8932356 C17.1950091,20.9641623 17.0544969,21.0005282 16.9125028,21 C16.6185035,21 16.3595042,20.8696494 16.1345048,20.6077185 L11.9995154,15.5627546 L7.86552603,20.6077185 C7.65650232,20.8564472 7.3770468,20.9931159 7.08752803,20.9882011 C6.93102843,20.9882011 6.79352879,20.9565459 6.67502909,20.8932356 C6.47475598,20.7961774 6.3029921,20.6258141 6.18253036,20.404753 C6.06211498,20.1880732 5.99839228,19.9306052 6,19.6673739 L6,4.33262026 C6,4.06262035 6.06103067,3.81744801 6.18253036,3.59524119 Z" id="Path" fill="currentColor" fill-rule="nonzero"></path>
    </g>
</svg>