<svg xmlns="http://www.w3.org/2000/svg" width="28" height="33" viewBox="0 0 28 33">
    <path fill="none" fill-rule="nonzero" stroke="#666D7C" stroke-width="2" d="M1.396 2.025c.264-.383.62-.663 1.066-.84.285-.123.583-.185.894-.185h21.288c.311 0 .609.062.893.184.447.178.803.458 1.067.84.264.383.396.806.396 1.27v26.411c0 .465-.132.888-.396 1.27-.264.383-.62.664-1.067.84a2.23 2.23 0 0 1-.893.185c-.637 0-1.198-.225-1.686-.676L14 22.636l-8.958 8.688a2.406 2.406 0 0 1-1.686.655c-.338 0-.636-.054-.894-.163a2.291 2.291 0 0 1-1.066-.84A2.186 2.186 0 0 1 1 29.705V3.294c0-.465.132-.888.396-1.27z"/>
</svg>
