<?xml version="1.0" encoding="UTF-8"?>
<svg width="24px" height="24px" viewBox="0 0 24 24" version="1.1" xmlns="http://www.w3.org/2000/svg" xmlns:xlink="http://www.w3.org/1999/xlink">
    <!-- Generator: Sketch 52.2 (67145) - http://www.bohemiancoding.com/sketch -->
    <title>Icon/Bookmark-empty</title>
    <desc></desc>
    <g id="Icon/Bookmark-empty" stroke="none" stroke-width="1" fill="none" fill-rule="evenodd">
        <path fill="currentColor" d="M17,6.00013871 L7,6.00000945 L7,17.084549 L10.6383029,13.7022701 C11.4059079,12.9886808 12.5941956,12.9886881 13.3617918,13.7022869 L17,17.0852607 L17,6.00013871 Z M18.7868862,4.52888736 C18.9288599,4.72630802 19.0000383,4.94476713 19,5.18452396 L19,18.8155872 C19,19.055381 18.9289748,19.2738031 18.7868479,19.4711497 C18.6446061,19.6687926 18.4530603,19.8133949 18.2126322,19.9049195 C18.074068,19.9613307 17.9136293,19.9893326 17.7312778,19.9893326 C17.3814003,19.9893326 17.0787964,19.8765102 16.8235426,19.6512729 L12.0000383,15.167083 L7.17653401,19.6511618 C6.91396313,19.8836218 6.61151244,20 6.26868392,20 C6.10100479,20 5.94052779,19.9683312 5.78752107,19.9049566 C5.54693965,19.8134319 5.35547055,19.6688296 5.21330531,19.471446 C5.07117839,19.2738401 5,19.0554551 5,18.8156242 L5,5.1843758 C5,4.94461897 5.07117839,4.72615986 5.21330531,4.5287392 C5.35547055,4.33131854 5.54693965,4.1866792 5.78752107,4.0951175 C5.94068103,4.03174287 6.10100479,4 6.26868392,4 L17.7313161,4.00014816 C17.8990718,4.00014816 18.0595488,4.03189103 18.2126705,4.09526565 C18.4530986,4.18690144 18.6446444,4.33135558 18.7868862,4.52888736 Z" id="bookmark" fill="#1E2A35" fill-rule="nonzero" transform="translate(12.000000, 12.000000) scale(-1, 1) translate(-12.000000, -12.000000) "></path>
    </g>
</svg>