<?xml version="1.0" encoding="UTF-8"?>
<svg width="14px" height="16px" viewBox="0 0 14 16" version="1.1" xmlns="http://www.w3.org/2000/svg" xmlns:xlink="http://www.w3.org/1999/xlink">
    <!-- Generator: Sketch 50.2 (55047) - http://www.bohemiancoding.com/sketch -->
    <title>bookmark-remove</title>
    <desc>Created with Sketch.</desc>
    <defs>
        <path d="M0.213,0.529 C0.355,0.331 0.547,0.187 0.787,0.095 C0.94,0.032 1.101,0 1.27,0 L12.73,0 C12.898,0 13.058,0.032 13.211,0.095 C13.452,0.187 13.644,0.331 13.786,0.529 C13.928,0.726 13.999,0.945 13.999,1.184 L13.999,14.816 C13.999,15.056 13.928,15.274 13.786,15.471 C13.6420763,15.6699415 13.4417745,15.8211258 13.211,15.905 C12.737595,16.0936423 12.1980085,15.9949706 11.822,15.651 L7,11.167 L2.176,15.651 C1.92700593,15.873844 1.60310586,15.9945477 1.269,15.989 C1.10440753,15.9925054 0.940703567,15.9639761 0.787,15.905 C0.55659161,15.8209517 0.356658144,15.6697825 0.213,15.471 C0.0734583102,15.2812285 -0.00123117856,15.0515496 1.94290723e-16,14.816 L1.94290723e-16,1.185 C1.94290723e-16,0.945 0.071,0.726 0.213,0.529 Z M4,5 C3.44771525,5 3,5.44771525 3,6 C3,6.55228475 3.44771525,7 4,7 L10,7 C10.5522847,7 11,6.55228475 11,6 C11,5.44771525 10.5522847,5 10,5 L4,5 Z" id="path-1"></path>
    </defs>
    <g id="Screen" stroke="none" stroke-width="1" fill="none" fill-rule="evenodd">
        <g id="Sign-in" transform="translate(-429.000000, -669.000000)">
            <g id="bookmark-remove" transform="translate(429.000000, 669.000000)">
                <g id="a-link" fill="#000000" fill-rule="nonzero">
                    <path d="M0.213,0.529 C0.355,0.331 0.547,0.187 0.787,0.095 C0.94,0.032 1.101,0 1.27,0 L12.73,0 C12.898,0 13.058,0.032 13.211,0.095 C13.452,0.187 13.644,0.331 13.786,0.529 C13.928,0.726 13.999,0.945 13.999,1.184 L13.999,14.816 C13.999,15.056 13.928,15.274 13.786,15.471 C13.6420763,15.6699415 13.4417745,15.8211258 13.211,15.905 C12.737595,16.0936423 12.1980085,15.9949706 11.822,15.651 L7,11.167 L2.176,15.651 C1.92700593,15.873844 1.60310586,15.9945477 1.269,15.989 C1.10440753,15.9925054 0.940703567,15.9639761 0.787,15.905 C0.55659161,15.8209517 0.356658144,15.6697825 0.213,15.471 C0.0734583102,15.2812285 -0.00123117856,15.0515496 1.94290723e-16,14.816 L1.94290723e-16,1.185 C1.94290723e-16,0.945 0.071,0.726 0.213,0.529 Z M4,5 C3.44771525,5 3,5.44771525 3,6 C3,6.55228475 3.44771525,7 4,7 L10,7 C10.5522847,7 11,6.55228475 11,6 C11,5.44771525 10.5522847,5 10,5 L4,5 Z" id="a"></path>
                </g>
                <g id="Clipped">
                    <mask id="mask-2" fill="white">
                        <use xlink:href="#path-1"></use>
                    </mask>
                    <g id="a"></g>
                    <g id="Group" mask="url(#mask-2)" fill="#666d7c" fill-rule="nonzero">
                        <g transform="translate(-6.000000, -4.000000)" id="Shape">
                            <polygon points="0 0 24 0 24 24 0 24"></polygon>
                        </g>
                    </g>
                </g>
            </g>
        </g>
    </g>
</svg>
