<?xml version="1.0" encoding="UTF-8"?>
<svg width="24px" height="24px" viewBox="0 0 24 24" version="1.1" xmlns="http://www.w3.org/2000/svg" xmlns:xlink="http://www.w3.org/1999/xlink">
    <!-- Generator: Sketch 58 (84663) - https://sketch.com -->
    <title>Icon/camera</title>
    <desc>Created with Sketch.</desc>
    <g id="Icon/camera" stroke="none" stroke-width="1" fill="none" fill-rule="evenodd">
        <g id="Group" transform="translate(2.000000, 4.000000)" fill="currentColor">
            <path d="M10.0002846,4.75 C12.2021769,4.75 14,6.54752388 14,8.75028299 C14,10.9524761 12.202746,12.75 10.0002846,12.75 C7.79782315,12.75 6,10.9524761 6,8.75028299 C6,6.54808985 7.78814825,4.75 10.0002846,4.75 Z M10.0001983,6.75 C8.89818578,6.75 8,7.64826498 8,8.75 C8,9.85173502 8.89818578,10.75 10.0001983,10.75 L10.0001983,10.75 C11.1018142,10.7496057 12,9.85173502 12,8.75 C12,7.64826498 11.1018142,6.75 10.0001983,6.75 Z" id="Combined-Shape"></path>
            <path d="M2,3 L3.98473796,3 L5.40565943,0.884759242 C5.77715567,0.331735015 6.39963448,0 7.0658516,0 L12.9339562,0 C13.6002793,0 14.2228427,0.331839931 14.5943153,0.885007794 L16.0146103,3 L18,3 C19.1045695,3 20,3.8954305 20,5 L20,14 C20,15.1045695 19.1045695,16 18,16 L2,16 C0.8954305,16 0,15.1045695 0,14 L0,5 C0,3.8954305 0.8954305,3 2,3 Z M2,5 L2,14 L18,14 L18,5 L16.0146103,5 C15.3482872,5 14.7257238,4.66816007 14.3542512,4.11499221 L12.9339562,2 L7.0658516,2 L5.64493013,4.11524076 C5.27343388,4.66826498 4.65095508,5 3.98473796,5 L2,5 Z" id="Rectangle" fill-rule="nonzero"></path>
        </g>
    </g>
</svg>