<svg xmlns="http://www.w3.org/2000/svg" width="31" height="27" viewBox="0 0 31 27">
    <g fill="#FFF" fill-rule="nonzero">
        <path d="M26.475 5.367l-3.159-.017L20.29.81a1 1 0 0 0-.827-.465H11.31a.995.995 0 0 0-.81.449L7.374 5.35l-2.927.017C2.23 5.367.412 7.196.412 9.424v13.12c0 2.23 1.819 4.092 4.035 4.092h22.028c2.216 0 4.035-1.863 4.035-4.091V9.425c0-2.23-1.82-4.058-4.035-4.058zm2.05 17.178c0 1.13-.926 2.095-2.05 2.095H4.447c-1.125 0-2.05-.964-2.05-2.095V9.425c0-1.132.925-2.063 2.05-2.063h3.456c.331 0 .629-.183.81-.449l3.126-4.556h7.095l3.01 4.523c.182.266.496.449.81.449l3.704.033c1.125 0 2.051.931 2.051 2.062v13.121h.016z"/>
        <path d="M15.544 7.761c-3.887 0-7.029 3.177-7.029 7.068 0 3.891 3.159 7.067 7.029 7.067s7.028-3.176 7.028-7.067c0-3.892-3.159-7.068-7.028-7.068zm0 12.14c-2.779 0-5.044-2.278-5.044-5.072s2.265-5.072 5.044-5.072c2.778 0 5.043 2.278 5.043 5.072S18.322 19.9 15.544 19.9zM24.953 9.308c-.76 0-1.372.615-1.372 1.38a1.373 1.373 0 1 0 2.745 0c0-.765-.612-1.38-1.373-1.38z"/>
    </g>
</svg>
