<?xml version="1.0" encoding="UTF-8"?>
<svg width="24px" height="24px" viewBox="0 0 24 24" version="1.1" xmlns="http://www.w3.org/2000/svg" xmlns:xlink="http://www.w3.org/1999/xlink">
    <!-- Generator: Sketch 58 (84663) - https://sketch.com -->
    <title>Icon/camera</title>
    <desc>Created with Sketch.</desc>
    <g id="Icon/camera" stroke="none" stroke-width="1" fill="none" fill-rule="evenodd">
        <g id="Group" transform="translate(2.000000, 4.000000)" stroke="#000000" stroke-width="2">
            <path d="M10.0002846,5.75 C8.34424703,5.75 7,7.09655541 7,8.75028299 C7,10.4001427 8.35005918,11.75 10.0002846,11.75 C11.6503579,11.75 13,10.4002947 13,8.75028299 C13,7.0999895 11.650073,5.75 10.0002846,5.75 Z M11.0001983,11.5782254 L11.0001983,11.75 L10.0001983,11.75 C8.34596828,11.75 7,10.404087 7,8.75 C7,7.09591299 8.34596828,5.75 10.0001983,5.75 C11.6541238,5.75 13,7.09600507 13,8.75 C13,10.0535157 12.1640657,11.165507 11.0001983,11.5782254 Z" id="Shape"></path>
            <path d="M2,4 C1.44771525,4 1,4.44771525 1,5 L1,14 C1,14.5522847 1.44771525,15 2,15 L18,15 C18.5522847,15 19,14.5522847 19,14 L19,5 C19,4.44771525 18.5522847,4 18,4 L15.4815884,4 L13.7641357,1.4425039 C13.5783994,1.16591997 13.2671177,1 12.9339562,1 L7.0658516,1 C6.73274304,1 6.42150364,1.16586751 6.23575551,1.44237962 L4.51766376,4 L2,4 Z" id="Rectangle"></path>
        </g>
    </g>
</svg>