<?xml version="1.0" encoding="UTF-8"?>
<svg width="24px" height="24px" viewBox="0 0 24 24" version="1.1" xmlns="http://www.w3.org/2000/svg" xmlns:xlink="http://www.w3.org/1999/xlink">
    <!-- Generator: Sketch 58 (84663) - https://sketch.com -->
    <title>Icon/citation</title>
    <desc>Created with Sketch.</desc>
    <g id="Icon/citation" stroke="none" stroke-width="1" fill="none" fill-rule="evenodd">
        <g id="Group-2" transform="translate(4.000000, 6.000000)" fill="currentColor" fill-rule="nonzero">
            <g id="Group">
                <path d="M0,5.74743368 C0,5.47329304 0.120572692,5.21622097 0.323359293,5.05800192 L6.5,0.25 L6.5,11.1557716 C6.5,11.6220261 6.15762951,12 5.73529412,12 L0.764705882,12 C0.342370485,12 0,11.6220261 0,11.1557716 L0,5.74743368 Z" id="Path-Copy"></path>
            </g>
            <path d="M9.5,5.74743368 C9.5,5.47329304 9.62057269,5.21622097 9.82335929,5.05800192 L16,0.25 L16,11.1557716 C16,11.6220261 15.6576295,12 15.2352941,12 L10.2647059,12 C9.84237049,12 9.5,11.6220261 9.5,11.1557716 L9.5,5.74743368 Z" id="Path-Copy-2"></path>
        </g>
    </g>
</svg>