<?xml version="1.0" encoding="UTF-8"?>
<svg width="24px" height="24px" viewBox="0 0 24 24" version="1.1" xmlns="http://www.w3.org/2000/svg" xmlns:xlink="http://www.w3.org/1999/xlink">
    <!-- Generator: Sketch 58 (84663) - https://sketch.com -->
    <title>Icon/citation</title>
    <desc>Created with Sketch.</desc>
    <g id="Icon/citation" stroke="none" stroke-width="1" fill="none" fill-rule="evenodd">
        <g id="Group" transform="translate(3.000000, 5.000000)" fill="currentColor">
            <path d="M7.37401101,-4.16333634e-14 L8.27569079,1.80621999 C6.7932804,3.00453455 5.61468125,4.56371521 4.87346077,6.35017392 C6.66275829,6.74863842 8,8.34526991 8,10.2542309 C8,12.4633699 6.209139,14.2542309 4,14.2542309 C1.790861,14.2542309 1.95399252e-14,12.4633699 1.95399252e-14,10.2542309 C1.95399252e-14,10.1058508 0.0080791831,9.95935761 0.0238216416,9.81516735 C0.109734607,8.17085506 0.44105362,6.63223783 1.19560332,5.25423093 C2.50513942,2.86267238 4.73465592,0.980517046 7.37401101,-4.16333634e-14 Z" id="Combined-Shape"></path>
            <path d="M17.374011,-4.16333634e-14 L18.2756908,1.80621999 C16.7932804,3.00453455 15.6146812,4.56371521 14.8734608,6.35017392 C16.6627583,6.74863842 18,8.34526991 18,10.2542309 C18,12.4633699 16.209139,14.2542309 14,14.2542309 C11.790861,14.2542309 10,12.4633699 10,10.2542309 C10,10.1058508 10.0080792,9.95935761 10.0238216,9.81516735 C10.1097346,8.17085506 10.4410536,6.63223783 11.1956033,5.25423093 C12.5051394,2.86267238 14.7346559,0.980517046 17.374011,-4.16333634e-14 Z" id="Combined-Shape-Copy"></path>
        </g>
    </g>
</svg>