<svg width="15px" height="15px" viewBox="0 0 15 15" version="1.1" xmlns="http://www.w3.org/2000/svg" xmlns:xlink="http://www.w3.org/1999/xlink">
    <!-- Generator: Sketch 52.2 (67145) - http://www.bohemiancoding.com/sketch -->
    <title>Icon/Close Copy 7</title>
    <defs>
        <path d="M14.8041667,4.19583333 C14.4875,3.87916667 14.0125,3.87916667 13.6958333,4.19583333 L9.5,8.39166667 L5.30416667,4.19583333 C4.9875,3.87916667 4.5125,3.87916667 4.19583333,4.19583333 C3.87916667,4.5125 3.87916667,4.9875 4.19583333,5.30416667 L8.39166667,9.5 L4.19583333,13.6958333 C3.87916667,14.0125 3.87916667,14.4875 4.19583333,14.8041667 C4.35416667,14.9625 4.5125,15.0416667 4.75,15.0416667 C4.9875,15.0416667 5.14583333,14.9625 5.30416667,14.8041667 L9.5,10.6083333 L13.6958333,14.8041667 C13.8541667,14.9625 14.0916667,15.0416667 14.25,15.0416667 C14.4083333,15.0416667 14.6458333,14.9625 14.8041667,14.8041667 C15.1208333,14.4875 15.1208333,14.0125 14.8041667,13.6958333 L10.6083333,9.5 L14.8041667,5.30416667 C15.1208333,4.9875 15.1208333,4.5125 14.8041667,4.19583333 Z" id="path-1"></path>
    </defs>
    <g id="feature/collection-save-memo" stroke="none" stroke-width="1" fill="none" fill-rule="evenodd">
        <g id="Artboard-2-Copy-4" transform="translate(-1275.000000, -3568.000000)">
            <g id="Icon/Close" transform="translate(1272.000000, 3565.000000)">
                <mask id="mask-2" fill="white">
                    <use xlink:href="#path-1"></use>
                </mask>
                <g id="Mask" fill-rule="nonzero"></g>
                <g id="Mixin/Fill/Black" mask="url(#mask-2)" fill="#1E2A35" fill-rule="evenodd">
                    <rect id="Rectangle" x="0" y="0" width="19" height="19" rx="5"></rect>
                </g>
            </g>
        </g>
    </g>
</svg>