<?xml version="1.0" encoding="UTF-8"?>
<svg width="24px" height="24px" viewBox="0 0 24 24" version="1.1" xmlns="http://www.w3.org/2000/svg" xmlns:xlink="http://www.w3.org/1999/xlink">
    <g id="Icons-/-Navigation-/-Collection" stroke="none" stroke-width="1" fill="none" fill-rule="evenodd">
        <g id="inbox">
            <rect id="Rectangle" x="0" y="0" width="24" height="24"></rect>
            <path d="M16.2721234,4 C17.3456938,3.9993317 18.3232204,4.58017547 18.7632044,5.48781672 L21.8628699,12.859698 C21.9497837,12.9766346 22,13.1147534 22,13.2627124 L21.9992442,13.2958616 C21.9997475,13.3074558 22,13.3190699 22,13.330697 L22,17.4841775 C22,18.8790986 20.7733164,20 19.2727273,20 L4.72727273,20 C3.22668363,20 2,18.8790986 2,17.4841775 L2,13.330697 L2.00094393,13.2977821 C2.0003169,13.2861581 2,13.2744663 2,13.2627124 C2,13.1147534 2.0502163,12.9766346 2.13713007,12.859698 L5.23660118,5.48821666 C5.67713291,4.57996552 6.65450012,3.99933182 7.72727273,4 L16.2721234,4 Z M3.81809524,17.4841775 C3.81809524,17.9243796 4.21955364,18.2911394 4.72727273,18.2911394 L19.2727273,18.2911394 C19.7804464,18.2911394 20.1818182,17.9243796 20.1818182,17.4841775 L20.1809524,14.0253124 L16.1152777,14.0254242 L14.5679353,15.9186236 C14.3984177,16.1260313 14.1179327,16.2500003 13.8181818,16.2500003 L10.1818182,16.2500003 C9.88206734,16.2500003 9.60158228,16.1260313 9.43206468,15.9186236 L7.88472233,14.0254242 L3.81809524,14.0253124 L3.81809524,17.4841775 Z M16.2727273,5.7088613 L7.72666888,5.7088613 C7.36064581,5.7086336 7.03352832,5.90300596 6.8909104,6.19721152 L4.31238095,12.5 L8.36363636,12.5000006 C8.66338721,12.5000006 8.94387226,12.6239696 9.11338987,12.8313772 L10.6607322,14.7245767 L13.3392678,14.7245767 L14.8866101,12.8313772 C15.0561277,12.6239696 15.3366128,12.5000006 15.6363636,12.5000006 L19.6866667,12.5 L17.1090896,6.19721152 C16.9664717,5.90300596 16.6393542,5.7086336 16.2727273,5.7088613 Z" id="Shape" fill="currentColor" fill-rule="nonzero"></path>
        </g>
    </g>
</svg>
