<?xml version="1.0" encoding="UTF-8"?>
<svg width="24px" height="24px" viewBox="0 0 24 24" version="1.1" xmlns="http://www.w3.org/2000/svg" xmlns:xlink="http://www.w3.org/1999/xlink">
    <!-- Generator: Sketch 58 (84663) - https://sketch.com -->
    <title>Icon/collection</title>
    <desc>Created with Sketch.</desc>
    <g id="Icon/collection" stroke="none" stroke-width="1" fill="none" fill-rule="evenodd">
        <path d="M16.7002538,4 C17.4906313,4 18.2068742,4.46546704 18.5278769,5.18772307 L21.8276231,12.612152 C21.9412755,12.86787 22,13.1445922 22,13.4244289 L22,18 C22,19.1045695 21.1045695,20 20,20 L4,20 C2.8954305,20 2,19.1045695 2,18 L2,13.4244289 C2,13.1445922 2.05872446,12.86787 2.1723769,12.612152 L5.47212308,5.18772307 C5.79312576,4.46546704 6.50936875,4 7.29974618,4 L16.7002538,4 Z M4,18 L20,18 L20,14 L16.4824113,14 L14.7943836,16.1189757 C14.6046504,16.3571472 14.3167352,16.4958919 14.0122285,16.4958919 L14.0122285,16.4958919 L10.0055568,16.4958919 C9.70272504,16.4958919 9.41620605,16.3586623 9.22638714,16.122705 L9.22638714,16.122705 L7.51874976,14 L4,14 L4,18 Z M16.7002538,6 L7.29974618,6 L4.633,12 L7.9977044,12 C8.25727449,12 8.50485968,12.1008217 8.68983706,12.2782192 L8.77687407,12.3731869 L10.4845115,14.4958919 L13.530334,14.4958919 L15.2183617,12.3769162 C15.4080949,12.1387447 15.6960101,12 16.0005168,12 L16.0005168,12 L19.367,12 L16.7002538,6 Z" id="Combined-Shape" fill="#000000" fill-rule="nonzero"></path>
    </g>
</svg>