<?xml version="1.0" encoding="UTF-8"?>
<svg width="50px" height="50px" viewBox="0 0 50 50" version="1.1" xmlns="http://www.w3.org/2000/svg" xmlns:xlink="http://www.w3.org/1999/xlink">
    <defs>
        <rect id="path-1" x="0" y="0" width="50" height="50" rx="4"></rect>
    </defs>
    <g id="defaultProfileImage" stroke="none" stroke-width="1" fill="none" fill-rule="evenodd">
        <g id="Group">
            <rect id="Rectangle" stroke="#DDE0E7" fill="#DDE0E7" fill-rule="nonzero" x="0.5" y="0.5" width="49" height="49" rx="4"></rect>
            <path d="M25.0356204,32.9955283 C20.597635,32.9955283 17.0000876,28.7431941 17,23.4977199 C17,16.2236855 20.5975474,14 25.0356204,14 C29.4735182,14 33.0712409,16.2236855 33.0712409,23.4977199 C33.0712409,28.7431941 29.4733431,32.9955283 25.0356204,32.9955283 Z M41.5886055,43.9154198 C42.358909,45.6677204 42.8421954,47.5325673 43.0199288,49.4384361 C41.3983704,49.4384361 40.3580146,49.4384361 39.8988613,49.4384361 L10.1154161,49.4384361 C9.65626277,49.4384361 8.61779075,49.4384361 7,49.4384361 C7.17409273,47.5327144 7.65553457,45.6677408 8.42564447,43.9158806 L10.389597,39.4482452 C10.9927528,38.0761751 12.0090573,36.9265344 13.2967867,36.1596406 L18.5248175,33.0461412 C18.663562,32.9733452 18.831562,32.9874975 18.9566423,33.0828488 C20.736146,34.4420036 22.8282628,35.1604115 25.0072701,35.1604115 C27.185927,35.1604115 29.278219,34.4420036 31.0577226,33.0828488 C31.1824526,32.9874975 31.3504526,32.9733452 31.4891971,33.0461412 L36.7175432,36.1596392 C38.0053495,36.9265323 39.021716,38.0762121 39.6248983,39.4483422 L41.5886055,43.9154198 Z" id="Combined-Shape" fill="#FFFFFF"></path>
            <mask id="mask-2" fill="white">
                <use xlink:href="#path-1"></use>
            </mask>
            <rect stroke="#DDE0E7" x="0.5" y="0.5" width="49" height="49" rx="4"></rect>
        </g>
    </g>
</svg>