<?xml version="1.0" encoding="UTF-8"?>
<svg width="208px" height="86px" viewBox="0 0 208 86" version="1.1" xmlns="http://www.w3.org/2000/svg" xmlns:xlink="http://www.w3.org/1999/xlink">
    <!-- Generator: Sketch 46.2 (44496) - http://www.bohemiancoding.com/sketch -->
    <title>Group 12</title>
    <desc>Created with Sketch.</desc>
    <defs></defs>
    <g id="dialogo-logo" stroke="none" stroke-width="1" fill="none" fill-rule="evenodd">
        <g id="Group-12">
            <g>
                <polygon id="Rectangle-6" fill="#6096FF" points="0 28.8304762 50 0 50 34.2361905 0 63.0666667"></polygon>
                <polygon id="Triangle" fill="#D9E5FC" points="0 68.8 29.6296296 51.6 29.6296296 86"></polygon>
                <polygon id="Triangle" fill="#BFD5FF" points="0 68.8 29.6296296 51.6 29.6296296 64.9777778"></polygon>
                <path d="M95.477,43.772 L104.591,43.772 C107.237013,43.8046668 109.172494,43.2656722 110.3975,42.155 C111.622506,41.0443278 112.235,39.4436771 112.235,37.353 C112.235,35.2623229 111.622506,33.6698388 110.3975,32.5755 C109.172494,31.4811612 107.237013,30.934 104.591,30.934 L95.477,30.934 L95.477,43.772 Z M90.822,27.014 L106.159,27.014 C109.687018,27.014 112.357491,27.9204909 114.1705,29.7335 C115.983509,31.5465091 116.89,34.086317 116.89,37.353 C116.89,40.619683 115.983509,43.1676575 114.1705,44.997 C112.357491,46.8263425 109.687018,47.7246668 106.159,47.692 L95.477,47.692 L95.477,62 L90.822,62 L90.822,27.014 Z M124.429875,27.014 L124.429875,62 L128.594875,62 L128.594875,27.014 L124.429875,27.014 Z M158.33175,62 L158.33175,36.667 L154.16675,36.667 L154.16675,50.975 C154.16675,52.1183391 154.011585,53.1718285 153.70125,54.1355 C153.390915,55.0991715 152.92542,55.9403297 152.30475,56.659 C151.68408,57.3776703 150.908255,57.932998 149.97725,58.325 C149.046245,58.717002 147.943756,58.913 146.66975,58.913 C145.069075,58.913 143.811421,58.4556712 142.89675,57.541 C141.982079,56.6263288 141.52475,55.3850078 141.52475,53.817 L141.52475,36.667 L137.35975,36.667 L137.35975,53.327 C137.35975,54.6990069 137.498582,55.9484944 137.77625,57.0755 C138.053918,58.2025056 138.535747,59.1743293 139.22175,59.991 C139.907753,60.8076708 140.806078,61.4364978 141.91675,61.8775 C143.027422,62.3185022 144.415742,62.539 146.08175,62.539 C147.943759,62.539 149.560743,62.1715037 150.93275,61.4365 C152.304757,60.7014963 153.431746,59.5500078 154.31375,57.982 L154.41175,57.982 L154.41175,62 L158.33175,62 Z M172.682625,36.667 L172.682625,29.072 L168.517625,29.072 L168.517625,36.667 L164.205625,36.667 L164.205625,40.342 L168.517625,40.342 L168.517625,56.463 C168.517625,57.6390059 168.631957,58.5863297 168.860625,59.305 C169.089293,60.0236703 169.440456,60.578998 169.914125,60.971 C170.387794,61.363002 171.008454,61.6324993 171.776125,61.7795 C172.543796,61.9265007 173.46662,62 174.544625,62 L177.729625,62 L177.729625,58.325 L175.818625,58.325 C175.165288,58.325 174.63446,58.3005002 174.226125,58.2515 C173.81779,58.2024998 173.499293,58.0963342 173.270625,57.933 C173.041957,57.7696659 172.886792,57.5410015 172.805125,57.247 C172.723458,56.9529985 172.682625,56.5610025 172.682625,56.071 L172.682625,40.342 L177.729625,40.342 L177.729625,36.667 L172.682625,36.667 Z M187.6705,49.358 C187.6705,50.893341 187.874665,52.2571607 188.283,53.4495 C188.691335,54.6418393 189.25483,55.6381627 189.9735,56.4385 C190.69217,57.2388373 191.533329,57.8513312 192.497,58.276 C193.460671,58.7006688 194.481495,58.913 195.5595,58.913 C196.637505,58.913 197.658329,58.7006688 198.622,58.276 C199.585671,57.8513312 200.42683,57.2388373 201.1455,56.4385 C201.86417,55.6381627 202.427665,54.6418393 202.836,53.4495 C203.244335,52.2571607 203.4485,50.893341 203.4485,49.358 C203.4485,47.822659 203.244335,46.4588393 202.836,45.2665 C202.427665,44.0741607 201.86417,43.0696708 201.1455,42.253 C200.42683,41.4363293 199.585671,40.8156688 198.622,40.391 C197.658329,39.9663312 196.637505,39.754 195.5595,39.754 C194.481495,39.754 193.460671,39.9663312 192.497,40.391 C191.533329,40.8156688 190.69217,41.4363293 189.9735,42.253 C189.25483,43.0696708 188.691335,44.0741607 188.283,45.2665 C187.874665,46.4588393 187.6705,47.822659 187.6705,49.358 Z M183.2605,49.358 C183.2605,47.4959907 183.521831,45.7565081 184.0445,44.1395 C184.567169,42.5224919 185.351161,41.1178393 186.3965,39.9255 C187.441839,38.7331607 188.732159,37.7940034 190.2675,37.108 C191.802841,36.4219966 193.566823,36.079 195.5595,36.079 C197.584843,36.079 199.356992,36.4219966 200.876,37.108 C202.395008,37.7940034 203.677161,38.7331607 204.7225,39.9255 C205.767839,41.1178393 206.551831,42.5224919 207.0745,44.1395 C207.597169,45.7565081 207.8585,47.4959907 207.8585,49.358 C207.8585,51.2200093 207.597169,52.9513253 207.0745,54.552 C206.551831,56.1526747 205.767839,57.5491607 204.7225,58.7415 C203.677161,59.9338393 202.395008,60.86483 200.876,61.5345 C199.356992,62.20417 197.584843,62.539 195.5595,62.539 C193.566823,62.539 191.802841,62.20417 190.2675,61.5345 C188.732159,60.86483 187.441839,59.9338393 186.3965,58.7415 C185.351161,57.5491607 184.567169,56.1526747 184.0445,54.552 C183.521831,52.9513253 183.2605,51.2200093 183.2605,49.358 Z" id="Pluto" fill="#0C1020"></path>
            </g>
        </g>
    </g>
</svg>
