<svg xmlns="http://www.w3.org/2000/svg" width="34" height="31" viewBox="0 0 34 31">
    <g fill="currentColor" fill-rule="nonzero">
        <path d="M34 20.877c0-.707-.579-1.28-1.294-1.28-.715 0-1.294.573-1.294 1.28v7.416H2.628v-7.416c0-.707-.579-1.28-1.295-1.28-.715 0-1.294.573-1.294 1.28v8.162c0 .095.036.178.055.267-.019.088-.055.172-.055.266 0 .707.579 1.28 1.294 1.28h31.373c.715 0 1.294-.573 1.294-1.28 0-.094-.034-.178-.054-.266.02-.09.054-.172.054-.266v-8.163z"/>
        <path d="M17.1.508c-.714 0-1.294.573-1.294 1.28V20.48l-5.634-5.573c-.505-.5-1.324-.5-1.829 0a1.27 1.27 0 0 0 0 1.81l7.844 7.757a1.3 1.3 0 0 0 1.83 0l7.843-7.757a1.27 1.27 0 0 0 0-1.81c-.506-.5-1.325-.5-1.83 0l-5.635 5.573V1.788c0-.707-.579-1.28-1.294-1.28z"/>
    </g>
</svg>
