<?xml version="1.0" encoding="UTF-8"?>
<svg width="24px" height="24px" viewBox="0 0 24 24" version="1.1" xmlns="http://www.w3.org/2000/svg" xmlns:xlink="http://www.w3.org/1999/xlink">
    <!-- Generator: Sketch 58 (84663) - https://sketch.com -->
    <title>Icon/email</title>
    <desc>Created with Sketch.</desc>
    <g id="Icon/email" stroke="none" stroke-width="1" fill="none" fill-rule="evenodd">
        <g id="Group" transform="translate(2.000000, 5.000000)" fill="#000000">
            <path d="M1.58654356,0 L18.4141785,0 C18.6903208,-4.58342164e-15 18.9141785,0.223857625 18.9141785,0.5 C18.9141785,0.663133838 18.8345953,0.816009968 18.7009631,0.909578527 L11.1495981,6.19700296 C10.4610207,6.67914109 9.54445186,6.67926071 8.85574863,6.19730235 L1.29986584,0.909653373 C1.07362053,0.751325641 1.01856245,0.439567592 1.17689018,0.213322282 C1.27045029,0.0796278486 1.42336361,4.7406488e-16 1.58654356,0 Z" id="Rectangle"></path>
            <path d="M0.786731172,2.55071182 L8.85307531,8.19715272 C9.54171561,8.67920093 10.4582844,8.67920093 11.1469247,8.19715272 L19.2132688,2.55071182 C19.4394935,2.39235457 19.7512587,2.44737196 19.909616,2.67359661 C19.9684452,2.75763838 20,2.85774173 20,2.96032778 L20,13 C20,14.1045695 19.1045695,15 18,15 L2,15 C0.8954305,15 1.3527075e-16,14.1045695 0,13 L0,2.96032778 C-1.4483999e-16,2.68418541 0.223857625,2.46032778 0.5,2.46032778 C0.602586052,2.46032778 0.702689404,2.49188258 0.786731172,2.55071182 Z" id="Rectangle"></path>
        </g>
    </g>
</svg>