<?xml version="1.0" encoding="UTF-8"?>
<svg width="24px" height="24px" viewBox="0 0 24 24" version="1.1" xmlns="http://www.w3.org/2000/svg" xmlns:xlink="http://www.w3.org/1999/xlink">
    <!-- Generator: Sketch 58 (84663) - https://sketch.com -->
    <title>Icon/error</title>
    <desc>Created with Sketch.</desc>
    <g id="Icon/error" stroke="none" stroke-width="1" fill="none" fill-rule="evenodd">
        <path d="M12,2 C17.52,2 22,6.48 22,12 C22,17.52 17.52,22 12,22 C6.48,22 2,17.52 2,12 C2,6.48 6.48,2 12,2 Z M12,6 C11.175,6 10.5,6.72 10.5,7.6 L10.5,7.6 L10.5,12.4 C10.5,13.28 11.175,14 12,14 C12.825,14 13.5,13.28 13.5,12.4 L13.5,12.4 L13.5,7.6 C13.5,6.72 12.825,6 12,6 Z M12,18.5 C12.8284271,18.5 13.5,17.8284271 13.5,17 C13.5,16.1715729 12.8284271,15.5 12,15.5 C11.1715729,15.5 10.5,16.1715729 10.5,17 C10.5,17.8284271 11.1715729,18.5 12,18.5 Z" id="Combined-Shape" fill="#000000" fill-rule="nonzero"></path>
    </g>
</svg>