<svg xmlns="http://www.w3.org/2000/svg" width="1543" height="494" viewBox="0 0 1543 494">
    <g fill="none" fill-rule="evenodd">
        <path fill="#DDE3F0" fill-opacity=".716" d="M238 138c-38.108 0-69-30.892-69-69 0-38.108 30.892-69 69-69 38.108 0 69 30.892 69 69 0 38.108-30.892 69-69 69zm0-29.41c21.865 0 39.59-17.725 39.59-39.59 0-21.865-17.725-39.59-39.59-39.59-21.865 0-39.59 17.725-39.59 39.59 0 21.865 17.725 39.59 39.59 39.59z" opacity=".3"/>
        <path fill="#A7C4FF" d="M449 209c-16.569 0-30-13.431-30-30 0-16.569 13.431-30 30-30 16.569 0 30 13.431 30 30 0 16.569-13.431 30-30 30zm.375-15.75c7.663 0 13.875-6.212 13.875-13.875s-6.212-13.875-13.875-13.875-13.875 6.212-13.875 13.875 6.212 13.875 13.875 13.875z" opacity=".3"/>
        <path fill="#6096FF" d="M1529.5 279c-7.456 0-13.5-6.044-13.5-13.5s6.044-13.5 13.5-13.5 13.5 6.044 13.5 13.5-6.044 13.5-13.5 13.5zm-.375-9a4.875 4.875 0 1 0 0-9.75 4.875 4.875 0 0 0 0 9.75z" opacity=".722"/>
        <path fill="#BBC2D0" d="M1189.5 149c-12.979 0-23.5-10.521-23.5-23.5s10.521-23.5 23.5-23.5 23.5 10.521 23.5 23.5-10.521 23.5-23.5 23.5zm0-9.855c7.536 0 13.645-6.109 13.645-13.645s-6.109-13.645-13.645-13.645-13.645 6.109-13.645 13.645 6.109 13.645 13.645 13.645z" opacity=".3"/>
        <path fill="#DAE4F8" fill-opacity=".798" d="M1446.5 494c-48.325 0-87.5-39.175-87.5-87.5s39.175-87.5 87.5-87.5 87.5 39.175 87.5 87.5-39.175 87.5-87.5 87.5zm-1.131-38.47c27.703 0 50.161-22.458 50.161-50.161 0-27.704-22.458-50.162-50.161-50.162-27.704 0-50.162 22.458-50.162 50.162 0 27.703 22.458 50.161 50.162 50.161z" opacity=".3"/>
        <path fill="#6096FF" d="M26.5 395C11.864 395 0 383.136 0 368.5S11.864 342 26.5 342 53 353.864 53 368.5 41.136 395 26.5 395zm-.746-11.944c8.451 0 15.302-6.851 15.302-15.302 0-8.452-6.851-15.303-15.302-15.303-8.452 0-15.303 6.851-15.303 15.303 0 8.451 6.851 15.302 15.303 15.302z" opacity=".3"/>
    </g>
</svg>
