<?xml version="1.0" encoding="UTF-8"?>
<svg width="24px" height="24px" viewBox="0 0 24 24" version="1.1" xmlns="http://www.w3.org/2000/svg" xmlns:xlink="http://www.w3.org/1999/xlink">
    <!-- Generator: Sketch 58 (84663) - https://sketch.com -->
    <title>Icon/error</title>
    <desc>Created with Sketch.</desc>
    <g id="Icon/error" stroke="none" stroke-width="1" fill="none" fill-rule="evenodd">
        <path d="M12,4.5 C16.14,4.5 19.5,7.86 19.5,12 C19.5,16.14 16.14,19.5 12,19.5 C7.86,19.5 4.5,16.14 4.5,12 C4.5,7.86 7.86,4.5 12,4.5 Z M12,7.75 C11.45,7.75 11,8.2 11,8.75 L11,8.75 L11,11.75 C11,12.3 11.45,12.75 12,12.75 C12.55,12.75 13,12.3 13,11.75 L13,11.75 L13,8.75 C13,8.2 12.55,7.75 12,7.75 Z M12,16.25 C12.5522847,16.25 13,15.8022847 13,15.25 C13,14.6977153 12.5522847,14.25 12,14.25 C11.4477153,14.25 11,14.6977153 11,15.25 C11,15.8022847 11.4477153,16.25 12,16.25 Z" id="Combined-Shape" fill="currentColor" fill-rule="nonzero"></path>
    </g>
</svg>