<?xml version="1.0" encoding="UTF-8"?>
<svg width="24px" height="24px" viewBox="0 0 24 24" version="1.1" xmlns="http://www.w3.org/2000/svg" xmlns:xlink="http://www.w3.org/1999/xlink">
    <!-- Generator: Sketch 58 (84663) - https://sketch.com -->
    <title>error</title>
    <desc>Created with Sketch.</desc>
    <g id="error" stroke="none" stroke-width="1" fill="none" fill-rule="evenodd">
        <g id="skip-back-fill" fill="#6096FF" opacity="0">
            <rect id="Rectangle" x="0" y="0" width="24" height="24"></rect>
        </g>
        <g id="Icons-/-Action-/-Error-/-Fill-">
            <g>
                <rect id="Rectangle" x="0" y="0" width="24" height="24"></rect>
                <path d="M12,2 C6.48,2 2,6.48 2,12 C2,17.52 6.48,22 12,22 C17.52,22 22,17.52 22,12 C22,6.48 17.52,2 12,2 Z M12,13 C11.45,13 11,12.55 11,12 L11,8 C11,7.45 11.45,7 12,7 C12.55,7 13,7.45 13,8 L13,12 C13,12.55 12.55,13 12,13 Z M13,17 L11,17 L11,15 L13,15 L13,17 Z" id="Mask" fill="currentColor" fill-rule="nonzero"></path>
            </g>
        </g>
    </g>
</svg>