<?xml version="1.0" encoding="UTF-8"?>
<svg width="36px" height="36px" viewBox="0 0 36 36" version="1.1" xmlns="http://www.w3.org/2000/svg" xmlns:xlink="http://www.w3.org/1999/xlink">
    <!-- Generator: sketchtool 46.2 (44496) - http://www.bohemiancoding.com/sketch -->
    <title>C84A0E52-206D-4F45-8F30-1EDCD1A2A199</title>
    <desc>Created with sketchtool.</desc>
    <defs></defs>
    <g id="Symbols" stroke="none" stroke-width="1" fill="none" fill-rule="evenodd">
        <g id="articleShowSideComponent" transform="translate(-167.000000, -42.000000)" fill-rule="nonzero" fill="#8EB5FF">
            <g id="add-description-button">
                <g>
                    <g id="Group" transform="translate(167.000000, 33.000000)">
                        <g id="foreign" transform="translate(0.000000, 9.000000)">
                            <path d="M33.8656702,0 L20.9644427,0 C20.0738116,0 19.3517719,0.722039673 19.3517719,1.61267076 C19.3517719,2.50330185 20.0738116,3.22534152 20.9644427,3.22534152 L29.9724073,3.22534152 L13.3736022,19.8242159 C12.7437924,20.4540258 12.7437924,21.4749982 13.3736022,22.104808 C13.6884032,22.4196783 14.1011161,22.5771135 14.513829,22.5771135 C14.9265418,22.5771135 15.339324,22.4197476 15.6541943,22.1047388 L32.2530687,5.50593362 L32.2530687,14.5138982 C32.2530687,15.4045293 32.9751084,16.126569 33.8657395,16.126569 C34.7563706,16.126569 35.4784102,15.4045293 35.4784102,14.5138982 L35.4784102,1.61267076 C35.478341,0.722039673 34.7563013,0 33.8656702,0 Z" id="Shape"></path>
                            <path d="M27.4150564,16.1264997 C26.5244254,16.1264997 25.8023857,16.8485394 25.8023857,17.7391705 L25.8023857,32.2530687 L3.22527223,32.2530687 L3.22527223,9.67588597 L17.7391705,9.67588597 C18.6298016,9.67588597 19.3518412,8.9538463 19.3518412,8.06321521 C19.3518412,7.17258412 18.6298016,6.45061374 17.7391705,6.45061374 L1.61267076,6.45061374 C0.722039673,6.45061374 0,7.17265342 0,8.0632845 L0,33.8657395 C0,34.7563013 0.722039673,35.478341 1.61267076,35.478341 L27.4151257,35.478341 C28.3057568,35.478341 29.0277965,34.7563013 29.0277965,33.8656702 L29.0277965,17.7391705 C29.0277272,16.8485394 28.3056875,16.1264997 27.4150564,16.1264997 Z" id="Shape"></path>
                        </g>
                    </g>
                </g>
            </g>
        </g>
    </g>
</svg>