<?xml version="1.0" encoding="UTF-8"?>
<svg width="24px" height="24px" viewBox="0 0 24 24" version="1.1" xmlns="http://www.w3.org/2000/svg" xmlns:xlink="http://www.w3.org/1999/xlink">
    <!-- Generator: Sketch 58 (84663) - https://sketch.com -->
    <title>Icon/external-source</title>
    <desc>Created with Sketch.</desc>
    <g id="Icon/external-source" stroke="none" stroke-width="1" fill="none" fill-rule="evenodd">
        <g id="external-source" transform="translate(4.000000, 3.000000)" fill="currentColor">
            <path d="M4.09047073,6.63113896 C4.38437778,6.31894101 4.7093808,6.0621502 5.05645193,5.85970102 C6.98741122,4.72918216 9.46305151,5.33013657 10.7038809,7.32905588 L9.20224662,8.92307682 C8.76868035,7.87028308 7.69452067,7.29040433 6.63833391,7.53896372 C6.23709561,7.6348607 5.85591923,7.84689958 5.54495955,8.1772114 L2.66707787,11.2352596 C1.79317244,12.1656627 1.79317244,13.671906 2.66707787,14.6023092 C3.542971,15.5306009 4.96096728,15.5306009 5.83686041,14.6023092 L6.72460014,13.6603877 C7.52730587,13.9977229 8.39158987,14.1372552 9.2524014,14.0684826 L7.29335542,16.1494471 C5.60680267,17.8860721 2.92043866,17.8638768 1.25952113,16.0995943 C-0.40139641,14.3353119 -0.422291355,11.4817657 1.21258905,9.69025267 L4.09147382,6.63220448 L4.09047073,6.63113896 Z M8.66258111,1.77555512 L6.70353513,3.85651962 C7.56427037,3.78740893 8.42855174,3.92657649 9.23133639,4.26354903 L10.118073,3.32162757 C10.9939662,2.39333584 12.4119624,2.39333584 13.2878556,3.32162757 C14.161761,4.2520307 14.161761,5.75827402 13.2878556,6.68867715 L10.4089708,9.74672534 C9.53262221,10.6738465 8.11553683,10.6738465 7.23918825,9.74672534 C7.03609118,9.53122471 6.87128181,9.27855206 6.75268682,9.00085992 L5.24904631,10.5938153 C5.40753543,10.8484751 5.57003694,11.0679726 5.78068705,11.2917323 C7.46178978,13.0703935 10.1803507,13.0703935 11.8614534,11.2917323 L14.7403382,8.23368407 C16.4194955,6.45061524 16.4199446,3.55921242 14.7413413,1.77555512 C13.062738,-0.00810217861 10.3407353,-0.00857922907 8.66157801,1.7744896 L8.66258111,1.77555512 Z" id="Shape"></path>
        </g>
    </g>
</svg>