<svg xmlns="http://www.w3.org/2000/svg" width="31" height="31" viewBox="0 0 31 31">
    <g fill="currentColor" fill-rule="nonzero">
        <path d="M29.571 0H18.143a1.429 1.429 0 0 0 0 2.857h7.98L11.418 17.561a1.428 1.428 0 1 0 2.02 2.02L28.144 4.878v7.98a1.429 1.429 0 0 0 2.857 0V1.43C31 .639 30.36 0 29.571 0z"/>
        <path d="M22.667 14.333c-.737 0-1.334.622-1.334 1.39v12.5H2.667V8.777h12c.736 0 1.333-.622 1.333-1.39C16 6.623 15.403 6 14.667 6H1.333C.597 6 0 6.622 0 7.389V29.61C0 30.378.597 31 1.333 31h21.334c.736 0 1.333-.622 1.333-1.389V15.722c0-.767-.597-1.389-1.333-1.389z"/>
    </g>
</svg>
