<?xml version="1.0" encoding="UTF-8"?>
<svg width="24px" height="24px" viewBox="0 0 24 24" version="1.1" xmlns="http://www.w3.org/2000/svg" xmlns:xlink="http://www.w3.org/1999/xlink">

    <defs>
        <path d="M12,3 C7.02943359,3 3,7.05405883 3,12.0550021 C3,16.5746153 6.29116992,20.320698 10.59375,21 L10.59375,14.6724636 L8.30859375,14.6724636 L8.30859375,12.0550021 L10.59375,12.0550021 L10.59375,10.0600719 C10.59375,7.79066203 11.9373867,6.53711018 13.9931836,6.53711018 C14.9778574,6.53711018 16.0078125,6.71396569 16.0078125,6.71396569 L16.0078125,8.9423451 L14.8729336,8.9423451 C13.7549121,8.9423451 13.40625,9.64034074 13.40625,10.3564287 L13.40625,12.0550021 L15.9023438,12.0550021 L15.5033203,14.6724636 L13.40625,14.6724636 L13.40625,21 C17.7088301,20.320698 21,16.5746153 21,12.0550021 C21,7.05405883 16.9705664,3 12,3 Z" id="path-1"></path>
    </defs>
    <g id="Icons-/-Logo-/-Facebook" stroke="none" stroke-width="1" fill="none" fill-rule="evenodd">
        <g id="Group">
            <rect id="Rectangle" x="0" y="0" width="24" height="24"></rect>
            <mask id="mask-2" fill="white">
                <use xlink:href="#path-1"></use>
            </mask>
            <use id="Fill-1" fill="#FFFFFE" xlink:href="#path-1"></use>
            <rect id="Rectangle" fill="currentColor" fill-rule="nonzero" mask="url(#mask-2)" x="0" y="0" width="24" height="24"></rect>
        </g>
    </g>
</svg>
