<?xml version="1.0" encoding="UTF-8"?>
<svg width="24px" height="24px" viewBox="0 0 24 24" version="1.1" xmlns="http://www.w3.org/2000/svg" xmlns:xlink="http://www.w3.org/1999/xlink">
    <!-- Generator: Sketch 58 (84663) - https://sketch.com -->
    <title>Icon/feedback</title>
    <desc>Created with Sketch.</desc>
    <g id="Icon/feedback" stroke="none" stroke-width="1" fill="none" fill-rule="evenodd">
        <g id="Group" transform="translate(3.000000, 2.000192)" fill="currentColor" fill-rule="nonzero">
            <path d="M11.4363,0.263507808 L15.0363,3.86350781 C15.3876437,4.21495767 15.3876437,4.78465794 15.0363,5.13610781 L5.1363,15.0361078 C4.96755654,15.2049022 4.73867533,15.2998078 4.5,15.2998078 L0.9,15.2998078 C0.402943725,15.2998078 0,14.8968641 0,14.3998078 L0,10.7998078 C0,10.5611325 0.0949055627,10.3322513 0.2637,10.1635078 L10.1637,0.263507808 C10.5151499,-0.0878359361 11.0848501,-0.0878359361 11.4363,0.263507808 Z M10.8,2.17240781 L1.8,11.1724078 L1.8,13.4998078 L4.1274,13.4998078 L13.1274,4.49980781 L10.8,2.17240781 Z" id="Combined-Shape"></path>
            <path d="M0.9,18.9998078 C0.402943725,18.9998078 0,18.5520926 0,17.9998078 C0,17.4475231 0.402943725,16.9998078 0.9,16.9998078 L17.1,16.9998078 C17.5970563,16.9998078 18,17.4475231 18,17.9998078 C18,18.5520926 17.5970563,18.9998078 17.1,18.9998078 L0.9,18.9998078 Z" id="feedback-label-a-path"></path>
        </g>
    </g>
</svg>