<svg xmlns="http://www.w3.org/2000/svg" xmlns:xlink="http://www.w3.org/1999/xlink" width="24" height="24" viewBox="0 0 24 24">	
   <defs>	
       <path id="feedback-pencil-a" d="M14 3.414l-10 10V16h2.586l10-10L14 3.414zm.707-2.121l4 4a1 1 0 0 1 0 1.414l-11 11A1 1 0 0 1 7 18H3a1 1 0 0 1-1-1v-4a1 1 0 0 1 .293-.707l11-11a1 1 0 0 1 1.414 0zM3 23a1 1 0 0 1 0-2h18a1 1 0 0 1 0 2H3z"/>	
   </defs>	
   <g fill="none" fill-rule="evenodd">	
       <mask id="feedback-pencil-b" fill="#fff">	
           <use xlink:href="#feedback-pencil-a"/>	
       </mask>	
       <use fill="#fff" fill-rule="nonzero" xlink:href="#feedback-pencil-a"/>	
       <g fill="none" mask="url(#feedback-pencil-b)">	
           <path d="M0 0h24v24H0z"/>	
       </g>	
   </g>	
</svg>	