<svg xmlns="http://www.w3.org/2000/svg" width="60" height="59" viewBox="0 0 60 59">
    <g fill="none" fill-rule="evenodd">
        <path fill="#BBC2D0" d="M30.054.221C13.518.221.11 13.63.11 30.17c0 13.232 8.58 24.458 20.477 28.418 1.497.278 2.046-.65 2.046-1.44 0-.714-.027-3.074-.04-5.576-8.33 1.812-10.089-3.534-10.089-3.534-1.362-3.461-3.324-4.382-3.324-4.382-2.717-1.858.204-1.82.204-1.82 3.007.21 4.59 3.086 4.59 3.086 2.671 4.578 7.006 3.255 8.714 2.49.27-1.936 1.045-3.258 1.902-4.005-6.651-.757-13.643-3.325-13.643-14.8 0-3.27 1.17-5.942 3.085-8.04-.31-.754-1.336-3.8.29-7.925 0 0 2.515-.805 8.237 3.07 2.389-.664 4.95-.997 7.495-1.008 2.545.011 5.108.344 7.502 1.008 5.715-3.875 8.226-3.07 8.226-3.07 1.63 4.125.604 7.17.294 7.925 1.92 2.098 3.081 4.77 3.081 8.04 0 11.502-7.005 14.035-13.673 14.776 1.074.93 2.031 2.752 2.031 5.546 0 4.007-.034 7.232-.034 8.219 0 .797.539 1.73 2.057 1.436 11.89-3.964 20.46-15.186 20.46-28.414C59.998 13.63 46.591.221 30.054.221"/>
        <path fill="#FFFFFE" d="M11.451 43.22c-.066.15-.3.194-.513.092-.217-.098-.34-.301-.269-.45.065-.153.3-.196.516-.094.217.098.341.303.266.452M12.664 44.573c-.143.133-.422.071-.611-.138-.196-.209-.233-.488-.088-.623.147-.132.418-.07.614.139.196.211.234.488.085.622M13.845 46.298c-.184.128-.484.008-.67-.258-.183-.267-.183-.586.005-.714.186-.128.481-.013.67.252.182.27.182.59-.005.72M15.462 47.964c-.164.181-.514.133-.77-.114-.261-.242-.334-.584-.17-.765.167-.182.518-.13.776.114.26.241.34.586.164.765M17.694 48.932c-.073.235-.41.341-.749.242-.338-.103-.56-.378-.492-.615.07-.236.409-.347.75-.24.339.102.561.374.49.613M20.144 49.112c.009.247-.279.451-.635.455-.358.009-.648-.191-.652-.434 0-.25.282-.452.64-.458.356-.007.647.191.647.437M22.425 48.723c.042.241-.205.489-.559.554-.347.064-.67-.085-.713-.324-.043-.247.208-.494.556-.558.354-.062.67.083.716.328"/>
    </g>
</svg>
