<?xml version="1.0" encoding="UTF-8"?>
<svg width="24px" height="24px" viewBox="0 0 24 24" version="1.1" xmlns="http://www.w3.org/2000/svg" xmlns:xlink="http://www.w3.org/1999/xlink">
    <!-- Generator: Sketch 57.1 (83088) - https://sketch.com -->
    <title>Icons / Logo / Google</title>
    <desc>Created with Sketch.</desc>
    <defs>
        <path d="M12.2040816,5.95124444 C14.1201104,5.95124444 15.412693,6.78014798 16.1496271,7.47276783 L19.0294675,4.65689328 C17.2607273,3.01048412 14.9591345,2 12.2040816,2 C8.21314101,2 4.76645083,4.29353561 3.08840262,7.63174909 C2.39676535,9.01689053 2,10.5724112 2,12.2188203 C2,13.8652295 2.39676535,15.4207501 3.08840262,16.8058915 L6.39910389,14.2398868 L3.09970228,16.8058915 C4.77775048,20.144105 8.21314101,22.4376406 12.2040816,22.4376406 C14.9591345,22.4376406 17.272027,21.5293447 18.9613748,19.9624262 C20.8888015,18.1798316 22,15.5569355 22,12.4458943 C22,11.6056911 21.9319073,10.9925619 21.7845205,10.3567351 L12.2040816,10.3567351 L12.2040816,14.1489983 L17.8276753,14.1489983 C17.7142857,15.0914879 17.1020408,16.5107248 15.7414638,17.4645142 C14.8797422,18.0662455 13.7233451,18.4863962 12.2040816,18.4863962 C9.50562526,18.4863962 7.21543042,16.7037033 6.39910389,14.2398868 C6.18362434,13.60406 6.05893508,12.9227398 6.05893508,12.2188203 C6.05893508,11.5149008 6.18362434,10.8335806 6.38770597,10.1977538 C7.21543042,7.73393729 9.50562526,5.95124444 12.2040816,5.95124444 Z" id="path-1"></path>
    </defs>
    <g id="Icons-/-Logo-/-Google" stroke="none" stroke-width="1" fill="none" fill-rule="evenodd">
        <g id="Group">
            <rect id="Rectangle" x="0" y="0" width="24" height="24"></rect>
            <mask id="mask-2" fill="white">
                <use xlink:href="#path-1"></use>
            </mask>
            <use id="Path" fill="currentColor" xlink:href="#path-1"></use>
        </g>
    </g>
</svg>