<svg xmlns="http://www.w3.org/2000/svg" width="28" height="27" viewBox="0 0 28 27">
    <path fill="#FFFFFE" fill-rule="evenodd" d="M13.298 1.85c.225.134.477.33.758.59.27.271.534.605.792.998.248.372.467.81.659 1.319.158.506.236 1.098.236 1.775-.02 1.24-.304 2.231-.849 2.975-.266.36-.548.693-.847.998-.332.303-.683.614-1.055.929-.214.214-.41.457-.592.728-.213.281-.32.607-.32.98 0 .362.109.66.328.896.185.226.366.423.542.592l1.215.963a12.044 12.044 0 0 1 1.985 1.977c.536.734.815 1.691.839 2.874 0 1.68-.767 3.166-2.3 4.464-1.587 1.341-3.88 2.034-6.877 2.08-2.508-.023-4.38-.541-5.617-1.552C.948 24.49.323 23.36.323 22.044c0-.64.202-1.357.61-2.144.393-.786 1.106-1.478 2.14-2.075a11.41 11.41 0 0 1 3.653-1.282c1.265-.18 2.314-.281 3.15-.303a7.36 7.36 0 0 1-.69-1.054c-.237-.363-.354-.8-.354-1.308 0-.306.045-.563.134-.766l.22-.595c-.407.045-.792.068-1.15.068-1.908-.023-3.36-.604-4.36-1.741-1.047-1.061-1.57-2.295-1.57-3.702 0-1.703.74-3.246 2.224-4.633C5.347 1.699 6.405 1.17 7.502.92A15.831 15.831 0 0 1 10.556.6h7.16l-2.211 1.25h-2.207zm1.382 19.948c0-.88-.296-1.645-.888-2.298-.628-.62-1.608-1.381-2.942-2.284a8.314 8.314 0 0 0-.804-.033c-.182-.022-.65 0-1.403.067-.74.102-1.499.265-2.274.49-.183.068-.439.17-.769.305a4.745 4.745 0 0 0-1.01.626c-.33.281-.61.631-.837 1.048-.263.44-.393.97-.393 1.59 0 1.217.569 2.22 1.709 3.01 1.084.788 2.565 1.194 4.446 1.217 1.688-.023 2.977-.384 3.865-1.083.867-.688 1.3-1.572 1.3-2.655zM9.688 11.64c-.746 0-1.409-.22-1.99-.662a5.404 5.404 0 0 1-1.42-1.608C5.52 8.014 5.142 6.71 5.142 5.457a4.162 4.162 0 0 1 .777-2.574c.644-.735 1.45-1.113 2.421-1.136a3.517 3.517 0 0 1 1.947.626c.552.418.998.961 1.337 1.626.722 1.389 1.083 2.767 1.083 4.133 0 .317-.026.705-.078 1.169a3.508 3.508 0 0 1-.585 1.355c-.628.621-1.413.95-2.356.984zm17.729-7.256v1.763H23.66v3.635h-1.82V6.147h-3.757V4.384h3.757V.748h1.82v3.636h3.757z"/>
</svg>
