<?xml version="1.0" encoding="UTF-8"?>
<svg width="24px" height="24px" viewBox="0 0 24 24" version="1.1" xmlns="http://www.w3.org/2000/svg" xmlns:xlink="http://www.w3.org/1999/xlink">
    <!-- Generator: Sketch 58 (84663) - https://sketch.com -->
    <title>Icon/google</title>
    <desc>Created with Sketch.</desc>
    <g id="Icon/google" stroke="none" stroke-width="1" fill="none" fill-rule="evenodd">
        <path d="M12.2040816,5.86663463 C14.1201104,5.86663463 15.412693,6.67778847 16.1496271,7.35557693 L19.0294675,4.6 C17.2607273,2.98884616 14.9591345,2 12.2040816,2 C8.21314101,2 4.76645083,4.24442308 3.08840262,7.51115386 C2.39676535,8.86663463 2,10.3888462 2,12 C2,13.6111539 2.39676535,15.1333654 3.08840262,16.4888461 L6.39910389,13.9777885 L3.09970228,16.4888461 C4.77775048,19.7555769 8.21314101,22 12.2040816,22 C14.9591345,22 17.272027,21.1111539 18.9613748,19.5777885 C20.8888015,17.8333654 22,15.2666346 22,12.2222116 C22,11.4 21.9319073,10.8 21.7845205,10.1777885 L12.2040816,10.1777885 L12.2040816,13.8888462 L17.8276753,13.8888462 C17.7142857,14.8111538 17.1020408,16.2 15.7414638,17.1333654 C14.8797422,17.7222116 13.7233451,18.1333654 12.2040816,18.1333654 C9.50562526,18.1333654 7.21543042,16.3888461 6.39910389,13.9777885 C6.18362434,13.3555769 6.05893508,12.6888461 6.05893508,12 C6.05893508,11.3111539 6.18362434,10.6444231 6.38770597,10.0222115 C7.21543042,7.61115385 9.50562526,5.86663463 12.2040816,5.86663463 Z" id="path-1" fill="#000000" fill-rule="nonzero"></path>
    </g>
</svg>