<?xml version="1.0" encoding="UTF-8"?>
<svg width="24px" height="24px" viewBox="0 0 24 24" version="1.1" xmlns="http://www.w3.org/2000/svg" xmlns:xlink="http://www.w3.org/1999/xlink">

    <defs>
        <path d="M12.1632653,7.16099555 C13.6960884,7.16099555 14.7301544,7.82411838 15.3197017,8.37821426 L17.623574,6.12551463 C16.2085818,4.80838729 14.3673076,4 12.1632653,4 C8.97051281,4 6.21316066,5.83482849 4.8707221,8.50539927 C4.31741228,9.61351242 4,10.8579289 4,12.1750563 C4,13.4921836 4.31741228,14.7366001 4.8707221,15.8447132 L7.51928311,13.7919094 L4.87976182,15.8447132 C6.22220039,18.515284 8.97051281,20.3501125 12.1632653,20.3501125 C14.3673076,20.3501125 16.2176216,19.6234758 17.5690999,18.3699409 C19.1110412,16.9438653 20,14.8455484 20,12.3567154 C20,11.6845529 19.9455258,11.1940495 19.8276164,10.6853881 L12.1632653,10.6853881 L12.1632653,13.7191986 L16.6621403,13.7191986 C16.5714286,14.4731903 16.0816327,15.6085799 14.9931711,16.3716113 C14.3037937,16.8529964 13.3786761,17.189117 12.1632653,17.189117 C10.0045002,17.189117 8.17234433,15.7629627 7.51928311,13.7919094 C7.34689947,13.283248 7.24714806,12.7381919 7.24714806,12.1750563 C7.24714806,11.6119206 7.34689947,11.0668645 7.51016478,10.5582031 C8.17234433,8.58714983 10.0045002,7.16099555 12.1632653,7.16099555 Z" id="path-1"></path>
    </defs>
    <g id="Icons-/-Logo-/-Google" stroke="none" stroke-width="1" fill="none" fill-rule="evenodd">
        <g id="Group">
            <rect id="Rectangle" x="0" y="0" width="24" height="24"></rect>
            <mask id="mask-2" fill="white">
                <use xlink:href="#path-1"></use>
            </mask>
            <g id="Path"></g>
            <rect id="Rectangle" fill="currentColor" fill-rule="nonzero" mask="url(#mask-2)" x="0" y="0" width="24" height="24"></rect>
        </g>
    </g>
</svg>
