<svg xmlns="http://www.w3.org/2000/svg" xmlns:xlink="http://www.w3.org/1999/xlink" width="214" height="80" viewBox="0 0 214 80">
    <defs>
        <path id="b" d="M115.577 64.485H208a2 2 0 0 0 2-2V2a2 2 0 0 0-2-2H2a2 2 0 0 0-2 2v60.485a2 2 0 0 0 2 2h92.423L105 76l10.577-11.515z"/>
        <filter id="a" width="103.8%" height="110.5%" x="-1.9%" y="-2.6%" filterUnits="objectBoundingBox">
            <feOffset dy="2" in="SourceAlpha" result="shadowOffsetOuter1"/>
            <feGaussianBlur in="shadowOffsetOuter1" result="shadowBlurOuter1" stdDeviation="1"/>
            <feComposite in="shadowBlurOuter1" in2="SourceAlpha" operator="out" result="shadowBlurOuter1"/>
            <feColorMatrix in="shadowBlurOuter1" values="0 0 0 0 0.28836176 0 0 0 0 0.304751802 0 0 0 0 0.337531888 0 0 0 0.147616621 0"/>
        </filter>
    </defs>
    <g fill="none" fill-rule="evenodd" transform="translate(2)">
        <use fill="#000" filter="url(#a)" xlink:href="#b"/>
        <use fill="#FFF" xlink:href="#b"/>
        <path stroke="#D8DDE7" stroke-width="2" d="M105 74.522l10.138-11.037H208a1 1 0 0 0 1-1V2a1 1 0 0 0-1-1H2a1 1 0 0 0-1 1v60.485a1 1 0 0 0 1 1h92.862L105 74.522z"/>
    </g>
</svg>
