<svg xmlns="http://www.w3.org/2000/svg" width="235" height="43" viewBox="0 0 235 43">
    <g fill="none" fill-rule="evenodd">
        <path fill="#6096FF" d="M0 0l37 14.203V43L0 28.797z"/>
        <path fill="#3643A0" d="M37 0L0 14.203V43l37-14.203z"/>
        <path fill="#34495E" d="M80.808 9.6c5.536 0 8.736 2.752 8.736 7.52 0 4.928-3.2 7.776-8.736 7.776h-5.856V32h-2.56V9.6h8.416zm-.096 12.928c4.032 0 6.368-1.824 6.368-5.344 0-3.424-2.336-5.216-6.368-5.216h-5.76v10.56h5.76zM95.742 9.6V32h12.385v-2.368h-9.824V9.6h-2.56zm20.536 13.184V9.6h-2.56v13.184c0 5.856 3.552 9.312 9.44 9.312 5.856 0 9.376-3.456 9.376-9.312V9.6h-2.56v13.184c0 4.416-2.56 6.976-6.816 6.976s-6.88-2.56-6.88-6.976zM137.708 9.6v2.368h7.297V32h2.56V11.968h7.328V9.6h-17.184zm31.031-.064c6.528 0 11.712 4.96 11.712 11.264 0 6.304-5.184 11.296-11.712 11.296-6.56 0-11.744-4.992-11.744-11.296 0-6.304 5.184-11.264 11.744-11.264zm0 2.368c-4.992 0-9.152 3.936-9.152 8.896 0 4.96 4.16 8.96 9.152 8.96 4.992 0 9.088-4 9.088-8.96 0-4.96-4.096-8.896-9.088-8.896z"/>
        <path fill="#3E7FFF" d="M199.038 11.352c2.718 0 4.572 1.98 4.572 4.896 0 2.862-1.8 4.824-4.536 4.824-1.53 0-2.682-.612-3.384-1.728V21h-2.07V7.644h2.07v5.436c.702-1.116 1.854-1.728 3.348-1.728zm-.432 7.956c1.71 0 2.916-1.296 2.916-3.132 0-1.782-1.206-3.096-2.916-3.096s-2.916 1.296-2.916 3.096c0 1.854 1.206 3.132 2.916 3.132zm12.083.108c1.062 0 2.034-.486 2.808-1.404l1.206 1.116c-1.08 1.314-2.484 1.944-4.14 1.944-2.952 0-4.986-1.962-4.986-4.86 0-2.808 1.854-4.824 4.806-4.86 2.61-.036 4.356 1.566 4.518 4.176l-6.966 2.088c.468 1.116 1.458 1.8 2.754 1.8zm-.18-6.39c-1.746 0-2.862 1.08-2.862 3.078v.018l5.256-1.566c-.45-1.08-1.26-1.53-2.394-1.53zm11.4 5.778c-.559.27-1.027.414-1.405.414-.684 0-1.062-.486-1.062-1.62v-4.266h2.826v-1.548h-2.826V9.156h-2.052v8.802c0 2.088 1.224 3.132 2.736 3.132.738 0 1.548-.252 2.304-.702l-.522-1.584zm10.066-7.38h2.052V21h-2.052v-1.62c-.702 1.098-1.836 1.71-3.348 1.71-2.754 0-4.59-1.998-4.59-4.914 0-2.862 1.818-4.824 4.518-4.842 1.548-.018 2.718.594 3.42 1.71v-1.62zm-2.916 7.938c1.62 0 2.754-1.134 2.916-2.772v-.702c-.162-1.656-1.296-2.79-2.916-2.79-1.728 0-2.934 1.314-2.952 3.15.018 1.818 1.206 3.114 2.952 3.114z"/>
    </g>
</svg>
