<svg xmlns="http://www.w3.org/2000/svg" width="160" height="55" viewBox="0 0 160 55">
    <g fill="none" fill-rule="evenodd">
        <path fill="#0C1020" d="M14.32.98c8.632 0 13.585 4.268 13.585 11.722 0 7.749-4.953 12.26-13.585 12.26H6.425V35.31H.638V.98H14.32zm-.245 18.784c5.297 0 8.288-2.256 8.288-6.915 0-4.512-2.991-6.67-8.288-6.67h-7.65v13.585h7.65zM33.643.981v34.33H54.29v-5.248H39.43V.98h-5.787zm31.289 20.107V.981h-5.787v20.107c0 8.975 5.689 14.468 14.958 14.468S89.01 30.063 89.01 21.088V.981h-5.787v20.107c0 5.836-3.481 9.27-9.072 9.27-5.64 0-9.22-3.483-9.22-9.27zM93.229.981v5.198h10.838V35.31h5.787V6.18h10.888V.98H93.229zm47.816-.147c10.25 0 18.195 7.503 18.195 17.312 0 9.808-7.945 17.41-18.195 17.41s-18.194-7.602-18.194-17.41c0-9.858 7.944-17.312 18.194-17.312zm.05 5.198c-6.769 0-12.36 5.297-12.36 12.114 0 6.816 5.64 12.211 12.36 12.211a12.181 12.181 0 0 0 12.21-12.211c0-6.817-5.492-12.114-12.21-12.114z"/>
        <path fill="#6096FF" d="M.918 50.49h157.896v3.672H.918z"/>
    </g>
</svg>
