<?xml version="1.0" encoding="UTF-8"?>
<svg width="24px" height="24px" viewBox="0 0 24 24" version="1.1" xmlns="http://www.w3.org/2000/svg" xmlns:xlink="http://www.w3.org/1999/xlink">
    <!-- Generator: Sketch 58 (84663) - https://sketch.com -->
    <title>Icon/history</title>
    <desc>Created with Sketch.</desc>
    <g id="Icon/history" stroke="none" stroke-width="1" fill="none" fill-rule="evenodd">
        <g id="history" transform="translate(1.473684, 3.000000)" fill="currentColor" fill-rule="nonzero">
            <path d="M10.5013158,0 C7.17631579,0 4.23131579,1.799988 2.71131579,4.54736968 L0.526315789,2.36842421 L0.526315789,8.52630316 L6.70131579,8.52630316 L4.04131579,5.87372084 C5.27631579,3.50529663 7.65131579,1.89478737 10.5013158,1.89478737 C14.3963158,1.89478737 17.6263158,5.11580589 17.6263158,9.00006 C17.6263158,12.8841941 14.3963158,16.1053326 10.5013158,16.1053326 C7.36631579,16.1053326 4.80131579,14.1158659 3.75631579,11.3684842 L1.76131579,11.3684842 C2.80631579,15.1579389 6.32131579,18 10.5013158,18 C15.5363158,18 19.5263158,13.9263872 19.5263158,9.00006 C19.5263158,4.07373284 15.4413158,0 10.5013158,0 L10.5013158,0 Z M9.07631579,4.73684842 L9.07631579,9.56837621 L13.5413158,12.2209585 L14.3013158,10.9894067 L10.5013158,8.71578189 L10.5013158,4.73684842 L9.07631579,4.73684842 L9.07631579,4.73684842 Z" id="Shape"></path>
        </g>
    </g>
</svg>