<?xml version="1.0" encoding="UTF-8"?>
<svg width="24px" height="24px" viewBox="0 0 24 24" version="1.1" xmlns="http://www.w3.org/2000/svg" xmlns:xlink="http://www.w3.org/1999/xlink">
    <g id="Icons-/-Action-/-History" stroke="none" stroke-width="1" fill="none" fill-rule="evenodd">
        <g id="Icons-/-Navigation-/-Plus" transform="translate(0.000000, 0.000000)">
            <rect id="Rectangle" x="0" y="0" width="24" height="24"></rect>
            <g id="history" transform="translate(2.000000, 2.000000)" fill="currentColor" fill-rule="nonzero">
                <path d="M10.5,0.625 C7,0.625 3.9,2.5 2.3,5.361875 L0,3.092125 L0,9.506625 L6.5,9.506625 L3.7,6.7435 C5,4.276375 7.5,2.59875 10.5,2.59875 C14.6,2.59875 18,5.954 18,10.000125 C18,14.046125 14.6,17.4015 10.5,17.4015 C7.2,17.4015 4.5,15.329125 3.4,12.46725 L1.3,12.46725 C2.4,16.414625 6.1,19.375125 10.5,19.375125 C15.8,19.375125 20,15.13175 20,10.000125 C20,4.8685 15.7,0.625 10.5,0.625 L10.5,0.625 Z M9,5.55925 L9,10.592125 L13.7,13.35525 L14.5,12.072375 L10.5,9.704 L10.5,5.55925 L9,5.55925 L9,5.55925 Z" id="Shape"></path>
            </g>
        </g>
    </g>
</svg>
