<?xml version="1.0" encoding="UTF-8"?>
<svg version="1.1" viewBox="0 0 24 24" xmlns="http://www.w3.org/2000/svg">
<g fill="none" fill-rule="evenodd">
<g fill="#1E2A35">
<g transform="translate(4 4.5)">
<path d="m8.4 0c-2.8 0-5.28 1.5-6.56 3.7895l-1.84-1.8158v5.1316h5.2l-2.24-2.2105c1.04-1.9737 3.04-3.3158 5.44-3.3158 3.28 0 6 2.6842 6 5.9211 0 3.2368-2.72 5.9211-6 5.9211-2.64 0-4.8-1.6579-5.68-3.9474h-1.68c0.88 3.1579 3.84 5.5263 7.36 5.5263 4.24 0 7.6-3.3947 7.6-7.5 0-4.1053-3.44-7.5-7.6-7.5zm-1.2 3.9474v4.0263l3.76 2.2105 0.64-1.0263-3.2-1.8947v-3.3158h-1.2z"/>
</g>
</g>
</g>
</svg>
