<svg xmlns="http://www.w3.org/2000/svg" xmlns:xlink="http://www.w3.org/1999/xlink" width="135" height="100" viewBox="0 0 135 100">
    <defs>
        <path id="a" d="M20.473 0h92.066a4.825 4.825 0 0 1 4.825 4.825v61.597H15.649V4.825A4.825 4.825 0 0 1 20.473 0z"/>
        <rect id="b" width="134.13" height="11.258" y="63.044" rx="4.825"/>
        <path id="c" d="M53.652 64.17h27.944a3.377 3.377 0 0 1-3.377 3.378h-21.19a3.377 3.377 0 0 1-3.377-3.378z"/>
    </defs>
    <g fill="none" fill-rule="evenodd" transform="translate(0 1.58)">
        <g transform="translate(0 23.16)">
            <use fill="#FFF" xlink:href="#a"/>
            <path stroke="#3643A0" stroke-width="1.93" d="M16.614 65.457h99.785V4.825a3.86 3.86 0 0 0-3.86-3.86H20.473a3.86 3.86 0 0 0-3.86 3.86v60.632z"/>
        </g>
        <g transform="translate(0 23.16)">
            <use fill="#FFF" xlink:href="#b"/>
            <rect width="132.2" height="9.328" x=".965" y="64.009" stroke="#3643A0" stroke-width="1.93" rx="4.664"/>
        </g>
        <g transform="translate(0 23.16)">
            <use fill="#3643A0" xlink:href="#c"/>
            <path stroke="#3643A0" stroke-width="1.93" d="M54.818 65.135a2.413 2.413 0 0 0 2.212 1.448h21.189c.989 0 1.839-.596 2.211-1.448H54.818z"/>
        </g>
        <rect width="37.634" height="3.86" x="28.949" y="37.634" fill="#E7EAF2" rx="1.93"/>
        <rect width="56.933" height="2.895" x="28.949" y="46.318" fill="#E7EAF2" rx="1.447"/>
        <rect width="56.933" height="2.895" x="28.949" y="50.178" fill="#E7EAF2" rx="1.447"/>
        <rect width="56.933" height="2.895" x="28.949" y="55.003" fill="#E7EAF2" rx="1.447"/>
        <rect width="37.634" height="3.86" x="28.949" y="63.688" fill="#E7EAF2" rx="1.93"/>
        <rect width="56.933" height="2.895" x="28.949" y="71.408" fill="#E7EAF2" rx="1.447"/>
        <rect width="56.933" height="2.895" x="28.949" y="76.232" fill="#E7EAF2" rx="1.447"/>
        <path fill="#3643A0" stroke="#3643A0" stroke-linejoin="round" stroke-width="1.93" d="M75.557 0L49.213 36.05h17.312l-5.269 23.778 25.591-33.75h-18.44z"/>
    </g>
</svg>
