<svg xmlns="http://www.w3.org/2000/svg" xmlns:xlink="http://www.w3.org/1999/xlink" width="139" height="102" viewBox="0 0 139 102">
    <defs>
        <path id="a" d="M21.217 0h95.408a5 5 0 0 1 5 5v63.833H16.217V5a5 5 0 0 1 5-5z"/>
        <rect id="b" width="139" height="11.667" y="65.333" rx="5"/>
        <path id="c" d="M55.6 66.5h28.958a3.5 3.5 0 0 1-3.5 3.5H59.1a3.5 3.5 0 0 1-3.5-3.5z"/>
    </defs>
    <g fill="none" fill-rule="evenodd" transform="translate(0 1)">
        <g transform="translate(0 24)">
            <use fill="#FFF" xlink:href="#a"/>
            <path stroke="#5C58ED" stroke-width="2" d="M17.217 67.833h103.408V5a4 4 0 0 0-4-4H21.217a4 4 0 0 0-4 4v62.833z"/>
        </g>
        <g transform="translate(0 24)">
            <use fill="#FFF" xlink:href="#b"/>
            <rect width="137" height="9.667" x="1" y="66.333" stroke="#5C58ED" stroke-width="2" rx="4.833"/>
        </g>
        <g transform="translate(0 24)">
            <use fill="#5C58ED" xlink:href="#c"/>
            <path stroke="#5C58ED" stroke-width="2" d="M56.808 67.5A2.5 2.5 0 0 0 59.1 69h21.958a2.5 2.5 0 0 0 2.292-1.5H56.808z"/>
        </g>
        <rect width="39" height="4" x="30" y="39" fill="#ECEBF8" rx="2"/>
        <rect width="59" height="3" x="30" y="48" fill="#ECEBF8" rx="1.5"/>
        <rect width="59" height="3" x="30" y="52" fill="#ECEBF8" rx="1.5"/>
        <rect width="59" height="3" x="30" y="57" fill="#ECEBF8" rx="1.5"/>
        <rect width="39" height="4" x="30" y="66" fill="#ECEBF8" rx="2"/>
        <rect width="59" height="3" x="30" y="74" fill="#ECEBF8" rx="1.5"/>
        <rect width="59" height="3" x="30" y="79" fill="#ECEBF8" rx="1.5"/>
        <path fill="#FFE8A0" stroke="#5C58ED" stroke-linejoin="round" stroke-width="2" d="M78.3 0L51 37.359h17.94L63.48 62 90 27.026H70.89z"/>
    </g>
</svg>
