<svg xmlns="http://www.w3.org/2000/svg" width="24" height="30" viewBox="0 0 24 30">
    <path fill="#6096FF" fill-rule="evenodd" d="M6.861 9.23a1.15 1.15 0 0 1-1.147-1.153 1.15 1.15 0 0 1 1.147-1.154h6.85a1.15 1.15 0 0 1 1.146 1.154A1.15 1.15 0 0 1 13.71 9.23H6.861zm.004 4.616c-.636 0-1.15-.523-1.15-1.154 0-.638.514-1.154 1.15-1.154h11.413c.635 0 1.15.516 1.15 1.154 0 .631-.515 1.154-1.15 1.154H6.865zm0 4.616c-.635 0-1.15-.516-1.15-1.154 0-.639.515-1.154 1.15-1.154h11.413c.636 0 1.15.515 1.15 1.154 0 .638-.514 1.154-1.15 1.154H6.865zm0 4.615c-.636 0-1.15-.523-1.15-1.154 0-.638.514-1.154 1.15-1.154h11.413c.635 0 1.15.516 1.15 1.154 0 .63-.515 1.154-1.15 1.154H6.865zM2.66 2.307a.382.382 0 0 0-.375.379v24.628c0 .204.172.378.375.378h18.678a.382.382 0 0 0 .375-.378V2.686a.382.382 0 0 0-.375-.378H2.661zM2.633 30C1.181 30 0 28.81 0 27.346V2.654C0 1.191 1.181 0 2.633 0h18.734C22.819 0 24 1.19 24 2.654v24.692C24 28.809 22.819 30 21.367 30H2.633z"/>
</svg>
