<?xml version="1.0" encoding="UTF-8"?>
<svg width="24px" height="24px" viewBox="0 0 24 24" version="1.1" xmlns="http://www.w3.org/2000/svg" xmlns:xlink="http://www.w3.org/1999/xlink">
    <!-- Generator: Sketch 58 (84663) - https://sketch.com -->
    <title>Icon/journal</title>
    <desc>Created with Sketch.</desc>
    <g id="Icon/journal" stroke="none" stroke-width="1" fill="none" fill-rule="evenodd">
        <path d="M13,2 C14.6568542,2 16,3.34314575 16,5 L16,6.199 L14,6.199 L14,5 C14,4.44771525 13.5522847,4 13,4 L7,4 C6.44771525,4 6,4.44771525 6,5 L6,15 C6,15.5522847 6.44771525,16 7,16 L8,16 L8,18 L7,18 C5.34314575,18 4,16.6568542 4,15 L4,5 C4,3.40231912 5.24891996,2.09633912 6.82372721,2.00509269 L7,2 L13,2 Z" id="Combined-Shape" fill="currentColor" fill-rule="nonzero"></path>
        <path d="M11,6 L17,6 C18.6568542,6 20,7.34314575 20,9 L20,19 C20,20.6568542 18.6568542,22 17,22 L11,22 C9.34314575,22 8,20.6568542 8,19 L8,9 C8,7.34314575 9.34314575,6 11,6 Z M11,8 C10.4477153,8 10,8.44771525 10,9 L10,19 C10,19.5522847 10.4477153,20 11,20 L17,20 C17.5522847,20 18,19.5522847 18,19 L18,9 C18,8.44771525 17.5522847,8 17,8 L11,8 Z" id="Rectangle" fill="currentColor" fill-rule="nonzero"></path>
    </g>
</svg>