<?xml version="1.0" encoding="UTF-8"?>
<svg width="24px" height="24px" viewBox="0 0 24 24" version="1.1" xmlns="http://www.w3.org/2000/svg" xmlns:xlink="http://www.w3.org/1999/xlink">
    <!-- Generator: Sketch 58 (84663) - https://sketch.com -->
    <title>Icon/last-page</title>
    <desc>Created with Sketch.</desc>
    <g id="Icon/last-page" stroke="none" stroke-width="1" fill="none" fill-rule="evenodd">
        <path d="M4.29634502,3.28945826 C4.68876639,2.9008403 5.32192386,2.90392358 5.71054182,3.29634495 L5.71054182,3.29634495 L13.7105418,11.3746411 C14.0991729,11.7670758 14.0960744,12.4002593 13.7036211,12.7888716 L13.7036211,12.7888716 L5.7036211,20.7105754 C5.31118112,21.0991746 4.6780238,21.096061 4.28942464,20.703621 C3.90082547,20.311181 3.90393907,19.6780237 4.29637905,19.2894246 L4.29637905,19.2894246 L11.5857696,12.0713755 L4.28945833,4.70365505 C3.90084038,4.31123368 3.90392366,3.67807621 4.29634502,3.28945826 Z M10.2963451,3.28945826 C10.6887665,2.9008403 11.3219239,2.90392358 11.7105419,3.29634495 L11.7105419,3.29634495 L19.7105419,11.3746411 C20.099173,11.7670758 20.0960744,12.4002593 19.7036212,12.7888716 L19.7036212,12.7888716 L11.7036212,20.7105754 C11.3111812,21.0991746 10.6780239,21.096061 10.2894247,20.703621 C9.90082555,20.311181 9.90393915,19.6780237 10.2963791,19.2894246 L10.2963791,19.2894246 L17.5857697,12.0713755 L10.2894584,4.70365505 C9.90084046,4.31123368 9.90392373,3.67807621 10.2963451,3.28945826 Z" id="Combined-Shape" fill="currentColor" fill-rule="nonzero"></path>
    </g>
</svg>