<svg xmlns="http://www.w3.org/2000/svg" width="24" height="24" viewBox="0 0 24 24">
    <path fill="currentColor" fill-rule="evenodd" d="M8.125 9.812c.293-.293.617-.534.963-.724 1.925-1.061 4.393-.497 5.63 1.379l-1.497 1.496a2.257 2.257 0 0 0-2.556-1.299c-.4.09-.78.289-1.09.599l-2.869 2.87a2.237 2.237 0 0 0 0 3.16 2.237 2.237 0 0 0 3.16 0l.885-.884a5.69 5.69 0 0 0 2.52.383l-1.953 1.953a4.287 4.287 0 0 1-6.062-6.062l2.87-2.87zm4.558-4.557L10.73 7.208a5.69 5.69 0 0 1 2.52.382l.884-.884a2.237 2.237 0 0 1 3.16 0 2.237 2.237 0 0 1 0 3.16l-2.87 2.87a2.239 2.239 0 0 1-3.16 0 2.378 2.378 0 0 1-.485-.7L9.28 13.531c.158.239.32.445.53.655a4.295 4.295 0 0 0 6.062 0l2.87-2.87a4.285 4.285 0 1 0-6.06-6.062z"/>
</svg>
