<svg xmlns="http://www.w3.org/2000/svg" xmlns:xlink="http://www.w3.org/1999/xlink" width="24" height="24" viewBox="0 0 24 24">
    <defs>
        <path id="a" d="M4 5h14a1 1 0 0 1 0 2H4a1 1 0 1 1 0-2zm0 4h14a1 1 0 0 1 0 2H4a1 1 0 0 1 0-2zm0 4h6a1 1 0 0 1 0 2H4a1 1 0 0 1 0-2zm16 4.04v-.046c0 .549-.447 1.004-.999 1.004H17V20c0 .557-.448 1-1 1-.557 0-1-.448-1-1v-2.002h-2.001A.998.998 0 0 1 12 16.994v.046c0-.549.447-1.004.999-1.004h2v-2.042A1 1 0 0 1 16 13c.557 0 1.001.445 1.001.994v2.042h2.001c.556 0 .999.45.999 1.004z"/>
    </defs>
    <use fill="currentColor" fill-rule="evenodd" xlink:href="#a"/>
</svg>
