<?xml version="1.0" encoding="UTF-8"?>
<svg width="24px" height="24px" viewBox="0 0 24 24" version="1.1" xmlns="http://www.w3.org/2000/svg" xmlns:xlink="http://www.w3.org/1999/xlink">
    <!-- Generator: Sketch 58 (84663) - https://sketch.com -->
    <title>Icon/list</title>
    <desc>Created with Sketch.</desc>
    <g id="Icon/list" stroke="none" stroke-width="1" fill="none" fill-rule="evenodd">
        <g id="list" transform="translate(3.000000, 4.000000)" fill="#000000">
            <path d="M1.05876125,0 L15.8814187,0 C16.4661564,0 16.94018,0.475697477 16.94018,1.06250005 C16.94018,1.64930263 16.4661564,2.12500011 15.8814187,2.12500011 L1.05876125,2.12500011 C0.474023558,2.12500011 0,1.64930263 0,1.06250005 C0,0.475697477 0.474023558,0 1.05876125,0 Z M1.05876125,4.25000021 L15.8814187,4.25000021 C16.4661564,4.25000021 16.94018,4.72569769 16.94018,5.31250026 C16.94018,5.89930284 16.4661564,6.37500032 15.8814187,6.37500032 L1.05876125,6.37500032 C0.474023558,6.37500032 0,5.89930284 0,5.31250026 C0,4.72569769 0.474023558,4.25000021 1.05876125,4.25000021 Z M1.05876125,8.50000042 L7.41132875,8.50000042 C7.99606644,8.50000042 8.47008999,8.9756979 8.47008999,9.56250047 C8.47008999,10.1493031 7.99606644,10.6250005 7.41132875,10.6250005 L1.05876125,10.6250005 C0.474023558,10.6250005 0,10.1493031 0,9.56250047 C0,8.9756979 0.474023558,8.50000042 1.05876125,8.50000042 Z M17.9989412,12.7925006 L17.9989412,12.7436256 C17.9989412,13.3269382 17.525675,13.8103757 16.9412388,13.8103757 L14.8226575,13.8103757 L14.8226575,15.9375008 C14.8226575,16.5293133 14.3483325,16.9999999 13.7638962,16.9999999 C13.1741662,16.9999999 12.705135,16.5240008 12.705135,15.9375008 L12.705135,13.8103757 L10.5865537,13.8103757 C10.3050268,13.8106639 10.0350253,13.6981963 9.83645316,13.4979256 C9.637881,13.2976548 9.52715855,13.0261418 9.52883212,12.7436256 L9.52883212,12.7925006 C9.52883212,12.2091881 10.0021175,11.7257506 10.5865537,11.7257506 L12.7040762,11.7257506 L12.7040762,9.55612547 C12.707572,8.97139935 13.1812175,8.49940516 13.7638962,8.49999986 C14.3536263,8.49999986 14.8237163,8.97281295 14.8237163,9.55612547 L14.8237163,11.7257506 L16.9422975,11.7257506 C17.5309688,11.7257506 18,12.2038756 18,12.7925006 L17.9989412,12.7925006 Z" id="a"></path>
        </g>
    </g>
</svg>