<?xml version="1.0" encoding="UTF-8"?>
<svg width="24px" height="24px" viewBox="0 0 24 24" version="1.1" xmlns="http://www.w3.org/2000/svg" xmlns:xlink="http://www.w3.org/1999/xlink">
    <!-- Generator: Sketch 58 (84663) - https://sketch.com -->
    <title>Icon/logo</title>
    <desc>Created with Sketch.</desc>
    <g id="Icon/logo" stroke="none" stroke-width="1" fill="none" fill-rule="evenodd">
        <g id="scinapse-logo-small" transform="translate(4.000000, 2.000000)" fill-rule="nonzero">
            <path d="M1.84108137,3.48272924 L10.1025165,6.27333892 C10.2403575,6.31989989 10.3333333,6.45062683 10.3333333,6.59787466 L10.3333333,16.6578192 C10.3333333,16.6940058 10.3276678,16.7299633 10.3165481,16.7643506 C10.2584922,16.943886 10.0678155,17.0417325 9.89065966,16.9828968 L0.565768067,13.885981 C0.427100651,13.8399277 0.333333333,13.708787 0.333333333,13.5609033 L0.333333333,3.62668205 L0.333333333,3.36536328 C0.333333333,3.22072799 0.423089893,3.09172216 0.557518155,3.04314563 L8.92298735,0.0202280555 C9.10090793,-0.0440647268 9.29656989,0.0499861955 9.36001051,0.23029667 C9.37049784,0.260103709 9.376908,0.291225815 9.37906234,0.322795607 C9.39745324,0.592300916 9.23609955,0.841108604 8.98469193,0.930915499 L1.84108137,3.48272924 Z" id="Logo-Combined-Shape" fill="#586679"></path>
            <path d="M4.41054936,6.11732921 C4.47074992,6.0235279 4.56287152,5.95002209 4.67514999,5.912885 L13.4316816,3.01658581 C13.599677,2.96101989 13.7817681,3.04961358 13.8383936,3.21446536 C13.84679,3.2389094 13.8520947,3.26427296 13.8541886,3.28998627 C13.8734636,3.52668934 13.7267678,3.74610152 13.4978229,3.82300112 L5.93556836,6.36306255 L15.0908587,9.19374416 C15.2351823,9.23836687 15.3333333,9.36969589 15.3333333,9.51818254 L15.3333333,19.6597475 C15.3333333,19.6938746 15.3280998,19.7278074 15.3178085,19.7604061 C15.2611563,19.9398587 15.0669814,20.0402673 14.8841069,19.9846751 L4.57740365,16.8515287 C4.43227279,16.8074103 4.33333333,16.6756935 4.33333333,16.5266011 L4.33333333,6.33150095 C4.33333333,6.29682389 4.33873688,6.2623507 4.34935665,6.22927653 C4.36285147,6.1872483 4.38389081,6.14960453 4.41054936,6.11732921 Z" id="Logo-Combined-Shape-2" fill="#6295FE" transform="translate(9.833333, 11.500000) scale(-1, 1) translate(-9.833333, -11.500000) "></path>
            <path d="M10.3333333,7 L10.3333333,15.6715815 C10.3333333,15.7063127 10.3275554,15.740824 10.3162152,15.7738283 C10.2570078,15.9461429 10.062549,16.0400541 9.88187933,15.9835846 L4.33333333,14.2493535 L4.33333333,9.04385318 C4.33333333,8.90053145 4.43080511,8.77377055 4.57413002,8.73069999 L10.3333333,7 Z" id="Logo-Combined-Shape-3" fill="#243649"></path>
        </g>
    </g>
</svg>