<svg xmlns="http://www.w3.org/2000/svg" width="157" height="36" viewBox="0 0 157 36">
    <g fill="none" fill-rule="evenodd">
        <path fill="#586679" d="M2.233 8.09l12.238 4.08a.5.5 0 0 1 .341.474v14.703a.5.5 0 0 1-.655.475L.344 23.296A.5.5 0 0 1 0 22.82V7.919a.5.5 0 0 1 .332-.471L12.723 3.03a.507.507 0 0 1 .676.442.878.878 0 0 1-.584.889L2.233 8.09z"/>
        <path fill="#6295FE" d="M21.853 12.255a.724.724 0 0 0-.382-.3L8.841 7.698a.463.463 0 0 0-.61.401.764.764 0 0 0 .514.784l10.908 3.733-13.205 4.161a.5.5 0 0 0-.35.477v14.907a.5.5 0 0 0 .648.478l14.866-4.606a.5.5 0 0 0 .352-.477V12.57a.5.5 0 0 0-.111-.315z"/>
        <path fill="#243649" d="M14.812 14.142v13.205a.5.5 0 0 1-.655.475l-8.06-2.64v-7.928a.5.5 0 0 1 .35-.477l8.365-2.635z"/>
        <g fill="#243649">
            <path d="M61.758 10.884c0-.169-.007-.373-.02-.613a26.22 26.22 0 0 1-.029-.728 20.157 20.157 0 0 0-.03-.69 8.737 8.737 0 0 1-.019-.495h1.171c.013.336.023.66.03.971.006.311.022.512.048.602h.059c.234-.492.624-.916 1.171-1.272.547-.357 1.184-.535 1.913-.535.702 0 1.275.11 1.717.33.443.22.79.51 1.045.865.253.357.429.768.527 1.234.097.467.146.946.146 1.438v5.343h-1.171V12.05c0-.362-.033-.715-.098-1.059a2.797 2.797 0 0 0-.341-.923 1.783 1.783 0 0 0-.683-.65c-.293-.162-.674-.243-1.142-.243-.43 0-.836.074-1.22.223a2.625 2.625 0 0 0-.996.68c-.28.305-.5.687-.663 1.147-.163.46-.244 1-.244 1.622v4.488h-1.171v-6.45zm18.16 2.68c0 .441.002.836.009 1.186.006.35.016.674.03.972.012.298.028.576.048.835.02.26.049.518.088.777H79a8.374 8.374 0 0 1-.117-1.457h-.04c-.338.583-.757 1.01-1.258 1.283-.501.272-1.136.408-1.903.408a4.6 4.6 0 0 1-1.152-.146 3.027 3.027 0 0 1-1.015-.466 2.5 2.5 0 0 1-.732-.826c-.188-.337-.283-.745-.283-1.224 0-.687.176-1.23.527-1.633a3.283 3.283 0 0 1 1.298-.903c.514-.2 1.06-.33 1.64-.389a15.51 15.51 0 0 1 1.532-.087h1.366v-.544c0-.777-.24-1.334-.722-1.671-.482-.337-1.087-.505-1.815-.505a4.127 4.127 0 0 0-2.752 1.01l-.683-.797c.429-.414.962-.728 1.6-.942a5.767 5.767 0 0 1 1.835-.32c1.093 0 1.965.255 2.615.767.65.512.976 1.337.976 2.477v2.196zm-2.343-.737c-.495 0-.973.032-1.435.097a5.03 5.03 0 0 0-1.249.33c-.37.155-.667.363-.888.622-.221.259-.332.583-.332.971 0 .272.062.515.186.729.123.214.283.389.478.525s.413.24.654.31c.24.072.484.107.732.107.624 0 1.138-.09 1.542-.272.403-.181.725-.417.966-.709.24-.291.406-.622.497-.99.092-.37.137-.742.137-1.118v-.602h-1.288zm5.511-4.47h1.172v1.574h.039c.182-.31.41-.58.683-.806.273-.227.569-.414.888-.563.319-.15.654-.26 1.005-.33a5.197 5.197 0 0 1 1.034-.108c.69 0 1.324.117 1.903.35a4.47 4.47 0 0 1 1.503.981c.423.421.752.92.986 1.497.234.576.351 1.207.351 1.894 0 .687-.117 1.318-.351 1.894a4.447 4.447 0 0 1-.986 1.497 4.47 4.47 0 0 1-1.503.98 5.049 5.049 0 0 1-1.903.35c-.338 0-.683-.035-1.034-.106a4.458 4.458 0 0 1-1.005-.33 4.113 4.113 0 0 1-.888-.564 3.027 3.027 0 0 1-.683-.806h-.04v6.004h-1.17V8.358zm1.054 4.489c0 .505.098.981.293 1.428.195.447.462.836.8 1.166.339.33.736.593 1.191.787.455.194.95.291 1.483.291a3.65 3.65 0 0 0 1.484-.291c.442-.194.82-.457 1.132-.787.312-.33.55-.719.712-1.166.163-.447.244-.923.244-1.428 0-.505-.081-.981-.244-1.428a3.336 3.336 0 0 0-.712-1.166 3.441 3.441 0 0 0-1.132-.787 3.65 3.65 0 0 0-1.484-.291 3.74 3.74 0 0 0-1.483.291 3.846 3.846 0 0 0-1.19.787c-.339.33-.606.719-.8 1.166a3.53 3.53 0 0 0-.294 1.428zm11.446 2.196c.247.479.611.845 1.093 1.097.481.253.988.38 1.522.38a2.461 2.461 0 0 0 1.405-.448c.195-.142.355-.314.478-.514.124-.201.186-.431.186-.69 0-.415-.134-.726-.4-.933a2.979 2.979 0 0 0-.986-.486c-.39-.116-.82-.217-1.288-.3a5.535 5.535 0 0 1-1.288-.39 2.773 2.773 0 0 1-.986-.728c-.267-.311-.4-.751-.4-1.321 0-.44.091-.823.273-1.147.182-.324.42-.592.713-.806a3.09 3.09 0 0 1 .985-.476 4.047 4.047 0 0 1 1.113-.156c.741 0 1.382.136 1.922.408.54.272.96.7 1.26 1.283l-1.055.622c-.221-.415-.497-.729-.83-.943-.331-.214-.764-.32-1.297-.32-.208 0-.426.032-.654.097a2.3 2.3 0 0 0-.615.272 1.583 1.583 0 0 0-.459.447 1.078 1.078 0 0 0-.185.621c0 .402.133.7.4.894.267.195.595.347.986.457.39.11.82.204 1.288.282.468.077.898.204 1.288.379.39.174.72.427.986.757.267.33.4.8.4 1.41 0 .465-.088.87-.264 1.213a2.514 2.514 0 0 1-.722.865 3.228 3.228 0 0 1-1.044.525c-.39.116-.8.175-1.23.175-.78 0-1.493-.15-2.137-.447a3.237 3.237 0 0 1-1.493-1.38l1.035-.7zm16.558.602c-.455.687-1.018 1.179-1.688 1.477a5.392 5.392 0 0 1-2.215.447c-.69 0-1.314-.117-1.874-.35a4.226 4.226 0 0 1-1.444-.981 4.307 4.307 0 0 1-.927-1.497 5.446 5.446 0 0 1-.323-1.913c0-.674.111-1.296.332-1.866a4.45 4.45 0 0 1 .937-1.486 4.397 4.397 0 0 1 1.425-.991 4.472 4.472 0 0 1 1.815-.36c.69 0 1.298.12 1.825.36.527.24.97.557 1.327.952.358.395.628.845.81 1.35.182.506.274 1.017.274 1.535v.816h-7.573c0 .247.048.56.146.943.098.382.276.754.537 1.117.26.363.608.674 1.044.933.436.259.999.388 1.688.388.599 0 1.178-.142 1.737-.427.56-.285.99-.674 1.289-1.166l.858.719zm-.898-3.556a2.64 2.64 0 0 0-.243-1.127 3.013 3.013 0 0 0-.664-.923 3.141 3.141 0 0 0-.996-.631 3.219 3.219 0 0 0-1.22-.233c-.637 0-1.167.13-1.59.388-.423.26-.758.557-1.005.894a3.548 3.548 0 0 0-.527.981c-.104.318-.156.535-.156.651h6.401zM39.836 10.55c-.456-.635-1.067-.952-1.835-.952-.312 0-.618.078-.917.233-.3.156-.45.408-.45.758 0 .285.125.492.372.622s.56.24.937.33c.377.09.784.185 1.22.282.435.097.842.246 1.22.447.377.2.689.476.936.825.247.35.371.83.371 1.438 0 .557-.12 1.027-.361 1.41a2.83 2.83 0 0 1-.937.922 4.169 4.169 0 0 1-1.298.505 6.846 6.846 0 0 1-1.444.156 6.23 6.23 0 0 1-2.01-.311c-.612-.207-1.159-.583-1.64-1.127l1.561-1.458c.3.337.622.613.967.826.344.214.764.32 1.258.32.17 0 .345-.019.527-.057.183-.04.352-.104.508-.195.156-.09.283-.204.38-.34a.795.795 0 0 0 .147-.476c0-.324-.124-.563-.37-.719a3.312 3.312 0 0 0-.938-.379 20.493 20.493 0 0 0-1.22-.272 4.741 4.741 0 0 1-1.22-.408 2.56 2.56 0 0 1-.936-.787c-.248-.336-.371-.803-.371-1.399 0-.518.107-.968.322-1.35.215-.382.498-.696.849-.942a3.677 3.677 0 0 1 1.21-.544 5.566 5.566 0 0 1 3.24.145c.612.214 1.106.58 1.483 1.098l-1.561 1.4zm11.072.214a3.735 3.735 0 0 0-.859-.68 1.85 1.85 0 0 0-.917-.253c-.43 0-.813.078-1.152.233a2.722 2.722 0 0 0-.868.622c-.24.26-.423.557-.547.894a3.021 3.021 0 0 0-.185 1.05c0 .362.062.712.185 1.048.124.337.306.635.547.894.24.26.53.467.868.622.339.155.723.233 1.152.233.364 0 .703-.074 1.015-.223.312-.15.579-.366.8-.651l1.562 1.67a3.604 3.604 0 0 1-.81.603 5.679 5.679 0 0 1-1.825.631 4.838 4.838 0 0 1-.742.069 5.645 5.645 0 0 1-1.99-.35 4.779 4.779 0 0 1-1.62-.991 4.702 4.702 0 0 1-1.084-1.545c-.267-.602-.4-1.272-.4-2.01 0-.74.133-1.41.4-2.012a4.702 4.702 0 0 1 1.083-1.545 4.779 4.779 0 0 1 1.62-.99 5.645 5.645 0 0 1 1.991-.35c.599 0 1.2.113 1.805.34a4.11 4.11 0 0 1 1.591 1.078l-1.62 1.613zm4.046-2.798h2.342v9.326h-2.342V7.966zm-.332-3.167c0-.376.14-.703.42-.982.28-.278.634-.417 1.063-.417.43 0 .79.132 1.084.398.292.265.439.599.439 1 0 .402-.147.736-.44 1.001-.292.266-.653.399-1.083.399-.429 0-.784-.14-1.063-.418a1.34 1.34 0 0 1-.42-.981z"/>
        </g>
        <path fill="#666D7C" fill-rule="nonzero" d="M37.18 23.92h.79L40.98 31H40l-.72-1.74h-3.54L35.01 31h-.95l3.12-7.08zm.38 1.08h-.02l-1.47 3.48h2.89L37.56 25zm7.75 2.49a1.58 1.58 0 0 0-.54-.435 1.498 1.498 0 0 0-.64-.135c-.26 0-.49.045-.69.135-.2.09-.365.215-.495.375s-.228.345-.295.555c-.067.21-.1.435-.1.675 0 .24.038.465.115.675.077.21.183.395.32.555.137.16.302.285.495.375.193.09.41.135.65.135.513 0 .91-.193 1.19-.58l.58.55c-.227.26-.493.45-.8.57-.307.12-.63.18-.97.18-.36 0-.69-.06-.99-.18-.3-.12-.555-.29-.765-.51-.21-.22-.373-.48-.49-.78a2.71 2.71 0 0 1-.175-.99c0-.353.058-.68.175-.98.117-.3.282-.56.495-.78a2.26 2.26 0 0 1 .765-.515c.297-.123.625-.185.985-.185.347 0 .675.06.985.18.31.12.582.307.815.56l-.62.55zm1.63-.57c.24-.247.525-.428.855-.545.33-.117.665-.175 1.005-.175.693 0 1.193.163 1.5.49.307.327.46.823.46 1.49v2.01a5.529 5.529 0 0 0 .07.81h-.75a1.638 1.638 0 0 1-.045-.355c-.003-.13-.005-.245-.005-.345h-.02a1.83 1.83 0 0 1-.615.59c-.257.153-.565.23-.925.23-.24 0-.465-.03-.675-.09a1.687 1.687 0 0 1-.55-.265 1.246 1.246 0 0 1-.515-1.035c0-.387.1-.69.3-.91.2-.22.448-.383.745-.49.297-.107.617-.173.96-.2.343-.027.658-.04.945-.04h.3v-.14c0-.34-.102-.597-.305-.77-.203-.173-.488-.26-.855-.26-.253 0-.502.042-.745.125a1.789 1.789 0 0 0-.645.385l-.49-.51zm2.26 1.83c-.5 0-.897.07-1.19.21-.293.14-.44.37-.44.69 0 .293.098.502.295.625.197.123.442.185.735.185.227 0 .425-.038.595-.115a1.251 1.251 0 0 0 .685-.75c.06-.17.093-.352.1-.545v-.3h-.78zm7.08 1.42h-.02c-.147.267-.378.492-.695.675a2.166 2.166 0 0 1-1.105.275c-.327 0-.633-.062-.92-.185a2.244 2.244 0 0 1-.745-.515c-.21-.22-.375-.48-.495-.78-.12-.3-.18-.627-.18-.98s.06-.68.18-.98c.12-.3.287-.56.5-.78.213-.22.472-.392.775-.515a2.645 2.645 0 0 1 1.005-.185c.34 0 .652.07.935.21a2.3 2.3 0 0 1 .745.59h.02v-3.56h.78V31h-.78v-.83zm0-1.51c0-.247-.038-.475-.115-.685a1.596 1.596 0 0 0-.86-.92 1.675 1.675 0 0 0-.685-.135c-.253 0-.482.045-.685.135a1.594 1.594 0 0 0-.86.92c-.077.21-.115.438-.115.685 0 .247.038.475.115.685a1.596 1.596 0 0 0 .86.92c.203.09.432.135.685.135.253 0 .482-.045.685-.135a1.594 1.594 0 0 0 .86-.92c.077-.21.115-.438.115-.685zm6.6 1.49c-.28.36-.587.612-.92.755-.333.143-.72.215-1.16.215-.367 0-.697-.065-.99-.195a2.23 2.23 0 0 1-.745-.525c-.203-.22-.36-.48-.47-.78-.11-.3-.165-.62-.165-.96 0-.36.06-.692.18-.995.12-.303.287-.563.5-.78.213-.217.467-.385.76-.505s.613-.18.96-.18c.327 0 .627.055.9.165.273.11.508.27.705.48.197.21.348.467.455.77.107.303.16.648.16 1.035v.25h-3.78c.013.2.062.392.145.575.083.183.192.343.325.48.133.137.29.245.47.325.18.08.377.12.59.12.34 0 .627-.06.86-.18.233-.12.443-.297.63-.53l.59.46zm-.67-1.91c-.013-.4-.143-.72-.39-.96-.247-.24-.587-.36-1.02-.36-.433 0-.783.12-1.05.36s-.427.56-.48.96h2.94zm2.25-.81c0-.213-.007-.413-.02-.6a7.21 7.21 0 0 1-.02-.51h.74c0 .127.003.253.01.38s.01.257.01.39h.02a1.35 1.35 0 0 1 .225-.33c.097-.107.212-.202.345-.285a1.844 1.844 0 0 1 .99-.275c.253 0 .465.032.635.095.17.063.312.14.425.23.113.09.202.187.265.29.063.103.115.195.155.275.173-.28.373-.498.6-.655.227-.157.52-.235.88-.235.333 0 .613.045.84.135.227.09.41.22.55.39.14.17.24.377.3.62s.09.515.09.815V31h-.78v-2.8c0-.16-.017-.317-.05-.47a1.085 1.085 0 0 0-.18-.41.941.941 0 0 0-.35-.29 1.25 1.25 0 0 0-.56-.11c-.167 0-.323.033-.47.1a1.18 1.18 0 0 0-.385.28c-.11.12-.197.265-.26.435-.063.17-.095.358-.095.565V31h-.78v-2.65c0-.52-.07-.888-.21-1.105-.14-.217-.37-.325-.69-.325a1.52 1.52 0 0 0-.655.13c-.183.087-.333.21-.45.37-.117.16-.203.35-.26.57-.057.22-.085.463-.085.73V31h-.78v-3.57zm8.79-1.11h.78V31h-.78v-4.68zm-.18-1.83c0-.153.055-.287.165-.4a.542.542 0 0 1 .405-.17c.16 0 .295.057.405.17.11.113.165.247.165.4a.555.555 0 0 1-.16.41.555.555 0 0 1-.41.16.555.555 0 0 1-.41-.16.555.555 0 0 1-.16-.41zm6.04 3a1.58 1.58 0 0 0-.54-.435 1.498 1.498 0 0 0-.64-.135c-.26 0-.49.045-.69.135-.2.09-.365.215-.495.375s-.228.345-.295.555c-.067.21-.1.435-.1.675 0 .24.038.465.115.675.077.21.183.395.32.555.137.16.302.285.495.375.193.09.41.135.65.135.513 0 .91-.193 1.19-.58l.58.55c-.227.26-.493.45-.8.57-.307.12-.63.18-.97.18-.36 0-.69-.06-.99-.18-.3-.12-.555-.29-.765-.51-.21-.22-.373-.48-.49-.78a2.71 2.71 0 0 1-.175-.99c0-.353.058-.68.175-.98.117-.3.282-.56.495-.78a2.26 2.26 0 0 1 .765-.515c.297-.123.625-.185.985-.185.347 0 .675.06.985.18.31.12.582.307.815.56l-.62.55zm8.17-2.32a1.236 1.236 0 0 0-.56-.495 1.784 1.784 0 0 0-.73-.155c-.187 0-.37.023-.55.07-.18.047-.342.117-.485.21a1.051 1.051 0 0 0-.345.37 1.08 1.08 0 0 0-.13.54c0 .16.025.302.075.425.05.123.132.235.245.335.113.1.267.193.46.28.193.087.43.173.71.26.273.087.538.18.795.28.257.1.483.227.68.38.197.153.353.345.47.575.117.23.175.518.175.865 0 .353-.07.66-.21.92-.14.26-.325.475-.555.645-.23.17-.495.297-.795.38a3.543 3.543 0 0 1-1.55.07 2.974 2.974 0 0 1-.595-.17 2.416 2.416 0 0 1-.535-.3 1.807 1.807 0 0 1-.43-.455l.72-.59c.153.26.367.457.64.59a1.959 1.959 0 0 0 1.415.12c.183-.053.348-.132.495-.235a1.28 1.28 0 0 0 .36-.385.999.999 0 0 0 .14-.53c0-.22-.037-.398-.11-.535a.983.983 0 0 0-.34-.355c-.153-.1-.347-.19-.58-.27l-.82-.28a5.19 5.19 0 0 1-.7-.275 2.15 2.15 0 0 1-.555-.38c-.157-.15-.28-.33-.37-.54a1.91 1.91 0 0 1-.135-.755c0-.34.067-.637.2-.89s.313-.465.54-.635c.227-.17.483-.298.77-.385.287-.087.587-.13.9-.13.4 0 .765.062 1.095.185.33.123.625.338.885.645l-.69.6zm6.44 4.98c-.28.36-.587.612-.92.755-.333.143-.72.215-1.16.215-.367 0-.697-.065-.99-.195a2.23 2.23 0 0 1-.745-.525c-.203-.22-.36-.48-.47-.78-.11-.3-.165-.62-.165-.96 0-.36.06-.692.18-.995.12-.303.287-.563.5-.78.213-.217.467-.385.76-.505s.613-.18.96-.18c.327 0 .627.055.9.165.273.11.508.27.705.48.197.21.348.467.455.77.107.303.16.648.16 1.035v.25h-3.78c.013.2.062.392.145.575.083.183.192.343.325.48.133.137.29.245.47.325.18.08.377.12.59.12.34 0 .627-.06.86-.18.233-.12.443-.297.63-.53l.59.46zm-.67-1.91c-.013-.4-.143-.72-.39-.96-.247-.24-.587-.36-1.02-.36-.433 0-.783.12-1.05.36s-.427.56-.48.96h2.94zm2.19-1.32c.24-.247.525-.428.855-.545.33-.117.665-.175 1.005-.175.693 0 1.193.163 1.5.49.307.327.46.823.46 1.49v2.01a5.529 5.529 0 0 0 .07.81h-.75a1.638 1.638 0 0 1-.045-.355c-.003-.13-.005-.245-.005-.345h-.02a1.83 1.83 0 0 1-.615.59c-.257.153-.565.23-.925.23-.24 0-.465-.03-.675-.09a1.687 1.687 0 0 1-.55-.265 1.246 1.246 0 0 1-.515-1.035c0-.387.1-.69.3-.91.2-.22.448-.383.745-.49.297-.107.617-.173.96-.2.343-.027.658-.04.945-.04h.3v-.14c0-.34-.102-.597-.305-.77-.203-.173-.488-.26-.855-.26-.253 0-.502.042-.745.125a1.789 1.789 0 0 0-.645.385l-.49-.51zm2.26 1.83c-.5 0-.897.07-1.19.21-.293.14-.44.37-.44.69 0 .293.098.502.295.625.197.123.442.185.735.185.227 0 .425-.038.595-.115a1.251 1.251 0 0 0 .685-.75c.06-.17.093-.352.1-.545v-.3h-.78zm3.19-1.32c0-.213-.007-.413-.02-.6a7.21 7.21 0 0 1-.02-.51h.74c0 .127.003.253.01.38s.01.257.01.39h.02a1.35 1.35 0 0 1 .225-.33c.097-.107.212-.202.345-.285a1.844 1.844 0 0 1 1.15-.265c.053.007.107.02.16.04l-.05.79a1.454 1.454 0 0 0-.42-.06c-.48 0-.828.155-1.045.465-.217.31-.325.735-.325 1.275V31h-.78v-3.57zm6.87.06a1.58 1.58 0 0 0-.54-.435 1.498 1.498 0 0 0-.64-.135c-.26 0-.49.045-.69.135-.2.09-.365.215-.495.375s-.228.345-.295.555c-.067.21-.1.435-.1.675 0 .24.038.465.115.675.077.21.183.395.32.555.137.16.302.285.495.375.193.09.41.135.65.135.513 0 .91-.193 1.19-.58l.58.55c-.227.26-.493.45-.8.57-.307.12-.63.18-.97.18-.36 0-.69-.06-.99-.18-.3-.12-.555-.29-.765-.51-.21-.22-.373-.48-.49-.78a2.71 2.71 0 0 1-.175-.99c0-.353.058-.68.175-.98.117-.3.282-.56.495-.78a2.26 2.26 0 0 1 .765-.515c.297-.123.625-.185.985-.185.347 0 .675.06.985.18.31.12.582.307.815.56l-.62.55zm1.69-4.05h.78v3.53h.02c.053-.093.127-.185.22-.275a1.64 1.64 0 0 1 .335-.245c.13-.073.275-.133.435-.18.16-.047.33-.07.51-.07.307 0 .572.047.795.14.223.093.408.223.555.39.147.167.255.368.325.605s.105.495.105.775V31h-.78v-2.81c0-.393-.087-.703-.26-.93-.173-.227-.443-.34-.81-.34a1.52 1.52 0 0 0-.655.13c-.183.087-.333.21-.45.37-.117.16-.203.35-.26.57-.057.22-.085.463-.085.73V31h-.78v-7.56zm8.88.48h4.45v.78h-3.61v2.22h3.37v.78h-3.37v2.52h3.79V31h-4.63v-7.08zm5.99 3.51c0-.213-.007-.413-.02-.6a7.21 7.21 0 0 1-.02-.51h.74c0 .127.003.253.01.38s.01.257.01.39h.02a1.35 1.35 0 0 1 .225-.33c.097-.107.212-.202.345-.285a1.844 1.844 0 0 1 .99-.275c.307 0 .572.047.795.14.223.093.408.223.555.39.147.167.255.368.325.605s.105.495.105.775V31h-.78v-2.81c0-.393-.087-.703-.26-.93-.173-.227-.443-.34-.81-.34a1.52 1.52 0 0 0-.655.13c-.183.087-.333.21-.45.37-.117.16-.203.35-.26.57-.057.22-.085.463-.085.73V31h-.78v-3.57zm10.43 3.36c0 .853-.218 1.502-.655 1.945-.437.443-1.068.665-1.895.665-.46 0-.875-.067-1.245-.2a2.941 2.941 0 0 1-1.055-.69l.56-.64c.247.267.508.468.785.605.277.137.595.205.955.205.347 0 .635-.052.865-.155.23-.103.412-.243.545-.42a1.6 1.6 0 0 0 .28-.605 3.09 3.09 0 0 0 .08-.71v-.6h-.02c-.187.3-.43.52-.73.66s-.607.21-.92.21c-.367 0-.703-.06-1.01-.18a2.35 2.35 0 0 1-.79-.5 2.212 2.212 0 0 1-.51-.76 2.511 2.511 0 0 1-.18-.96c0-.38.06-.723.18-1.03.12-.307.288-.565.505-.775.217-.21.478-.372.785-.485.307-.113.647-.17 1.02-.17.16 0 .32.018.48.055a2 2 0 0 1 .465.17c.15.077.285.173.405.29.12.117.22.252.3.405h.02v-.8h.78v4.47zm-4.1-2.13a1.678 1.678 0 0 0 .485 1.195c.15.15.325.268.525.355.2.087.413.13.64.13.267 0 .503-.047.71-.14.207-.093.382-.218.525-.375.143-.157.252-.337.325-.54.073-.203.11-.418.11-.645 0-.253-.04-.485-.12-.695a1.605 1.605 0 0 0-.34-.545 1.499 1.499 0 0 0-.53-.355 1.802 1.802 0 0 0-.68-.125 1.65 1.65 0 0 0-.675.135 1.54 1.54 0 0 0-.52.37c-.143.157-.255.34-.335.55-.08.21-.12.438-.12.685zm5.81-2.34h.78V31h-.78v-4.68zm-.18-1.83c0-.153.055-.287.165-.4a.542.542 0 0 1 .405-.17c.16 0 .295.057.405.17.11.113.165.247.165.4a.555.555 0 0 1-.16.41.555.555 0 0 1-.41.16.555.555 0 0 1-.41-.16.555.555 0 0 1-.16-.41zm2.71 2.94c0-.213-.007-.413-.02-.6a7.21 7.21 0 0 1-.02-.51h.74c0 .127.003.253.01.38s.01.257.01.39h.02a1.35 1.35 0 0 1 .225-.33c.097-.107.212-.202.345-.285a1.844 1.844 0 0 1 .99-.275c.307 0 .572.047.795.14.223.093.408.223.555.39.147.167.255.368.325.605s.105.495.105.775V31h-.78v-2.81c0-.393-.087-.703-.26-.93-.173-.227-.443-.34-.81-.34a1.52 1.52 0 0 0-.655.13c-.183.087-.333.21-.45.37-.117.16-.203.35-.26.57-.057.22-.085.463-.085.73V31h-.78v-3.57zm9.94 2.72c-.28.36-.587.612-.92.755-.333.143-.72.215-1.16.215-.367 0-.697-.065-.99-.195a2.23 2.23 0 0 1-.745-.525c-.203-.22-.36-.48-.47-.78-.11-.3-.165-.62-.165-.96 0-.36.06-.692.18-.995.12-.303.287-.563.5-.78.213-.217.467-.385.76-.505s.613-.18.96-.18c.327 0 .627.055.9.165.273.11.508.27.705.48.197.21.348.467.455.77.107.303.16.648.16 1.035v.25h-3.78c.013.2.062.392.145.575.083.183.192.343.325.48.133.137.29.245.47.325.18.08.377.12.59.12.34 0 .627-.06.86-.18.233-.12.443-.297.63-.53l.59.46zm-.67-1.91c-.013-.4-.143-.72-.39-.96-.247-.24-.587-.36-1.02-.36-.433 0-.783.12-1.05.36s-.427.56-.48.96h2.94z"/>
    </g>
</svg>
