<svg xmlns="http://www.w3.org/2000/svg" width="157" height="36" viewBox="0 0 157 36">
    <g fill="none" fill-rule="evenodd">
        <path fill="#586679" d="M2.233 8.09l12.238 4.08a.5.5 0 0 1 .341.474v14.703a.5.5 0 0 1-.655.475L.344 23.296A.5.5 0 0 1 0 22.82V7.919a.5.5 0 0 1 .332-.471L12.723 3.03a.507.507 0 0 1 .676.442.878.878 0 0 1-.584.889L2.233 8.09z"/>
        <path fill="#6295FE" d="M21.853 12.255a.724.724 0 0 0-.382-.3L8.841 7.698a.463.463 0 0 0-.61.401.764.764 0 0 0 .514.784l10.908 3.733-13.205 4.161a.5.5 0 0 0-.35.477v14.907a.5.5 0 0 0 .648.478l14.866-4.606a.5.5 0 0 0 .352-.477V12.57a.5.5 0 0 0-.111-.315z"/>
        <path fill="#243649" d="M14.812 14.142v13.205a.5.5 0 0 1-.655.475l-8.06-2.64v-7.928a.5.5 0 0 1 .35-.477l8.365-2.635z"/>
        <g fill="#243649">
            <path d="M61.758 10.884c0-.169-.007-.373-.02-.613a26.22 26.22 0 0 1-.029-.728 20.157 20.157 0 0 0-.03-.69 8.737 8.737 0 0 1-.019-.495h1.171c.013.336.023.66.03.971.006.311.022.512.048.602h.059c.234-.492.624-.916 1.171-1.272.547-.357 1.184-.535 1.913-.535.702 0 1.275.11 1.717.33.443.22.79.51 1.045.865.253.357.429.768.527 1.234.097.467.146.946.146 1.438v5.343h-1.171V12.05c0-.362-.033-.715-.098-1.059a2.797 2.797 0 0 0-.341-.923 1.783 1.783 0 0 0-.683-.65c-.293-.162-.674-.243-1.142-.243-.43 0-.836.074-1.22.223a2.625 2.625 0 0 0-.996.68c-.28.305-.5.687-.663 1.147-.163.46-.244 1-.244 1.622v4.488h-1.171v-6.45zm18.16 2.68c0 .441.002.836.009 1.186.006.35.016.674.03.972.012.298.028.576.048.835.02.26.049.518.088.777H79a8.374 8.374 0 0 1-.117-1.457h-.04c-.338.583-.757 1.01-1.258 1.283-.501.272-1.136.408-1.903.408a4.6 4.6 0 0 1-1.152-.146 3.027 3.027 0 0 1-1.015-.466 2.5 2.5 0 0 1-.732-.826c-.188-.337-.283-.745-.283-1.224 0-.687.176-1.23.527-1.633a3.283 3.283 0 0 1 1.298-.903c.514-.2 1.06-.33 1.64-.389a15.51 15.51 0 0 1 1.532-.087h1.366v-.544c0-.777-.24-1.334-.722-1.671-.482-.337-1.087-.505-1.815-.505a4.127 4.127 0 0 0-2.752 1.01l-.683-.797c.429-.414.962-.728 1.6-.942a5.767 5.767 0 0 1 1.835-.32c1.093 0 1.965.255 2.615.767.65.512.976 1.337.976 2.477v2.196zm-2.343-.737c-.495 0-.973.032-1.435.097a5.03 5.03 0 0 0-1.249.33c-.37.155-.667.363-.888.622-.221.259-.332.583-.332.971 0 .272.062.515.186.729.123.214.283.389.478.525s.413.24.654.31c.24.072.484.107.732.107.624 0 1.138-.09 1.542-.272.403-.181.725-.417.966-.709.24-.291.406-.622.497-.99.092-.37.137-.742.137-1.118v-.602h-1.288zm5.511-4.47h1.172v1.574h.039c.182-.31.41-.58.683-.806.273-.227.569-.414.888-.563.319-.15.654-.26 1.005-.33a5.197 5.197 0 0 1 1.034-.108c.69 0 1.324.117 1.903.35a4.47 4.47 0 0 1 1.503.981c.423.421.752.92.986 1.497.234.576.351 1.207.351 1.894 0 .687-.117 1.318-.351 1.894a4.447 4.447 0 0 1-.986 1.497 4.47 4.47 0 0 1-1.503.98 5.049 5.049 0 0 1-1.903.35c-.338 0-.683-.035-1.034-.106a4.458 4.458 0 0 1-1.005-.33 4.113 4.113 0 0 1-.888-.564 3.027 3.027 0 0 1-.683-.806h-.04v6.004h-1.17V8.358zm1.054 4.489c0 .505.098.981.293 1.428.195.447.462.836.8 1.166.339.33.736.593 1.191.787.455.194.95.291 1.483.291a3.65 3.65 0 0 0 1.484-.291c.442-.194.82-.457 1.132-.787.312-.33.55-.719.712-1.166.163-.447.244-.923.244-1.428 0-.505-.081-.981-.244-1.428a3.336 3.336 0 0 0-.712-1.166 3.441 3.441 0 0 0-1.132-.787 3.65 3.65 0 0 0-1.484-.291 3.74 3.74 0 0 0-1.483.291 3.846 3.846 0 0 0-1.19.787c-.339.33-.606.719-.8 1.166a3.53 3.53 0 0 0-.294 1.428zm11.446 2.196c.247.479.611.845 1.093 1.097.481.253.988.38 1.522.38a2.461 2.461 0 0 0 1.405-.448c.195-.142.355-.314.478-.514.124-.201.186-.431.186-.69 0-.415-.134-.726-.4-.933a2.979 2.979 0 0 0-.986-.486c-.39-.116-.82-.217-1.288-.3a5.535 5.535 0 0 1-1.288-.39 2.773 2.773 0 0 1-.986-.728c-.267-.311-.4-.751-.4-1.321 0-.44.091-.823.273-1.147.182-.324.42-.592.713-.806a3.09 3.09 0 0 1 .985-.476 4.047 4.047 0 0 1 1.113-.156c.741 0 1.382.136 1.922.408.54.272.96.7 1.26 1.283l-1.055.622c-.221-.415-.497-.729-.83-.943-.331-.214-.764-.32-1.297-.32-.208 0-.426.032-.654.097a2.3 2.3 0 0 0-.615.272 1.583 1.583 0 0 0-.459.447 1.078 1.078 0 0 0-.185.621c0 .402.133.7.4.894.267.195.595.347.986.457.39.11.82.204 1.288.282.468.077.898.204 1.288.379.39.174.72.427.986.757.267.33.4.8.4 1.41 0 .465-.088.87-.264 1.213a2.514 2.514 0 0 1-.722.865 3.228 3.228 0 0 1-1.044.525c-.39.116-.8.175-1.23.175-.78 0-1.493-.15-2.137-.447a3.237 3.237 0 0 1-1.493-1.38l1.035-.7zm16.558.602c-.455.687-1.018 1.179-1.688 1.477a5.392 5.392 0 0 1-2.215.447c-.69 0-1.314-.117-1.874-.35a4.226 4.226 0 0 1-1.444-.981 4.307 4.307 0 0 1-.927-1.497 5.446 5.446 0 0 1-.323-1.913c0-.674.111-1.296.332-1.866a4.45 4.45 0 0 1 .937-1.486 4.397 4.397 0 0 1 1.425-.991 4.472 4.472 0 0 1 1.815-.36c.69 0 1.298.12 1.825.36.527.24.97.557 1.327.952.358.395.628.845.81 1.35.182.506.274 1.017.274 1.535v.816h-7.573c0 .247.048.56.146.943.098.382.276.754.537 1.117.26.363.608.674 1.044.933.436.259.999.388 1.688.388.599 0 1.178-.142 1.737-.427.56-.285.99-.674 1.289-1.166l.858.719zm-.898-3.556a2.64 2.64 0 0 0-.243-1.127 3.013 3.013 0 0 0-.664-.923 3.141 3.141 0 0 0-.996-.631 3.219 3.219 0 0 0-1.22-.233c-.637 0-1.167.13-1.59.388-.423.26-.758.557-1.005.894a3.548 3.548 0 0 0-.527.981c-.104.318-.156.535-.156.651h6.401zM39.836 10.55c-.456-.635-1.067-.952-1.835-.952-.312 0-.618.078-.917.233-.3.156-.45.408-.45.758 0 .285.125.492.372.622s.56.24.937.33c.377.09.784.185 1.22.282.435.097.842.246 1.22.447.377.2.689.476.936.825.247.35.371.83.371 1.438 0 .557-.12 1.027-.361 1.41a2.83 2.83 0 0 1-.937.922 4.169 4.169 0 0 1-1.298.505 6.846 6.846 0 0 1-1.444.156 6.23 6.23 0 0 1-2.01-.311c-.612-.207-1.159-.583-1.64-1.127l1.561-1.458c.3.337.622.613.967.826.344.214.764.32 1.258.32.17 0 .345-.019.527-.057.183-.04.352-.104.508-.195.156-.09.283-.204.38-.34a.795.795 0 0 0 .147-.476c0-.324-.124-.563-.37-.719a3.312 3.312 0 0 0-.938-.379 20.493 20.493 0 0 0-1.22-.272 4.741 4.741 0 0 1-1.22-.408 2.56 2.56 0 0 1-.936-.787c-.248-.336-.371-.803-.371-1.399 0-.518.107-.968.322-1.35.215-.382.498-.696.849-.942a3.677 3.677 0 0 1 1.21-.544 5.566 5.566 0 0 1 3.24.145c.612.214 1.106.58 1.483 1.098l-1.561 1.4zm11.072.214a3.735 3.735 0 0 0-.859-.68 1.85 1.85 0 0 0-.917-.253c-.43 0-.813.078-1.152.233a2.722 2.722 0 0 0-.868.622c-.24.26-.423.557-.547.894a3.021 3.021 0 0 0-.185 1.05c0 .362.062.712.185 1.048.124.337.306.635.547.894.24.26.53.467.868.622.339.155.723.233 1.152.233.364 0 .703-.074 1.015-.223.312-.15.579-.366.8-.651l1.562 1.67a3.604 3.604 0 0 1-.81.603 5.679 5.679 0 0 1-1.825.631 4.838 4.838 0 0 1-.742.069 5.645 5.645 0 0 1-1.99-.35 4.779 4.779 0 0 1-1.62-.991 4.702 4.702 0 0 1-1.084-1.545c-.267-.602-.4-1.272-.4-2.01 0-.74.133-1.41.4-2.012a4.702 4.702 0 0 1 1.083-1.545 4.779 4.779 0 0 1 1.62-.99 5.645 5.645 0 0 1 1.991-.35c.599 0 1.2.113 1.805.34a4.11 4.11 0 0 1 1.591 1.078l-1.62 1.613zm4.046-2.798h2.342v9.326h-2.342V7.966zm-.332-3.167c0-.376.14-.703.42-.982.28-.278.634-.417 1.063-.417.43 0 .79.132 1.084.398.292.265.439.599.439 1 0 .402-.147.736-.44 1.001-.292.266-.653.399-1.083.399-.429 0-.784-.14-1.063-.418a1.34 1.34 0 0 1-.42-.981z"/>
        </g>
        <text fill="#666D7C" font-family="Avenir-Roman, Avenir" font-size="10" letter-spacing=".2">
            <tspan x="34" y="31">Academic Search Engin</tspan> <tspan x="143.81" y="31">e</tspan>
        </text>
    </g>
</svg>
