<svg xmlns="http://www.w3.org/2000/svg" xmlns:xlink="http://www.w3.org/1999/xlink" width="14" height="16" viewBox="0 0 14 16">
    <defs>
        <path id="a" d="M16 10c1.654 0 3-1.346 3-3s-1.346-3-3-3-3 1.346-3 3c0 .223.029.439.075.649l-3.22 2.012A2.97 2.97 0 0 0 8 9c-1.654 0-3 1.346-3 3s1.346 3 3 3a2.97 2.97 0 0 0 1.855-.661l3.22 2.012c-.046.21-.075.426-.075.649 0 1.654 1.346 3 3 3s3-1.346 3-3-1.346-3-3-3a2.97 2.97 0 0 0-1.855.661l-3.22-2.012c.046-.21.075-.426.075-.649 0-.223-.029-.439-.075-.649l3.22-2.012A2.97 2.97 0 0 0 16 10z"/>
    </defs>
    <use fill="currentColor" fill-rule="evenodd" transform="translate(-5 -4)" xlink:href="#a"/>
</svg>
