<svg xmlns="http://www.w3.org/2000/svg" width="60" height="60" viewBox="0 0 60 60">
    <path fill="#BBC2D0" fill-rule="evenodd" d="M0 30C0 13.431 13.431 0 30 0c16.569 0 30 13.431 30 30 0 16.569-13.431 30-30 30C13.431 60 0 46.569 0 30zm25.176-8.079l-9.605-4.746a.526.526 0 0 0-.232-.06c-.1 0-.186.04-.246.111a.455.455 0 0 0-.093.298v20.373c0 .347.257.757.57.912l8.877 4.386a.79.79 0 0 0 .347.09c.299 0 .509-.229.509-.613V22.124a.227.227 0 0 0-.127-.203zm11.25 17.006l8.625 4.261c.47.233.856-.003.856-.523V23.703l-9.481 15.224zm-10.213-15.48v10.44l9.392 4.64-9.392-15.08zm19.468-1.575l-9.79-4.837a.337.337 0 0 0-.142-.034L35.74 17c-.118 0-.237.06-.301.162l-6.035 9.69 6.737 10.817 9.635-15.472a.228.228 0 0 0-.094-.325z"/>
</svg>
