<svg xmlns="http://www.w3.org/2000/svg" width="174" height="59" viewBox="0 0 174 59">
    <g fill="none" fill-rule="evenodd">
        <path fill="#0C1020" d="M15.6 1.068c9.402 0 14.798 4.648 14.798 12.768 0 8.441-5.396 13.356-14.799 13.356H7v11.272H.693V1.068H15.6zm-.268 20.461c5.77 0 9.029-2.457 9.029-7.532 0-4.915-3.259-7.266-9.029-7.266H6.998V21.53h8.334zM36.648 1.07v37.395h22.49v-5.716H42.953V1.068h-6.304zm34.084 21.903V1.068h-6.304v21.904c0 9.776 6.197 15.76 16.294 15.76 10.097 0 16.24-5.984 16.24-15.76V1.068h-6.304v21.904c0 6.357-3.793 10.097-9.883 10.097-6.144 0-10.043-3.793-10.043-10.097zm30.825-21.904v5.663h11.806v31.733h6.304V6.731h11.86V1.068h-29.97zm52.087-.16c11.165 0 19.82 8.174 19.82 18.858 0 10.685-8.655 18.965-19.82 18.965-11.166 0-19.82-8.28-19.82-18.965 0-10.738 8.654-18.858 19.82-18.858zm.053 5.663c-7.372 0-13.462 5.77-13.462 13.195 0 7.426 6.143 13.303 13.462 13.303s13.302-5.877 13.302-13.303c0-7.425-5.983-13.195-13.302-13.195z"/>
        <path fill="#6096FF" d="M1 55h172v4H1z"/>
    </g>
</svg>
