<?xml version="1.0" encoding="UTF-8"?>
<svg width="70px" height="70px" viewBox="0 0 70 70" version="1.1" xmlns="http://www.w3.org/2000/svg" xmlns:xlink="http://www.w3.org/1999/xlink">
    <!-- Generator: Sketch 52.6 (67491) - http://www.bohemiancoding.com/sketch -->
    <title>no author result</title>
    <desc>Created with Sketch.</desc>
    <g id="no-author-result" stroke="none" stroke-width="1" fill="none" fill-rule="evenodd">
        <circle id="Oval" fill="#DCE0E7" fill-rule="nonzero" cx="25.5" cy="25.5" r="24.5"></circle>
        <path d="M26.0356204,33.9955283 C21.597635,33.9955283 18.0000876,29.7431941 18,24.4977199 C18,17.2236855 21.5975474,15 26.0356204,15 C30.4735182,15 34.0712409,17.2236855 34.0712409,24.4977199 C34.0712409,29.7431941 30.4733431,33.9955283 26.0356204,33.9955283 Z M40.147593,46.2670528 C38.6518033,47.3010123 32.4891971,50.5 26.6910057,50.5 C20.8928143,50.5 18.3401003,49.6795821 14.9669084,48 C11.5937166,46.3204179 9.59921748,44.5210335 9.68600398,44.32361 C10.0645802,43.4624178 10.6324445,42.1706296 11.389597,40.4482452 C11.9927528,39.0761751 13.0090573,37.9265344 14.2967867,37.1596406 L19.5248175,34.0461412 C19.663562,33.9733452 19.831562,33.9874975 19.9566423,34.0828488 C21.736146,35.4420036 23.8282628,36.1604115 26.0072701,36.1604115 C28.185927,36.1604115 30.278219,35.4420036 32.0577226,34.0828488 C32.1824526,33.9874975 32.3504526,33.9733452 32.4891971,34.0461412 L37.7175432,37.1596392 C39.0053495,37.9265323 40.021716,39.0762121 40.6248983,40.4483422 C41.7382571,42.9810315 42.3194089,44.3030464 42.3683538,44.4143871 C42.441771,44.581398 41.6433827,45.2330932 40.147593,46.2670528 Z" id="Combined-Shape" fill="#FFFFFF" fill-rule="nonzero"></path>
        <circle id="Oval" stroke="#DCE0E7" fill-rule="nonzero" cx="25.5" cy="25.5" r="24.5"></circle>
        <path d="M57.7370444,54.2831628 L69.2863107,65.8336571 C69.2887335,65.8360801 69.2911511,65.8385083 69.2935637,65.8409415 C70.2412429,66.7967507 70.2346523,68.339833 69.2788431,69.2875122 C68.3178104,70.2403705 66.7672926,70.2370181 65.8103892,69.280013 L54.2756421,57.7440394 C50.885557,60.3927535 46.6188141,61.971158 41.9834542,61.971158 C30.9468972,61.971158 22,53.0233095 22,41.985579 C22,30.9478485 30.9468972,22 41.9834542,22 C53.0200112,22 61.9669084,30.9478485 61.9669084,41.985579 C61.9669084,46.6232956 60.3874024,50.8920595 57.7370444,54.2831628 Z M41.9834542,58.6402282 C51.180585,58.6402282 58.6363327,51.1836878 58.6363327,41.985579 C58.6363327,32.7874703 51.180585,25.3309298 41.9834542,25.3309298 C32.7863234,25.3309298 25.3305757,32.7874703 25.3305757,41.985579 C25.3305757,51.1836878 32.7863234,58.6402282 41.9834542,58.6402282 Z" id="search" fill="#9AA3B5"></path>
    </g>
</svg>