<svg xmlns="http://www.w3.org/2000/svg" xmlns:xlink="http://www.w3.org/1999/xlink" width="69" height="69" viewBox="0 0 69 69">
    <defs>
        <path id="a" d="M35.737 32.283l11.55 11.55.007.008a2.437 2.437 0 0 1-.015 3.447 2.458 2.458 0 0 1-3.469-.008L32.276 35.744a19.896 19.896 0 0 1-12.293 4.227C8.947 39.971 0 31.023 0 19.986 0 8.948 8.947 0 19.983 0 31.02 0 39.967 8.948 39.967 19.986c0 4.637-1.58 8.906-4.23 12.297zM19.983 36.64c9.198 0 16.653-7.456 16.653-16.654 0-9.199-7.455-16.655-16.653-16.655-9.197 0-16.652 7.456-16.652 16.655 0 9.198 7.455 16.654 16.652 16.654z"/>
    </defs>
    <g fill="none" fill-rule="evenodd">
        <g fill="#DDE0E7" fill-rule="nonzero">
            <path d="M23.75 10.525H5.937c-1.311 0-2.375 1.052-2.375 2.35v35.25c0 1.298 1.064 2.35 2.376 2.35h26.125c1.311 0 2.374-1.052 2.374-2.35V44.6H38v4.7c0 2.596-2.127 4.7-4.75 4.7H4.75C2.127 54 0 51.896 0 49.3V11.7C0 9.104 2.127 7 4.75 7h21.42l.013.012c.84.07 1.633.432 2.232 1.03l8.55 8.519c.59.588.95 1.36 1.022 2.178l.013.014V44.6h-3.563V21.1h-8.312c-1.312 0-2.375-1.052-2.375-2.35v-8.225z"/>
            <path d="M30.75 3.525H12.937c-1.311 0-2.374 1.052-2.374 2.35v2.873H7V4.7C7 2.104 9.127 0 11.75 0h21.42l.013.012c.84.07 1.633.432 2.232 1.03l8.55 8.519c.59.588.95 1.36 1.022 2.178l.013.014v27.344a6.496 6.496 0 0 1-6.496 6.483h-1.502v-3.535h1.435a3 3 0 0 0 3-3V14.1h-8.312c-1.312 0-2.375-1.052-2.375-2.35V3.525z"/>
        </g>
        <use fill="#9AA3B5" transform="translate(21 21)" xlink:href="#a"/>
    </g>
</svg>
