<svg xmlns="http://www.w3.org/2000/svg" width="24" height="24" viewBox="0 0 24 24">
    <g fill="none" fill-rule="evenodd">
        <path fill="#98A3B7" d="M7 5h10a2 2 0 0 1 2 2v7.009L13.956 19H7a2 2 0 0 1-2-2V7a2 2 0 0 1 2-2z"/>
        <path fill="#BAC2D1" d="M19 14v.004l-5 4.953V16a2 2 0 0 1 2-2h3z"/>
        <rect width="8" height="1.5" x="8" y="8" fill="#FFF" rx=".75"/>
        <rect width="8" height="1.5" x="8" y="11" fill="#FFF" rx=".75"/>
        <rect width="4" height="1.5" x="8" y="14" fill="#FFF" rx=".75"/>
    </g>
</svg>
