<svg xmlns="http://www.w3.org/2000/svg" width="20" height="20" viewBox="0 0 20 20">
    <g fill="none" fill-rule="evenodd">
        <path fill="#6096FF" fill-rule="nonzero" d="M10 18.604l-3.42.793-2.11-2.806L1.34 15l.187-3.506-1.375-3.23 2.397-2.566L3.572 2.34l3.485-.425L10 0l2.943 1.915 3.485.425 1.023 3.358 2.397 2.566-1.375 3.23L18.66 15l-3.13 1.59-2.11 2.807z"/>
        <path fill="#FFF" d="M5.545 10.649a.376.376 0 0 1-.109-.247c0-.07.036-.176.109-.247l.507-.494a.356.356 0 0 1 .506 0l.037.035 1.99 2.082c.073.071.182.071.254 0l4.85-4.905h.037a.356.356 0 0 1 .507 0l.506.494a.335.335 0 0 1 0 .494L8.948 13.72a.333.333 0 0 1-.254.106.333.333 0 0 1-.253-.106l-2.824-2.965-.072-.106z"/>
    </g>
</svg>
