<?xml version="1.0" encoding="UTF-8"?>
<svg width="24px" height="24px" viewBox="0 0 24 24" version="1.1" xmlns="http://www.w3.org/2000/svg" xmlns:xlink="http://www.w3.org/1999/xlink">
    <!-- Generator: Sketch 58 (84663) - https://sketch.com -->
    <title>Icon/occupied</title>
    <desc>Created with Sketch.</desc>
    <g id="Icon/occupied" stroke="none" stroke-width="1" fill="none" fill-rule="evenodd">
        <g id="occupied" transform="translate(2.000000, 2.000000)" fill-rule="nonzero">
            <polygon id="Path" fill="#6096FF" points="10 18.2232304 6.52721365 19 4.38464663 16.2514306 1.20633631 14.6929938 1.39622258 11.2587514 0 8.09486003 2.43399675 5.58137856 3.47278635 2.29210703 7.01157595 1.87580554 10 0 12.988424 1.87580554 16.5272136 2.29210703 17.5660032 5.58137856 20 8.09486003 18.6037774 11.2587514 18.7936637 14.6929938 15.6153534 16.2504511 13.4727864 19"></polygon>
            <path d="M6.10423207,10.8494916 C6.04144528,10.7840452 6.00430502,10.6967717 6,10.6045633 C6,10.5351505 6.03442527,10.4300395 6.10423207,10.359635 L6.58905465,9.8697785 C6.65299336,9.80280171 6.74010397,9.76511736 6.8309878,9.76511736 C6.92187164,9.76511736 7.00898224,9.80280171 7.07292096,9.8697785 L7.10830249,9.90448493 L9.011255,11.9690221 C9.0810618,12.0394265 9.18529387,12.0394265 9.25414441,11.9690221 L13.8919935,7.10516298 L13.927375,7.10516298 C13.9913502,7.03787966 14.0786666,7 14.1697863,7 C14.260906,7 14.3482225,7.03787966 14.4121976,7.10516298 L14.8960639,7.59501954 C14.9622904,7.65794188 15,7.74680553 15,7.83994781 C15,7.9330901 14.9622904,8.02195374 14.8960639,8.08487609 L9.35837649,13.8947334 C9.29581752,13.9644503 9.20727878,14.0027656 9.11548707,13.9998444 C9.02402527,14.0024775 8.93589053,13.9641862 8.87355391,13.8947334 L6.17308262,10.9546025 L6.10423207,10.8494916 L6.10423207,10.8494916 Z" id="Path" fill="#FFFFFF"></path>
        </g>
    </g>
</svg>