<?xml version="1.0" encoding="UTF-8"?>
<svg width="24px" height="24px" viewBox="0 0 24 24" version="1.1" xmlns="http://www.w3.org/2000/svg" xmlns:xlink="http://www.w3.org/1999/xlink">
    <!-- Generator: Sketch 58 (84663) - https://sketch.com -->
    <title>Icon/occupied</title>
    <desc>Created with Sketch.</desc>
    <g id="Icon/occupied" stroke="none" stroke-width="1" fill="none" fill-rule="evenodd">
        <path d="M12,1 L15.2872665,3.17198536 L19.179935,3.65401866 L20.3226036,7.46264886 L23,10.3729958 L21.4641552,14.0364489 L21.6730301,18.0129401 L18.1768887,19.8163118 L15.820065,23 L12,22.1005826 L8.17993501,23 L5.82311129,19.817446 L2.32696994,18.0129401 L2.53584484,14.0364489 L1,10.3729958 L3.67739643,7.46264886 L4.82006499,3.65401866 L8.71273355,3.17198536 L12,1 Z M16.3177122,9.12517511 L10.5859458,14.7559146 L8.44805196,12.5620557 C8.05259006,12.1562415 7.41947634,12.1647223 7.03395289,12.5809979 C6.64842944,12.9972736 6.65648614,13.6637091 7.05194804,14.0695233 L9.87284056,16.9642601 C10.2551575,17.3565852 10.862835,17.3635533 11.2531804,16.980088 L17.6822878,10.6642986 C18.0860542,10.2676489 18.1079008,9.60155632 17.7310836,9.17653911 C17.3542665,8.7515219 16.7214785,8.72852545 16.3177122,9.12517511 Z" id="Combined-Shape" fill="#6096FF" fill-rule="nonzero"></path>
    </g>
</svg>