<?xml version="1.0" encoding="UTF-8"?>
<svg width="24px" height="24px" viewBox="0 0 24 24" version="1.1" xmlns="http://www.w3.org/2000/svg" xmlns:xlink="http://www.w3.org/1999/xlink">
    <!-- Generator: Sketch 58 (84663) - https://sketch.com -->
    <title>Icon/orcid</title>
    <desc>Created with Sketch.</desc>
    <g id="Icon/orcid" stroke="none" stroke-width="1" fill="none" fill-rule="evenodd">
        <g id="Shape" transform="translate(4.000000, 2.500000)" fill="#000000" fill-rule="nonzero">
            <path d="M17,10.9951962 C17,15.331732 13.8938127,17.5 7.68143821,17.5 L5.12095881,17.5 L5.12095881,4.59821429 L7.68143821,4.59821429 C13.8938127,4.52633302 17,6.65866032 17,10.9951962 Z M2.56047941,4.59821429 L2.56047941,17.5 L0,17.5 L0,4.59821429 L2.56047941,4.59821429 Z M9.3371412,7.17857144 L7.68143821,7.17857144 L7.68143821,14.9196429 L9.3371412,14.9196429 C12.7376618,14.8980785 14.4379221,13.6078999 14.4379221,11.0491071 C14.4379221,8.49031439 12.7376618,7.20013584 9.3371412,7.17857144 Z M1.2802397,0.5 C1.98729657,0.5 2.56047941,1.07763262 2.56047941,1.79017857 C2.56047941,2.50272453 1.98729657,3.08035714 1.2802397,3.08035714 C0.573182837,3.08035714 0,2.50272453 0,1.79017857 C0,1.07763262 0.573182837,0.5 1.2802397,0.5 Z" id="path-1"></path>
        </g>
    </g>
</svg>