<svg xmlns="http://www.w3.org/2000/svg" width="200" height="43" viewBox="0 0 200 43">
    <g fill="none" fill-rule="evenodd">
        <path fill="#34495E" d="M74.78 11.089c5.116 0 8.074 2.543 8.074 6.95 0 4.556-2.958 7.188-8.075 7.188h-5.413v6.567H67V11.089h7.78zm-.09 11.95c3.727 0 5.886-1.687 5.886-4.94 0-3.165-2.159-4.821-5.886-4.821h-5.324v9.76h5.324zm28.85 8.755l-2.336-5.295h-11.27l-2.307 5.295h-2.514l9.288-20.705h2.455l9.258 20.705h-2.574zM90.91 24.31h9.347l-4.703-10.648L90.91 24.31zm28.732-13.221c5.117 0 8.075 2.543 8.075 6.95 0 4.556-2.958 7.188-8.075 7.188h-5.413v6.567h-2.366V11.089h7.779zm-.089 11.95c3.727 0 5.886-1.687 5.886-4.94 0-3.165-2.159-4.821-5.886-4.821h-5.324v9.76h5.324zm14.593-11.95v20.705h14.435v-2.19h-12.068v-7.216h10.44v-2.16h-10.44v-6.95h11.683v-2.19h-14.05zm37.99 20.705h-2.691l-4.349-6.626c-.414.03-.857.06-1.33.06h-5.502v6.566h-2.366V11.089h7.867c5.177 0 8.164 2.543 8.164 6.95 0 3.402-1.686 5.739-4.673 6.685l4.88 7.07zm-13.872-8.756h5.501c3.757 0 5.887-1.686 5.887-4.94 0-3.164-2.13-4.82-5.887-4.82h-5.501v9.76zm33.227-8.015l1.006-2.1c-1.715-1.154-4.17-1.923-6.566-1.923-4.29 0-7.158 2.07-7.158 5.324 0 7.424 11.654 4.496 11.624 10.027 0 2.011-1.863 3.224-4.85 3.224-2.337 0-4.97-1.065-6.893-2.898l-1.064 2.04c1.952 1.864 4.91 3.165 7.927 3.165 4.436 0 7.483-2.218 7.483-5.65.03-7.512-11.624-4.702-11.624-10.085 0-1.775 1.745-2.84 4.407-2.84 1.656 0 3.845.503 5.708 1.716z"/>
        <path fill="#6096FF" d="M0 0l37 14.203V43L0 28.797z"/>
        <path fill="#3643A0" d="M37 0L0 14.203V43l37-14.203z"/>
    </g>
</svg>
