<?xml version="1.0" encoding="UTF-8"?>
<svg width="218px" height="43px" viewBox="0 0 218 43" version="1.1" xmlns="http://www.w3.org/2000/svg" xmlns:xlink="http://www.w3.org/1999/xlink">
    <!-- Generator: Sketch 48.2 (47327) - http://www.bohemiancoding.com/sketch -->
    <title>pluto-logo</title>
    <desc>Created with Sketch.</desc>
    <defs></defs>
    <g id="Home" stroke="none" stroke-width="1" fill="none" fill-rule="evenodd" transform="translate(-240.000000, -39.000000)">
        <g id="pluto-logo" transform="translate(240.000000, 39.000000)">
            <g id="Group-4" transform="translate(69.000000, 3.000000)">
                <text id="beta" font-family="NunitoSans-SemiBold, Nunito Sans" font-size="18" font-weight="500" line-spacing="18" letter-spacing="0.699999988" fill="#3E7FFF">
                    <tspan x="112" y="18">bet</tspan>
                    <tspan x="140.524" y="18">a</tspan>
                </text>
                <g id="plutoLogo" fill="#34495E">
                    <path d="M11.1596505,8.41987179 C17.0770453,8.41987179 21.2073074,12.7681624 21.2073074,18.974359 C21.2073074,25.1410256 17.1564734,29.4497863 11.2390786,29.4497863 C7.50595711,29.4497863 4.64654488,27.75 3.09769659,24.8643162 L3.09769659,37 L0,37 L0,8.53846154 L3.09769659,8.53846154 L3.09769659,13.0053419 C4.64654488,10.1196581 7.50595711,8.41987179 11.1596505,8.41987179 Z M10.6036537,26.7222222 C14.9722002,26.7222222 18.0698968,23.4412393 18.0698968,18.8952991 C18.0698968,14.3888889 14.9722002,11.0683761 10.6036537,11.0683761 C6.19539317,11.0683761 3.09769659,14.349359 3.09769659,18.8952991 C3.09769659,23.4807692 6.19539317,26.7222222 10.6036537,26.7222222 Z M30.1429706,23.9946581 L30.1429706,0 L27.0849881,0 L27.0849881,24.3504274 C27.0849881,27.7104701 28.9118348,29.4497863 31.4138205,29.4497863 C32.5655282,29.4497863 33.796664,29.0149573 34.9483717,28.224359 L34.3526608,25.7339744 C33.5980937,26.2873932 32.8435266,26.6036325 32.1683876,26.6036325 C30.8975377,26.6036325 30.1429706,25.7735043 30.1429706,23.9946581 Z M54.8054011,8.53846154 L54.8054011,18.7371795 C54.8054011,23.2435897 52.2637014,26.4059829 47.9348689,26.4850427 C44.3208896,26.4850427 42.1366164,24.2713675 42.1366164,20.5555556 L42.1366164,8.53846154 L39.0389198,8.53846154 L39.0389198,21.3461538 C39.0389198,26.366453 41.9777601,29.4497863 46.8625894,29.4497863 C50.6354249,29.4102564 53.4154091,27.8685897 54.8054011,24.6271368 L54.8054011,29.3311966 L57.9030977,29.3311966 L57.9030977,8.53846154 L54.8054011,8.53846154 Z M74.8610008,25.5363248 C73.7092931,26.2083333 72.5972994,26.5641026 71.5647339,26.6036325 C69.7378872,26.6036325 68.7450357,25.2200855 68.7450357,22.2553419 L68.7450357,11.582265 L75.3772836,11.582265 L75.3772836,9.17094017 L68.7450357,9.17094017 L68.7450357,3.71581197 L65.6870532,3.71581197 L65.6870532,22.7692308 C65.6870532,27.2361111 67.9110405,29.4893162 71.0881652,29.4497863 C72.6370135,29.4497863 74.2652899,28.8963675 75.7744241,27.9081197 L74.8610008,25.5363248 Z M89.3963463,8.41987179 C95.5917395,8.41987179 100,12.7286325 100,18.8952991 C100,25.1410256 95.5917395,29.4497863 89.3963463,29.4497863 C83.2009531,29.4497863 78.7926926,25.1410256 78.7926926,18.8952991 C78.7926926,12.7286325 83.2009531,8.41987179 89.3963463,8.41987179 Z M89.3963463,11.1474359 C85.0277998,11.1474359 81.8903892,14.349359 81.8903892,18.9348291 C81.8903892,23.599359 85.0277998,26.7617521 89.3963463,26.7617521 C93.7648928,26.7617521 96.9023034,23.599359 96.9023034,18.9348291 C96.9023034,14.349359 93.7648928,11.1474359 89.3963463,11.1474359 Z" id="pluto"></path>
                </g>
            </g>
            <g id="Group-29">
                <g id="Group-15">
                    <polygon id="Rectangle" fill="#6096FF" points="0 0 37 14.2026276 37 43 0 28.7973724"></polygon>
                    <polygon id="Rectangle" fill="#3643A0" transform="translate(18.500000, 21.500000) scale(-1, 1) translate(-18.500000, -21.500000) " points="0 0 37 14.2026276 37 43 0 28.7973724"></polygon>
                </g>
            </g>
        </g>
    </g>
</svg>
