<?xml version="1.0" encoding="UTF-8"?>
<svg width="24px" height="24px" viewBox="0 0 24 24" version="1.1" xmlns="http://www.w3.org/2000/svg" xmlns:xlink="http://www.w3.org/1999/xlink">
    <!-- Generator: Sketch 58 (84663) - https://sketch.com -->
    <title>Icon/password</title>
    <desc>Created with Sketch.</desc>
    <g id="Icon/password" stroke="none" stroke-width="1" fill="none" fill-rule="evenodd">
        <path d="M12,2 C14.7614237,2 17,4.38781467 17,7.33333333 L17,7.33333333 L17,10 L18,10 C19.1045695,10 20,10.8954305 20,12 L20,20 C20,21.1045695 19.1045695,22 18,22 L6,22 C4.8954305,22 4,21.1045695 4,20 L4,12 C4,10.8954305 4.8954305,10 6,10 L7,10 L7,7.33333333 C7,4.46334079 9.12524925,2.1228187 11.788643,2.00467884 Z M12,4 C10.3431458,4 9,5.15905083 9,7 L9,7 L9,10 L15,10 L15,7 C15,5.22479902 13.75108,4.08365911 12.1762728,4.00441341 Z" id="Combined-Shape" fill="currentColor"></path>
    </g>
</svg>