<svg xmlns="http://www.w3.org/2000/svg" width="24" height="24" viewBox="0 0 24 24">
    <path fill="currentColor" fill-rule="evenodd" d="M14 3.5H6.5a1 1 0 0 0-1 1v15a1 1 0 0 0 1 1h11a1 1 0 0 0 1-1V19H20h-1.5V8H15a1 1 0 0 1-1-1V3.5zm5.994 3.495l.006.006V20a2 2 0 0 1-2 2H6a2 2 0 0 1-2-2V4a2 2 0 0 1 2-2h9.02l.004.005a1.5 1.5 0 0 1 .94.438l3.6 3.625c.249.25.4.579.43.927zM7.268 18a1.19 1.19 0 0 1-.833-.369c-.47-.54-.475-1.022-.398-1.332.067-.27.233-.517.467-.696.345-.266 1.341-.977 2.811-1.582.772-1.401 1.295-2.54 1.649-3.447-.615-1.152-.816-2.104-.881-2.57a2.425 2.425 0 0 1 .09-1.108c.288-.875.879-.916 1.127-.891.05.005 1.028.14 1.19 1.515.007.055.114.927-.644 2.993.464.79 1.145 1.669 2.141 2.534.976-.01 2.014.096 3.105.372.255.065.477.196.64.38a.996.996 0 0 1 .185 1.082c.001 0-.065.2-.21.4a1.07 1.07 0 0 1-1.358.316 15.207 15.207 0 0 1-2.647-1.74 11.848 11.848 0 0 0-3.822.8 54.276 54.276 0 0 1-1.71 2.832 1.101 1.101 0 0 1-.52.438h-.001c-.132.051-.26.073-.38.073zm1.363-2.782a11.1 11.1 0 0 0-1.638 1.02.473.473 0 0 0-.177.254c-.045.183.028.386.216.603.004.003.156.15.324.085.051-.02.1-.065.14-.125.419-.651.795-1.262 1.135-1.837zm6.44-1.33c.49.343 1.039.678 1.65.999.115.06.26.027.336-.078.07-.097.104-.198.105-.2.052-.132.042-.197-.03-.276a.475.475 0 0 0-.238-.136 11.373 11.373 0 0 0-1.824-.308zm-3.59-2.454c-.27.637-.609 1.36-1.036 2.18.734-.228 1.55-.41 2.433-.502a11.003 11.003 0 0 1-1.397-1.678zm-.28-4.633c-.098 0-.19.117-.266.347a1.636 1.636 0 0 0-.057.745c.045.32.161.895.462 1.611.406-1.31.354-1.874.353-1.886-.087-.736-.476-.815-.48-.816h-.012z"/>
</svg>
