<svg xmlns="http://www.w3.org/2000/svg" width="24" height="24" viewBox="0 0 24 24">
    <path fill="#F54B5E" fill-rule="nonzero" d="M23.612 14.783c-.48-.483-1.544-.739-3.163-.76-1.096-.013-2.415.086-3.803.284-.621-.366-1.261-.764-1.764-1.244-1.352-1.29-2.48-3.081-3.184-5.05.046-.185.085-.346.121-.511 0 0 .762-4.42.56-5.915a1.758 1.758 0 0 0-.099-.424L12.214.99c-.207-.489-.613-1.006-1.25-.978L10.591 0h-.01C9.87 0 9.29.371 9.14.926c-.462 1.74.014 4.342.878 7.713l-.221.55c-.618 1.54-1.393 3.09-2.077 4.459l-.089.178a75.425 75.425 0 0 1-1.963 3.693l-.611.33c-.044.024-1.091.59-1.337.742C1.637 19.86.257 21.304.028 22.449c-.073.366-.019.833.352 1.05l.59.303c.257.132.527.198.804.198 1.484 0 3.206-1.888 5.579-6.12 2.739-.91 5.858-1.668 8.591-2.086 2.084 1.198 4.646 2.03 6.263 2.03.287 0 .534-.027.735-.081.31-.084.572-.265.731-.51.314-.483.378-1.147.293-1.828-.026-.202-.184-.451-.354-.622zM1.452 22.85c.27-.756 1.342-2.25 2.925-3.576.1-.083.345-.318.57-.536-1.656 2.699-2.765 3.774-3.495 4.112zM10.831.782c.477 0 .748 1.228.77 2.38.023 1.151-.24 1.96-.568 2.557-.27-.885-.401-2.28-.401-3.193 0 0-.02-1.744.199-1.744zM8.033 16.508c.332-.608.678-1.249 1.031-1.928a37.113 37.113 0 0 0 1.81-4.036c.805 1.497 1.808 2.77 2.987 3.79.147.127.303.255.467.383-2.398.485-4.47 1.074-6.295 1.79zm15.118-.138c-.146.093-.565.147-.834.147-.868 0-1.943-.406-3.449-1.066.579-.043 1.11-.066 1.585-.066.872 0 1.13-.003 1.981.219.852.222.863.673.717.766z"/>
</svg>
