<svg xmlns="http://www.w3.org/2000/svg" xmlns:xlink="http://www.w3.org/1999/xlink" width="115" height="120" viewBox="0 0 115 120">
    <defs>
        <path id="a" d="M15.984 20.394c8.827 0 15.984 7.156 15.984 15.984v20.098H0V36.378c0-8.828 7.156-15.984 15.984-15.984z"/>
        <path id="b" d="M15.984 20.394c8.827 0 15.984 7.156 15.984 15.984v20.098H0V36.378c0-8.828 7.156-15.984 15.984-15.984z"/>
        <path id="c" d="M15.984 20.394c8.827 0 15.984 7.156 15.984 15.984v20.098H0V36.378c0-8.828 7.156-15.984 15.984-15.984z"/>
    </defs>
    <g fill="none" fill-rule="evenodd">
        <g transform="translate(41.47 54.9)">
            <use fill="#ECF1FA" xlink:href="#a"/>
            <path stroke="#3643A0" stroke-width="1.997" d="M.998 55.478H30.97v-19.1c0-8.276-6.709-14.985-14.985-14.985S.998 28.102.998 36.378v19.1z"/>
            <ellipse cx="15.984" cy="12.158" fill="#FFF" stroke="#3643A0" stroke-width="1.997" rx="12.085" ry="12.158"/>
        </g>
        <g transform="translate(18.974 63.135)">
            <use fill="#ECF1FA" xlink:href="#b"/>
            <path stroke="#3643A0" stroke-width="1.997" d="M.998 55.478H30.97v-19.1c0-8.276-6.709-14.985-14.985-14.985S.998 28.102.998 36.378v19.1z"/>
            <ellipse cx="15.984" cy="12.158" fill="#FFF" stroke="#3643A0" stroke-width="1.997" rx="12.085" ry="12.158"/>
        </g>
        <g transform="translate(62.782 63.135)">
            <use fill="#ECF1FA" xlink:href="#c"/>
            <path stroke="#3643A0" stroke-width="1.997" d="M.998 55.478H30.97v-19.1c0-8.276-6.709-14.985-14.985-14.985S.998 28.102.998 36.378v19.1z"/>
            <ellipse cx="15.984" cy="12.158" fill="#FFF" stroke="#3643A0" stroke-width="1.997" rx="12.085" ry="12.158"/>
        </g>
        <path fill="#FFF" stroke="#3643A0" stroke-linejoin="round" stroke-width="1.997" d="M60.209 35.693h25.069c-.685 4.69-2.322 10.22-2.322 10.22s2.98-2.021 5.939-6.02c.814-1.1 2.2-2.65 3.284-4.2h4.802c9.31 0 16.857-7.547 16.857-16.856 0-9.31-7.547-16.857-16.857-16.857H17.856C8.546 1.98 1 9.527 1 18.837c0 9.31 7.547 16.856 16.856 16.856h2.851c1.002 1.348 2.15 2.65 2.86 3.612 2.96 3.999 5.94 6.02 5.94 6.02s-1.504-5.081-2.233-9.632h27.392l2.808 9.632 1.823-6.421z"/>
        <path fill="#3643A0" stroke="#3643A0" stroke-linejoin="round" stroke-width="1.498" d="M23.468 24.286l-5.863 3.654 1.494-6.991-5.118-4.733 6.787-.667 2.7-6.58 2.7 6.58 6.786.667-5.118 4.733 1.495 6.991zM47.433 24.286L41.57 27.94l1.495-6.991-5.118-4.733 6.786-.667 2.7-6.58 2.7 6.58 6.787.667-5.118 4.733 1.494 6.991zM72.397 24.286l-5.863 3.654 1.495-6.991-5.118-4.733 6.786-.667 2.7-6.58 2.7 6.58 6.787.667-5.118 4.733 1.494 6.991zM98.86 23.48l-6.172 3.462 1.573-6.624-5.387-4.484 7.143-.631 2.842-6.234z"/>
    </g>
</svg>
