<svg xmlns="http://www.w3.org/2000/svg" xmlns:xlink="http://www.w3.org/1999/xlink" width="115" height="119" viewBox="0 0 115 119">
    <defs>
        <path id="a" d="M16.007 20.425c8.84 0 16.007 7.167 16.007 16.007v20.13H0v-20.13c0-8.84 7.166-16.007 16.007-16.007z"/>
        <path id="b" d="M16.007 20.425c8.84 0 16.007 7.167 16.007 16.007v20.13H0v-20.13c0-8.84 7.166-16.007 16.007-16.007z"/>
        <path id="c" d="M16.007 20.425c8.84 0 16.007 7.167 16.007 16.007v20.13H0v-20.13c0-8.84 7.166-16.007 16.007-16.007z"/>
    </defs>
    <g fill="none" fill-rule="evenodd">
        <g transform="translate(41.528 54)">
            <use fill="#ECF1FA" xlink:href="#a"/>
            <path stroke="#5C58ED" stroke-width="2" d="M1 55.562h30.014v-19.13c0-8.288-6.72-15.007-15.007-15.007C7.719 21.425 1 28.145 1 36.432v19.13z"/>
            <ellipse cx="16.007" cy="12.177" fill="#FFF" stroke="#5C58ED" stroke-width="2" rx="12.103" ry="12.177"/>
        </g>
        <g transform="translate(19 62.249)">
            <use fill="#ECF1FA" xlink:href="#b"/>
            <path stroke="#5C58ED" stroke-width="2" d="M1 55.562h30.014v-19.13c0-8.288-6.72-15.007-15.007-15.007C7.719 21.425 1 28.145 1 36.432v19.13z"/>
            <ellipse cx="16.007" cy="12.177" fill="#FFF" stroke="#5C58ED" stroke-width="2" rx="12.103" ry="12.177"/>
        </g>
        <g transform="translate(62.87 62.249)">
            <use fill="#ECF1FA" xlink:href="#c"/>
            <path stroke="#5C58ED" stroke-width="2" d="M1 55.562h30.014v-19.13c0-8.288-6.72-15.007-15.007-15.007C7.719 21.425 1 28.145 1 36.432v19.13z"/>
            <ellipse cx="16.007" cy="12.177" fill="#FFF" stroke="#5C58ED" stroke-width="2" rx="12.103" ry="12.177"/>
        </g>
        <path fill="#FFF" stroke="#5C58ED" stroke-linejoin="round" stroke-width="2" d="M60.294 34.764h25.105C84.713 39.461 83.074 45 83.074 45s2.984-2.024 5.947-6.03c.815-1.101 2.204-2.653 3.29-4.206h4.807c9.324 0 16.882-7.558 16.882-16.882C114 8.558 106.442 1 97.118 1H17.882C8.558 1 1 8.558 1 17.882c0 9.324 7.558 16.882 16.882 16.882h2.854c1.003 1.35 2.152 2.655 2.864 3.618 2.963 4.005 5.947 6.03 5.947 6.03s-1.506-5.09-2.235-9.648h27.431l2.812 9.647 1.826-6.43z"/>
        <path fill="#FFE8A0" stroke="#5C58ED" stroke-linejoin="round" stroke-width="1.5" d="M23.5 23.34L17.629 27l1.496-7.002L14 15.258l6.796-.668L23.5 8l2.704 6.59 6.796.667-5.125 4.74L29.371 27zM47.5 23.34L41.629 27l1.496-7.002L38 15.258l6.796-.668L47.5 8l2.704 6.59 6.796.667-5.125 4.74L53.371 27zM72.5 23.34L66.629 27l1.496-7.002L63 15.258l6.796-.668L72.5 8l2.704 6.59 6.796.667-5.125 4.74L78.371 27zM99 22.532L92.82 26l1.575-6.634L89 14.876l7.154-.633L99 8z"/>
    </g>
</svg>
