<?xml version="1.0" encoding="UTF-8"?>
<svg width="24px" height="24px" viewBox="0 0 24 24" version="1.1" xmlns="http://www.w3.org/2000/svg" xmlns:xlink="http://www.w3.org/1999/xlink">
    <!-- Generator: Sketch 58 (84663) - https://sketch.com -->
    <title>Icon/reload</title>
    <desc>Created with Sketch.</desc>
    <g id="Icon/reload" stroke="none" stroke-width="1" fill="none" fill-rule="evenodd">
        <g id="reload" transform="translate(2.000000, 3.250000)" fill="currentColor">
            <path d="M19.6331424,6.11625 C19.8680159,6.3504968 20,6.66844299 20,7 C20,7.33155701 19.8680159,7.6495032 19.6331424,7.88375 L17.1282103,10.38375 C16.6777751,10.8328986 15.9616243,10.8727059 15.4640946,10.47625 L12.3247967,7.97625 C11.7851047,7.54581307 11.6968751,6.75979299 12.1277304,6.220625 C12.5585856,5.68145701 13.3453696,5.59331307 13.8850616,6.02375 L14.714617,6.6825 C14.0412938,4.6399869 12.135029,3.25724742 9.9825226,3.25 C8.89641237,3.25288417 7.84149674,3.61311383 6.98085829,4.275 C6.62728279,4.57646188 6.13566942,4.65749965 5.70389573,4.48549506 C5.27212204,4.31349048 4.97121476,3.91673829 4.92229102,3.45493381 C4.87336728,2.99312933 5.08447502,2.54223935 5.47064202,2.28375 C6.7649415,1.2908944 8.35068715,0.751842585 9.9825226,0.75 C13.512946,0.755679258 16.5640687,3.214175 17.3171438,6.66 L17.8626734,6.11625 C18.0973616,5.8815287 18.4158239,5.74964168 18.7479079,5.74964168 C19.0799919,5.74964168 19.3984542,5.8815287 19.6331424,6.11625 L19.6331424,6.11625 Z M12.9829357,12.225 C13.336783,11.9263817 13.8267117,11.8472483 14.2567227,12.0192577 C14.6867337,12.1912671 14.986609,12.5863313 15.0363815,13.0464023 C15.0861541,13.5064732 14.8776963,13.9564245 14.4944032,14.21625 C13.2001037,15.2091056 11.614358,15.7481574 9.9825226,15.75 C6.45163005,15.7449071 3.39982606,13.2862818 2.64665022,9.84 L2.10237178,10.38375 C1.60857222,10.8395014 0.842690321,10.8244987 0.367153369,10.3497592 C-0.108383582,9.87501971 -0.123942286,9.10989221 0.331902832,8.61625 L2.83558365,6.11625 C3.28602098,5.6675 4.00296706,5.62875 4.50095055,6.02375 L7.63899727,8.52375 C8.17868925,8.95418693 8.26691885,9.74020701 7.83606361,10.279375 C7.40520836,10.818543 6.61842439,10.9066869 6.07873242,10.47625 L5.25042822,9.8175 C5.92375141,11.8600131 7.83001616,13.2427526 9.9825226,13.25 C11.0682041,13.2468414 12.1226372,12.8866263 12.9829357,12.225 L12.9829357,12.225 Z" id="Shape"></path>
        </g>
    </g>
</svg>