<svg xmlns="http://www.w3.org/2000/svg" width="24" height="24" viewBox="0 0 24 24">
    <path fill="currentColor" fill-rule="evenodd" d="M19.707 10.293a.999.999 0 0 1 0 1.414l-2.002 2a1 1 0 0 1-1.33.074l-2.509-2a.999.999 0 0 1 1.247-1.562l.663.527A3.996 3.996 0 0 0 11.994 8a3.95 3.95 0 0 0-2.399.82 1.001 1.001 0 1 1-1.207-1.593A5.932 5.932 0 0 1 11.994 6a6.01 6.01 0 0 1 5.862 4.728l.436-.435a1 1 0 0 1 1.415 0zm-5.315 4.887a1.001 1.001 0 1 1 1.208 1.593A5.932 5.932 0 0 1 11.994 18a6.01 6.01 0 0 1-5.863-4.728l-.435.435a1.001 1.001 0 0 1-1.415-1.414l2.001-2c.36-.359.933-.39 1.331-.074l2.508 2a.999.999 0 0 1-1.247 1.562l-.662-.527A3.996 3.996 0 0 0 11.994 16a3.95 3.95 0 0 0 2.398-.82z"/>
</svg>
