<?xml version="1.0" encoding="UTF-8"?>
<svg width="36px" height="36px" viewBox="0 0 36 36" version="1.1" xmlns="http://www.w3.org/2000/svg" xmlns:xlink="http://www.w3.org/1999/xlink">
    <!-- Generator: Sketch 50.2 (55047) - http://www.bohemiancoding.com/sketch -->
    <title>Branding/Logomark</title>
    <defs></defs>
    <g id="Branding/Logomark" stroke="none" stroke-width="1" fill="none" fill-rule="evenodd">
        <g id="symbol" transform="translate(7.000000, 3.000000)">
            <path d="M2.23334196,5.09039438 L14.470539,9.1691794 C14.6747151,9.23723341 14.8124349,9.42830531 14.8124349,9.64352431 L14.8124349,24.347247 C14.8124349,24.4001378 14.8040429,24.4526937 14.7875719,24.5029545 C14.701577,24.7653654 14.4191383,24.9083789 14.1567274,24.8223839 L0.344292436,20.2958986 C0.138892229,20.2285867 2.13589429e-15,20.03691 2.10942375e-15,19.8207616 L1.11736923e-15,5.30079735 L8.21565038e-15,4.91885104 C8.9408067e-15,4.70745055 0.13295132,4.51889425 0.332072308,4.44789426 L12.7233691,0.0295655427 C12.9869128,-0.0644054769 13.2767358,0.0730603591 13.3707068,0.336604081 C13.3862411,0.380170368 13.3957361,0.425658773 13.3989272,0.471801519 C13.4261686,0.865713367 13.1871645,1.22937335 12.8147686,1.36063607 L2.23334196,5.09039438 Z" id="Logo-Combined-Shape" fill="#586679"></path>
            <path d="M6.20920122,9.25527562 C6.29603353,9.11739817 6.42890821,9.00935283 6.59085684,8.95476546 L19.2211349,4.69752894 C19.4634486,4.61585324 19.7260939,4.74607608 19.8077696,4.9883898 C19.8198804,5.0243198 19.8275318,5.06160141 19.830552,5.0993971 C19.8583539,5.44732419 19.6467624,5.7698356 19.3165359,5.88286943 L8.40886369,9.6164762 L21.6143047,13.7772622 C21.8224748,13.8428526 21.9640462,14.0358916 21.9640462,14.2541504 L21.9640462,29.1611188 C21.9640462,29.2112819 21.9564975,29.2611593 21.9416535,29.3090758 C21.8599392,29.572851 21.5798645,29.7204405 21.3160893,29.6387261 L6.44986912,25.0333507 C6.24053475,24.9685015 6.09782609,24.7748925 6.09782609,24.5557434 L6.09782609,9.57008418 C6.09782609,9.51911276 6.10562008,9.46844102 6.12093786,9.41982568 C6.14040257,9.35804888 6.17074937,9.30271674 6.20920122,9.25527562 Z" id="Logo-Combined-Shape-2" fill="#6295FE" transform="translate(14.030936, 17.167201) scale(-1, 1) translate(-14.030936, -17.167201) "></path>
            <path d="M14.8124349,11.1416499 L14.8124349,24.347247 C14.8124349,24.4001378 14.8040429,24.4526937 14.7875719,24.5029545 C14.701577,24.7653654 14.4191383,24.9083789 14.1567274,24.8223839 L6.09782609,22.1813942 L6.09782609,14.2541504 C6.09782609,14.0358916 6.23939749,13.8428526 6.44756758,13.7772622 L14.8124349,11.1416499 Z" id="Logo-Combined-Shape-3" fill="#243649"></path>
        </g>
    </g>
</svg>
