<svg xmlns="http://www.w3.org/2000/svg" width="118" height="29" viewBox="0 0 118 29">
    <g fill="none" fill-rule="nonzero">
        <path fill="#586679" d="M3.195 4.944a.794.794 0 0 1 .036.01c.776.258 4.412 1.32 10.908 3.185l.055.017c.377.12.633.47.633.866v14.35a.513.513 0 0 1-.676.487L.94 19.844a1.327 1.327 0 0 1-.94-1.27L0 4.67c0-.385.25-.727.618-.843L11.47.39a.692.692 0 0 1 .858.418.621.621 0 0 1-.4.81C6.738 3.22 3.82 4.134 3.176 4.36a.307.307 0 0 0 .02.585z"/>
        <path fill="#6096FF" d="M19.584 8.774l-.054.018c-.625.205-9.28 2.544-11.603 3.16l-.199.052c-.582.154-.988.68-.988 1.283v14.242a.885.885 0 0 0 1.12.853l14.08-3.888c.576-.159.975-.682.975-1.28l.002-14.79a.93.93 0 0 0-.657-.89L10.702 3.997a.734.734 0 0 0-.902.443.644.644 0 0 0 .416.844c5.566 1.688 8.69 2.65 9.373 2.886a.32.32 0 0 1-.005.605z"/>
        <path fill="#34495E" d="M14.827 10.092v12.913a.784.784 0 0 1-.999.755 8.942 8.942 0 0 1-.132-.039L6.74 21.607v-8.263-.057c0-.602.406-1.13.988-1.283l.2-.053a1418.33 1418.33 0 0 0 6.9-1.859zM38.169 19.766c-1.58 0-2.92-.52-3.94-1.42l1.12-1.678c.78.76 1.62 1.14 2.82 1.14.86 0 1.36-.38 1.36-.96 0-.5-.64-.74-1.92-1.179-1.6-.56-2.98-1.279-2.98-3.197 0-1.599 1.44-2.758 3.44-2.758 1.24 0 2.36.34 3.44 1.219l-1.12 1.758c-.78-.739-1.68-1.039-2.44-1.039-.44 0-1.06.24-1.06.84 0 .48.6.819 1.54 1.179 2.08.819 3.38 1.199 3.38 3.137 0 1.639-1.16 2.958-3.64 2.958zm10.758 0c-2.88 0-4.979-2.039-4.979-5.016 0-2.998 2.1-5.036 5.06-5.036 1.52 0 3.12.62 4.099 1.818l-1.52 1.32c-.56-.66-1.4-1.12-2.46-1.12-1.74 0-2.9 1.22-2.9 2.998 0 1.798 1.18 2.997 2.9 2.997 1.08 0 1.96-.48 2.46-1.139l1.54 1.36c-.82 1.058-2.08 1.818-4.2 1.818zm8-11.351c-.84 0-1.5-.68-1.5-1.499 0-.8.66-1.479 1.5-1.479s1.52.68 1.52 1.48c0 .819-.68 1.498-1.52 1.498zm-1.12 11.19V9.855h2.24v9.752h-2.24zm5.8 0V9.855h2.239v1.339h.04c.8-.96 1.98-1.479 3.26-1.479 2.14 0 3.58 1.219 3.58 4.157v5.735h-2.24V14.45c0-2.058-.78-2.718-2.12-2.718-1.52 0-2.52 1.06-2.52 2.978v4.896h-2.24zm16.477.16c-2.7 0-4.72-1.978-4.72-4.995 0-2.938 2.02-5.056 4.7-5.056 1.24 0 2.32.46 3.02 1.339l.04-.02v-1.18h2.24v9.753h-2.14v-1.28l-.04-.02c-.7.94-1.74 1.46-3.1 1.46zm.36-2.038c1.52 0 2.78-1.179 2.78-2.937 0-1.739-1.18-3.058-2.78-3.058-1.56 0-2.8 1.18-2.8 3.058 0 1.718 1.14 2.937 2.8 2.937zm8.24 5.835V9.854h2.24v1.159h.04c.719-.84 1.799-1.299 3.079-1.299 2.7 0 4.72 2.118 4.72 5.056 0 3.017-2.02 4.996-4.74 4.996-1.32 0-2.34-.48-3.06-1.36l-.04.02v5.137h-2.24zm4.999-5.835c1.64 0 2.8-1.219 2.8-2.937 0-1.879-1.26-3.058-2.82-3.058-1.68 0-2.84 1.32-2.84 3.058 0 1.758 1.26 2.937 2.86 2.937zm11.039 2.039c-1.58 0-2.92-.52-3.94-1.42l1.12-1.678c.78.76 1.62 1.14 2.82 1.14.86 0 1.36-.38 1.36-.96 0-.5-.64-.74-1.92-1.179-1.6-.56-2.98-1.279-2.98-3.197 0-1.599 1.44-2.758 3.44-2.758 1.24 0 2.36.34 3.44 1.219l-1.12 1.758c-.78-.739-1.68-1.039-2.44-1.039-.44 0-1.06.24-1.06.84 0 .48.6.819 1.54 1.179 2.08.819 3.38 1.199 3.38 3.137 0 1.639-1.16 2.958-3.64 2.958zM118 14.61c0 .36-.04.7-.06.86h-7.12c.28 1.418 1.34 2.257 2.86 2.257 1.16 0 1.96-.52 2.46-1.139l1.56 1.34c-.82 1.058-2.04 1.838-4.14 1.838-2.96 0-5.059-1.979-5.059-5.036 0-2.998 2.04-5.016 4.9-5.016 2.74 0 4.599 2.058 4.599 4.896zm-4.62-2.878c-1.24 0-2.2.7-2.52 1.979h4.88c-.28-1.18-1.08-1.979-2.36-1.979z"/>
    </g>
</svg>
