<svg xmlns="http://www.w3.org/2000/svg" width="225" height="60" viewBox="0 0 225 60">
    <g fill="none" fill-rule="evenodd">
        <g fill="#243649">
            <path d="M123.626 27.768c0-.337-.013-.745-.039-1.224-.026-.48-.045-.965-.058-1.458a40.314 40.314 0 0 0-.059-1.38 17.475 17.475 0 0 1-.039-.99h2.342c.026.673.046 1.321.059 1.943.013.622.045 1.023.098 1.205h.117c.468-.985 1.249-1.833 2.342-2.546 1.093-.712 2.368-1.068 3.825-1.068 1.406 0 2.55.22 3.435.66.885.44 1.581 1.017 2.089 1.73.507.712.859 1.535 1.054 2.467.195.933.293 1.891.293 2.876V40.67h-2.342V30.1c0-.726-.066-1.432-.196-2.118a5.594 5.594 0 0 0-.683-1.846 3.565 3.565 0 0 0-1.366-1.302c-.586-.324-1.347-.486-2.284-.486-.858 0-1.672.149-2.44.447a5.25 5.25 0 0 0-1.99 1.36c-.56.609-1.002 1.373-1.327 2.293-.326.92-.488 2.001-.488 3.245v8.977h-2.343V27.768zm36.319 5.363c0 .88.006 1.67.02 2.37.012.7.032 1.347.058 1.943.026.596.059 1.153.098 1.671.039.518.097 1.037.175 1.555h-2.186a16.748 16.748 0 0 1-.234-2.915h-.078c-.677 1.166-1.516 2.02-2.518 2.565-1.002.544-2.27.816-3.806.816a9.2 9.2 0 0 1-2.303-.291 6.054 6.054 0 0 1-2.03-.933 4.999 4.999 0 0 1-1.464-1.652c-.377-.673-.566-1.49-.566-2.448 0-1.373.352-2.461 1.054-3.264a6.566 6.566 0 0 1 2.596-1.807 12.373 12.373 0 0 1 3.28-.778 31.019 31.019 0 0 1 3.063-.174h2.733V28.7c0-1.554-.481-2.668-1.444-3.342-.963-.673-2.173-1.01-3.63-1.01-2.083 0-3.917.674-5.505 2.02l-1.366-1.592c.859-.83 1.926-1.458 3.2-1.885 1.276-.428 2.5-.641 3.67-.641 2.186 0 3.93.511 5.231 1.535 1.301 1.023 1.952 2.674 1.952 4.954v4.392zm-4.684-1.477c-.99 0-1.946.065-2.87.194-.923.13-1.756.35-2.498.66-.742.312-1.334.726-1.776 1.244-.442.519-.664 1.166-.664 1.944 0 .544.124 1.03.371 1.457.247.427.566.777.957 1.05.39.271.826.478 1.307.62.482.143.97.215 1.464.215 1.25 0 2.277-.182 3.084-.544.807-.363 1.45-.836 1.932-1.419a4.926 4.926 0 0 0 .996-1.982 9.296 9.296 0 0 0 .273-2.234v-1.205h-2.576zm11.023-8.938h2.342v3.148h.078c.364-.622.82-1.16 1.366-1.613a8.225 8.225 0 0 1 1.776-1.127 8.917 8.917 0 0 1 2.01-.66 10.393 10.393 0 0 1 2.07-.214c1.379 0 2.648.233 3.806.699a8.941 8.941 0 0 1 3.005 1.963 8.894 8.894 0 0 1 1.972 2.992c.468 1.153.702 2.416.702 3.789 0 1.373-.234 2.636-.702 3.789a8.894 8.894 0 0 1-1.972 2.992 8.941 8.941 0 0 1-3.005 1.963c-1.158.466-2.427.7-3.806.7-.677 0-1.367-.072-2.07-.215a8.917 8.917 0 0 1-2.01-.66 8.225 8.225 0 0 1-1.776-1.127 6.055 6.055 0 0 1-1.366-1.613h-.078V49.53h-2.342V22.716zm2.108 8.977c0 1.01.195 1.962.585 2.856.39.894.924 1.671 1.6 2.332a7.692 7.692 0 0 0 2.382 1.574c.91.388 1.9.583 2.967.583 1.093 0 2.082-.195 2.966-.583a6.883 6.883 0 0 0 2.265-1.574 6.673 6.673 0 0 0 1.424-2.332 8.287 8.287 0 0 0 .488-2.856c0-1.01-.162-1.963-.488-2.856a6.673 6.673 0 0 0-1.424-2.332 6.883 6.883 0 0 0-2.265-1.574c-.884-.389-1.873-.583-2.966-.583-1.067 0-2.056.194-2.967.583a7.692 7.692 0 0 0-2.381 1.574 7.314 7.314 0 0 0-1.6 2.332 7.058 7.058 0 0 0-.586 2.856zm22.89 4.391a5.031 5.031 0 0 0 2.186 2.196 6.464 6.464 0 0 0 3.045.758c.494 0 .989-.078 1.483-.234a4.542 4.542 0 0 0 1.327-.66c.39-.285.71-.628.957-1.03s.37-.861.37-1.38c0-.829-.266-1.45-.8-1.865-.533-.414-1.19-.738-1.971-.971-.78-.234-1.64-.434-2.576-.603a11.07 11.07 0 0 1-2.577-.777 5.546 5.546 0 0 1-1.971-1.457c-.534-.622-.8-1.503-.8-2.643 0-.88.182-1.645.546-2.293a5.013 5.013 0 0 1 1.425-1.612 6.18 6.18 0 0 1 1.971-.953 8.095 8.095 0 0 1 2.225-.31c1.484 0 2.765.272 3.845.816 1.08.544 1.92 1.399 2.518 2.564l-2.108 1.244c-.442-.829-.995-1.457-1.659-1.885-.663-.427-1.529-.641-2.596-.641-.416 0-.852.065-1.307.194-.456.13-.866.311-1.23.544-.364.234-.67.532-.917.894-.248.363-.371.777-.371 1.244 0 .803.267 1.399.8 1.787.534.389 1.19.693 1.971.914.781.22 1.64.408 2.577.563.937.156 1.795.408 2.576.758.78.35 1.438.855 1.971 1.515.534.661.8 1.6.8 2.818 0 .933-.175 1.742-.526 2.429a5.028 5.028 0 0 1-1.445 1.73 6.457 6.457 0 0 1-2.088 1.048c-.78.234-1.6.35-2.46.35-1.56 0-2.986-.298-4.274-.894a6.475 6.475 0 0 1-2.986-2.759l2.069-1.399zm33.117 1.205c-.91 1.373-2.036 2.357-3.376 2.953-1.34.596-2.817.894-4.43.894-1.38 0-2.63-.233-3.748-.7a8.451 8.451 0 0 1-2.889-1.962 8.615 8.615 0 0 1-1.854-2.992c-.43-1.153-.644-2.429-.644-3.828 0-1.347.221-2.59.663-3.73a8.899 8.899 0 0 1 1.874-2.974 8.794 8.794 0 0 1 2.85-1.982c1.093-.479 2.303-.718 3.63-.718 1.38 0 2.596.24 3.65.718 1.054.48 1.939 1.114 2.654 1.905a8.053 8.053 0 0 1 1.62 2.7 8.99 8.99 0 0 1 .547 3.07v1.633H209.8c0 .492.098 1.12.293 1.884.195.765.553 1.51 1.073 2.235.52.725 1.217 1.347 2.089 1.865.871.519 1.997.778 3.376.778 1.197 0 2.355-.285 3.474-.855 1.12-.57 1.978-1.348 2.577-2.332l1.717 1.438zm-1.795-7.112a5.28 5.28 0 0 0-.488-2.254 6.027 6.027 0 0 0-1.327-1.846 6.282 6.282 0 0 0-1.991-1.263 6.438 6.438 0 0 0-2.44-.466c-1.275 0-2.336.26-3.181.777-.846.518-1.516 1.114-2.01 1.788-.495.673-.847 1.328-1.055 1.962-.208.635-.312 1.07-.312 1.302h12.804zM79.783 27.1c-.911-1.269-2.134-1.903-3.67-1.903-.624 0-1.236.155-1.835.466-.598.311-.897.816-.897 1.516 0 .57.247.984.741 1.243.495.26 1.12.48 1.874.66.755.182 1.568.37 2.44.564a9.623 9.623 0 0 1 2.44.894c.754.402 1.379.952 1.873 1.652.495.7.742 1.658.742 2.875 0 1.115-.24 2.054-.722 2.818a5.66 5.66 0 0 1-1.874 1.846 8.338 8.338 0 0 1-2.596 1.01c-.963.207-1.926.311-2.888.311-1.458 0-2.798-.207-4.021-.622-1.223-.414-2.316-1.166-3.28-2.254l3.124-2.914a8.786 8.786 0 0 0 1.932 1.651c.69.428 1.529.642 2.518.642.338 0 .69-.04 1.054-.117a3.433 3.433 0 0 0 1.015-.389c.312-.181.566-.408.76-.68a1.59 1.59 0 0 0 .294-.952c0-.647-.248-1.127-.742-1.438-.494-.31-1.119-.563-1.874-.757a40.986 40.986 0 0 0-2.44-.544 9.482 9.482 0 0 1-2.44-.817 5.12 5.12 0 0 1-1.873-1.573c-.494-.674-.742-1.607-.742-2.798 0-1.037.215-1.937.644-2.701a5.643 5.643 0 0 1 1.699-1.885 7.353 7.353 0 0 1 2.42-1.088c.91-.233 1.834-.35 2.771-.35 1.25 0 2.486.214 3.709.641a6.056 6.056 0 0 1 2.966 2.196L79.783 27.1zm22.144.428a7.47 7.47 0 0 0-1.718-1.36c-.598-.337-1.21-.505-1.834-.505-.859 0-1.627.156-2.303.466a5.444 5.444 0 0 0-1.737 1.244 5.262 5.262 0 0 0-1.093 1.788 6.043 6.043 0 0 0-.371 2.098c0 .725.123 1.425.37 2.099.248.673.612 1.269 1.094 1.787.481.518 1.06.933 1.737 1.244.676.31 1.444.466 2.303.466.728 0 1.405-.149 2.03-.447a4.413 4.413 0 0 0 1.6-1.302l3.123 3.342a7.209 7.209 0 0 1-1.62 1.205 11.357 11.357 0 0 1-3.65 1.263 9.675 9.675 0 0 1-1.483.136c-1.406 0-2.733-.233-3.982-.7-1.25-.466-2.33-1.126-3.24-1.981a9.404 9.404 0 0 1-2.166-3.09c-.534-1.204-.8-2.545-.8-4.022 0-1.477.266-2.817.8-4.022a9.404 9.404 0 0 1 2.166-3.09c.91-.854 1.99-1.515 3.24-1.981 1.25-.467 2.576-.7 3.982-.7 1.197 0 2.4.227 3.61.68a8.219 8.219 0 0 1 3.182 2.157l-3.24 3.225zm8.091-5.596h4.685v18.654h-4.685V21.932zm-.663-6.334c0-.751.28-1.405.84-1.962.559-.557 1.268-.836 2.127-.836.858 0 1.58.266 2.166.797.586.53.878 1.198.878 2.001 0 .803-.292 1.47-.878 2.001-.585.531-1.308.797-2.166.797-.86 0-1.568-.278-2.128-.836-.56-.557-.84-1.21-.84-1.962z"/>
        </g>
        <path fill="#586679" d="M4.467 10.527l24.474 8.157a1 1 0 0 1 .684.949V49.04a1 1 0 0 1-1.312.95L.69 40.939a1 1 0 0 1-.689-.95V10.182a1 1 0 0 1 .664-.941L25.447.405a1.013 1.013 0 0 1 1.35.884 1.756 1.756 0 0 1-1.167 1.778l-21.163 7.46z"/>
        <path fill="#6295FE" d="M43.705 18.856a1.448 1.448 0 0 0-.763-.6L17.682 9.74a.926.926 0 0 0-1.22.804 1.528 1.528 0 0 0 1.029 1.567l21.815 7.467-26.41 8.321a1 1 0 0 0-.7.954v29.814a1 1 0 0 0 1.296.955l29.732-9.21a1 1 0 0 0 .704-.956V19.486a1 1 0 0 0-.223-.63z"/>
        <path fill="#243649" d="M29.625 22.63v26.41a1 1 0 0 1-1.312.95L12.196 44.71V28.854a1 1 0 0 1 .7-.954l16.729-5.27z"/>
    </g>
</svg>
