<svg xmlns="http://www.w3.org/2000/svg" width="156" height="114" viewBox="0 0 156 114">
    <g fill="none" fill-rule="nonzero">
        <path fill="#586679" d="M61.51 10.103c.03.008.056.015.075.022 1.597.526 9.09 2.695 22.477 6.507l.125.039c.77.243 1.292.957 1.292 1.764v29.323c0 .337-.164.653-.44.85a1.074 1.074 0 0 1-.954.147L56.903 40.56a2.778 2.778 0 0 1-1.976-2.66l-.001-28.324c0-.81.525-1.525 1.297-1.767L78.573.796c.72-.226 1.492.15 1.758.857a1.265 1.265 0 0 1-.815 1.654c-10.703 3.27-16.718 5.137-18.046 5.6a.627.627 0 0 0 .04 1.195z"/>
        <path fill="#6096FF" d="M95.282 17.93l-.112.036c-1.288.418-19.122 5.199-23.91 6.455l-.372.098a2.778 2.778 0 0 0-2.073 2.687V56.202a1.852 1.852 0 0 0 2.34 1.786l28.945-7.926a2.778 2.778 0 0 0 2.045-2.679l.003-30.133c0-.856-.56-1.612-1.38-1.86L76.97 8.161a1.51 1.51 0 0 0-1.85.908 1.312 1.312 0 0 0 .849 1.722c11.475 3.451 17.917 5.418 19.324 5.901a.652.652 0 0 1-.01 1.237z"/>
        <path fill="#34495E" d="M85.479 20.623V47.01a1.606 1.606 0 0 1-2.043 1.546 19.48 19.48 0 0 1-.287-.082l-14.334-4.321V27.268v-.062c0-1.263.851-2.366 2.073-2.687l.373-.098c2.54-.666 8.752-2.325 14.218-3.798zM7.852 106.778c-2.926 0-5.408-.963-7.296-2.63l2.074-3.111c1.444 1.407 3 2.111 5.222 2.111 1.592 0 2.518-.704 2.518-1.778 0-.926-1.185-1.37-3.555-2.185-2.963-1.037-5.519-2.37-5.519-5.926 0-2.963 2.667-5.11 6.37-5.11 2.297 0 4.371.629 6.371 2.258l-2.074 3.26c-1.444-1.37-3.111-1.926-4.519-1.926-.814 0-1.963.444-1.963 1.555 0 .89 1.112 1.519 2.852 2.185 3.852 1.519 6.26 2.223 6.26 5.815 0 3.037-2.149 5.482-6.741 5.482zm19.926 0c-5.334 0-9.222-3.778-9.222-9.297 0-5.555 3.888-9.333 9.37-9.333 2.815 0 5.778 1.148 7.593 3.37l-2.815 2.445c-1.037-1.222-2.593-2.074-4.556-2.074-3.222 0-5.37 2.26-5.37 5.555 0 3.334 2.185 5.556 5.37 5.556 2 0 3.63-.889 4.556-2.111l2.852 2.518c-1.519 1.963-3.852 3.37-7.778 3.37zM42.593 85.74a2.774 2.774 0 0 1-2.778-2.778c0-1.482 1.222-2.74 2.778-2.74 1.555 0 2.814 1.258 2.814 2.74 0 1.518-1.259 2.778-2.814 2.778zm-2.074 20.74V88.407h4.148v18.074h-4.148zm10.74 0V88.407h4.148v2.482h.074c1.482-1.778 3.667-2.74 6.038-2.74 3.962 0 6.63 2.258 6.63 7.703v10.63H64v-9.556c0-3.815-1.444-5.037-3.926-5.037-2.815 0-4.667 1.963-4.667 5.518v9.074H51.26zm30.519.297c-5 0-8.741-3.667-8.741-9.26 0-5.444 3.74-9.37 8.704-9.37 2.296 0 4.296.852 5.592 2.482l.074-.037v-2.186h4.149v18.074h-3.963v-2.37l-.074-.037c-1.297 1.74-3.223 2.704-5.741 2.704zm.666-3.778c2.815 0 5.149-2.185 5.149-5.444 0-3.223-2.186-5.667-5.149-5.667-2.888 0-5.185 2.185-5.185 5.667 0 3.185 2.111 5.444 5.185 5.444zm15.26 10.815V88.407h4.148v2.149h.074c1.333-1.556 3.333-2.408 5.704-2.408 5 0 8.74 3.926 8.74 9.37 0 5.593-3.74 9.26-8.777 9.26-2.445 0-4.334-.89-5.667-2.519l-.074.037v9.519h-4.148zM106.963 103c3.037 0 5.185-2.26 5.185-5.444 0-3.482-2.333-5.667-5.222-5.667-3.111 0-5.26 2.444-5.26 5.667 0 3.259 2.334 5.444 5.297 5.444zm20.444 3.778c-2.926 0-5.407-.963-7.296-2.63l2.074-3.111c1.445 1.407 3 2.111 5.222 2.111 1.593 0 2.519-.704 2.519-1.778 0-.926-1.185-1.37-3.556-2.185-2.963-1.037-5.518-2.37-5.518-5.926 0-2.963 2.667-5.11 6.37-5.11 2.297 0 4.37.629 6.37 2.258l-2.073 3.26c-1.445-1.37-3.112-1.926-4.519-1.926-.815 0-1.963.444-1.963 1.555 0 .89 1.111 1.519 2.852 2.185 3.852 1.519 6.26 2.223 6.26 5.815 0 3.037-2.149 5.482-6.742 5.482zm28.297-9.556c0 .667-.074 1.297-.111 1.593h-13.186c.519 2.63 2.482 4.185 5.297 4.185 2.148 0 3.63-.963 4.555-2.111l2.89 2.481c-1.52 1.963-3.779 3.408-7.668 3.408-5.481 0-9.37-3.667-9.37-9.334 0-5.555 3.778-9.296 9.074-9.296 5.074 0 8.519 3.815 8.519 9.074zm-8.556-5.333c-2.296 0-4.074 1.296-4.667 3.667h9.038c-.519-2.186-2-3.667-4.37-3.667z"/>
    </g>
</svg>
