<?xml version="1.0" encoding="UTF-8"?>
<svg width="24px" height="24px" viewBox="0 0 24 24" version="1.1" xmlns="http://www.w3.org/2000/svg" xmlns:xlink="http://www.w3.org/1999/xlink">
    <!-- Generator: Sketch 58 (84663) - https://sketch.com -->
    <title>Icon/search</title>
    <desc>Created with Sketch.</desc>
    <g id="Icon/search" stroke="none" stroke-width="1" fill="none" fill-rule="evenodd">
        <g id="search-icon" transform="translate(3.000000, 3.000000)" fill="currentColor" fill-rule="nonzero">
            <g id="search,-magnifying-glass,-find,-magnifier,-zoom" transform="translate(9.000000, 9.000000) scale(-1, 1) translate(-9.000000, -9.000000) ">
                <path d="M10.1309082,0 C5.78711153,0.00526505907 2.26708144,3.52531713 2.26181642,7.86914094 C2.26734384,9.56385253 2.82510376,11.2105826 3.85058605,12.5598234 L0.343219424,16.067212 C0.0509876778,16.3494606 -0.0662123413,16.7674282 0.0366652876,17.1604687 C0.139542917,17.5535092 0.446488039,17.8604562 0.839526052,17.9633345 C1.23256406,18.0662128 1.6505291,17.949012 1.93277597,17.6567784 L5.44014259,14.1493899 C6.78939151,15.1749419 8.43615578,15.7327465 10.1309082,15.7382819 C14.4768876,15.7382819 18,12.2151475 18,7.86914094 C18,3.5231344 14.4768876,0 10.1309082,0 Z M10.1309082,13.4899559 C7.02663722,13.4899559 4.51012836,10.9734313 4.51012836,7.86914094 C4.51012836,4.76485056 7.02663722,2.24832598 10.1309082,2.24832598 C13.2351792,2.24832598 15.7516881,4.76485056 15.7516881,7.86914094 C15.7480333,10.9719162 13.2336641,13.4863011 10.1309082,13.4899559 Z" id="Shape"></path>
            </g>
        </g>
    </g>
</svg>