<svg xmlns="http://www.w3.org/2000/svg" width="34" height="34" viewBox="0 0 34 34">
    <path fill="#C3C9D5" fill-rule="nonzero" d="M32.938 27.85s2.39 2.376 0 5.093c-2.219 2.378-4.95 0-4.95 0l-8.191-7.641s-3.755 1.528-6.315 1.528C5.973 26.83 0 20.887 0 13.415 0 6.113 5.973 0 13.482 0c7.51 0 13.483 5.943 13.483 13.415 0 2.377-.512 4.415-1.536 6.283l7.51 8.151zM23.04 13.414c0-5.264-4.267-9.68-9.728-9.68-5.29 0-9.728 4.246-9.728 9.68 0 5.264 4.267 9.68 9.728 9.68 5.29 0 9.728-4.416 9.728-9.68z"/>
</svg>
