<?xml version="1.0" encoding="UTF-8"?>
<svg width="24px" height="24px" viewBox="0 0 24 24" version="1.1" xmlns="http://www.w3.org/2000/svg" xmlns:xlink="http://www.w3.org/1999/xlink">
    <!-- Generator: Sketch 58 (84663) - https://sketch.com -->
    <title>Icon/send</title>
    <desc>Created with Sketch.</desc>
    <g id="Icon/send" stroke="none" stroke-width="1" fill="none" fill-rule="evenodd">
        <g id="send" transform="translate(3.000000, 3.000000)" fill="currentColor" fill-rule="nonzero">
            <path d="M17.6701638,0.329216073 C17.3630388,0.0232160732 16.9051638,-0.0814089268 16.4967888,0.0659660732 L0.746788849,5.69096606 C0.322663849,5.84171606 0.0290388491,6.23209106 0.00203884907,6.68096606 C-0.0249611509,7.13096606 0.218038849,7.55284106 0.621913849,7.75534106 L5.78116385,10.3338411 L12.3747888,5.62459107 L7.66441385,12.2193411 L10.2429138,17.3785911 C10.4352888,17.7599661 10.8256638,17.9995911 11.2497888,17.9995911 C11.2734138,17.9995911 11.2959138,17.9984661 11.3184138,17.9973411 C11.7684138,17.9703411 12.1587888,17.6778411 12.3106638,17.2525911 L17.9356638,1.50259107 C18.0807888,1.09421607 17.9772888,0.636341073 17.6701638,0.329216073 Z" id="path-1"></path>
        </g>
    </g>
</svg>