<svg xmlns="http://www.w3.org/2000/svg" width="57" height="57" viewBox="0 0 57 57">
    <g fill="#BBC2D0" fill-rule="nonzero">
        <path d="M54.082 22.517l-4-.68a22.59 22.59 0 0 0-1.608-3.88l2.358-3.3a3.51 3.51 0 0 0-.381-4.536l-3.549-3.548a3.495 3.495 0 0 0-2.488-1.036 3.46 3.46 0 0 0-2.036.655l-3.31 2.357a22.356 22.356 0 0 0-4.025-1.655l-.667-3.953A3.517 3.517 0 0 0 30.899 0h-5.013a3.517 3.517 0 0 0-3.477 2.941l-.69 4.049a22.034 22.034 0 0 0-3.87 1.63l-3.275-2.357a3.496 3.496 0 0 0-2.048-.655c-.94 0-1.833.37-2.488 1.036l-3.56 3.549a3.525 3.525 0 0 0-.382 4.536l2.382 3.346a22.066 22.066 0 0 0-1.584 3.894l-3.953.667A3.518 3.518 0 0 0 0 26.113v5.013a3.518 3.518 0 0 0 2.941 3.476l4.049.691a22.034 22.034 0 0 0 1.63 3.87l-2.345 3.263a3.51 3.51 0 0 0 .381 4.536l3.548 3.549a3.495 3.495 0 0 0 2.49 1.035 3.46 3.46 0 0 0 2.035-.654l3.346-2.382a22.525 22.525 0 0 0 3.763 1.548l.667 4A3.517 3.517 0 0 0 25.98 57h5.025a3.517 3.517 0 0 0 3.477-2.941l.679-4a22.59 22.59 0 0 0 3.882-1.608l3.298 2.357c.595.429 1.31.655 2.048.655.94 0 1.822-.369 2.489-1.036l3.548-3.548a3.525 3.525 0 0 0 .38-4.537l-2.357-3.31a22.429 22.429 0 0 0 1.608-3.882l4-.667A3.518 3.518 0 0 0 57 31.006v-5.012a3.475 3.475 0 0 0-2.918-3.477zm-.273 8.49a.308.308 0 0 1-.262.31l-5.001.833a1.599 1.599 0 0 0-1.286 1.178 19.062 19.062 0 0 1-2.072 4.99 1.61 1.61 0 0 0 .071 1.75l2.941 4.144a.324.324 0 0 1-.035.404l-3.549 3.549a.302.302 0 0 1-.226.095.292.292 0 0 1-.179-.06l-4.131-2.94a1.609 1.609 0 0 0-1.75-.072 19.061 19.061 0 0 1-4.99 2.072 1.58 1.58 0 0 0-1.179 1.286l-.845 5a.308.308 0 0 1-.31.263h-5.013a.308.308 0 0 1-.31-.262l-.833-5.001a1.599 1.599 0 0 0-1.179-1.286 19.793 19.793 0 0 1-4.881-2 1.648 1.648 0 0 0-.81-.215c-.322 0-.655.095-.929.298l-4.167 2.965a.354.354 0 0 1-.179.06.32.32 0 0 1-.226-.096L8.93 44.724a.323.323 0 0 1-.035-.405l2.929-4.108a1.63 1.63 0 0 0 .071-1.762A18.882 18.882 0 0 1 9.8 33.47a1.63 1.63 0 0 0-1.286-1.179l-5.037-.857a.308.308 0 0 1-.262-.31v-5.012c0-.155.107-.286.262-.31l4.965-.833a1.61 1.61 0 0 0 1.298-1.191c.44-1.75 1.12-3.441 2.036-5.001a1.59 1.59 0 0 0-.083-1.739l-2.965-4.167a.324.324 0 0 1 .036-.405l3.548-3.548a.302.302 0 0 1 .226-.096c.072 0 .131.024.179.06l4.108 2.929a1.63 1.63 0 0 0 1.762.071 18.882 18.882 0 0 1 4.977-2.095 1.63 1.63 0 0 0 1.18-1.286l.856-5.037a.308.308 0 0 1 .31-.262h5.013c.155 0 .286.107.31.262l.833 4.965a1.61 1.61 0 0 0 1.19 1.298 19.327 19.327 0 0 1 5.109 2.096 1.61 1.61 0 0 0 1.75-.072L44.223 8.8c.06-.035.12-.06.179-.06a.32.32 0 0 1 .226.096l3.548 3.549c.108.107.12.273.036.404l-2.94 4.132a1.609 1.609 0 0 0-.072 1.75 19.062 19.062 0 0 1 2.071 4.99 1.58 1.58 0 0 0 1.286 1.179l5.001.845a.308.308 0 0 1 .262.31v5.012h-.011z"/>
        <path d="M28.5 16C21.603 16 16 21.603 16 28.5S21.603 41 28.5 41 41 35.397 41 28.5 35.397 16 28.5 16zM28 37c-4.966 0-9-4.034-9-9s4.034-9 9-9 9 4.034 9 9-4.034 9-9 9z"/>
    </g>
</svg>
