<?xml version="1.0" encoding="UTF-8"?>
<svg width="24px" height="24px" viewBox="0 0 24 24" version="1.1" xmlns="http://www.w3.org/2000/svg" xmlns:xlink="http://www.w3.org/1999/xlink">
    <!-- Generator: Sketch 58 (84663) - https://sketch.com -->
    <title>Icon/share</title>
    <desc>Created with Sketch.</desc>
    <g id="Icon/share" stroke="none" stroke-width="1" fill="none" fill-rule="evenodd">
        <g id="mask" transform="translate(3.000000, 2.000000)" fill="currentColor">
            <path d="M14.1428571,7.71428571 C16.2694286,7.71428571 18,5.98371429 18,3.85714286 C18,1.73057143 16.2694286,0 14.1428571,0 C12.0162857,0 10.2857143,1.73057143 10.2857143,3.85714286 C10.2857143,4.14385714 10.323,4.42157143 10.3821429,4.69157143 L6.24214286,7.27842857 C5.56692564,6.73215557 4.72565765,6.43238299 3.85714286,6.42857143 C1.73057143,6.42857143 0,8.15914286 0,10.2857143 C0,12.4122857 1.73057143,14.1428571 3.85714286,14.1428571 C4.72565765,14.1390456 5.56692564,13.839273 6.24214286,13.293 L10.3821429,15.8798571 C10.323,16.1498571 10.2857143,16.4275714 10.2857143,16.7142857 C10.2857143,18.8408571 12.0162857,20.5714286 14.1428571,20.5714286 C16.2694286,20.5714286 18,18.8408571 18,16.7142857 C18,14.5877143 16.2694286,12.8571429 14.1428571,12.8571429 C13.2743423,12.8609544 12.4330744,13.160727 11.7578571,13.707 L7.61785714,11.1201429 C7.677,10.8501429 7.71428571,10.5724286 7.71428571,10.2857143 C7.71428571,9.999 7.677,9.72128571 7.61785714,9.45128571 L11.7578571,6.86442857 C12.4330744,7.41070157 13.2743423,7.71047415 14.1428571,7.71428571 Z" id="a"></path>
        </g>
    </g>
</svg>