<?xml version="1.0" encoding="UTF-8"?>
<svg width="24px" height="24px" viewBox="0 0 24 24" version="1.1" xmlns="http://www.w3.org/2000/svg" xmlns:xlink="http://www.w3.org/1999/xlink">
    <!-- Generator: Sketch 58 (84663) - https://sketch.com -->
    <title>Icon/source</title>
    <desc>Created with Sketch.</desc>
    <g id="Icon/source" stroke="none" stroke-width="1" fill="none" fill-rule="evenodd">
        <g id="Group" transform="translate(3.000000, 3.000000)" fill="currentColor" fill-rule="nonzero">
            <path d="M8.20710678,11.2071068 L16.7071068,2.70710678 C17.0976311,2.31658249 17.0976311,1.68341751 16.7071068,1.29289322 C16.3165825,0.902368927 15.6834175,0.902368927 15.2928932,1.29289322 L6.79289322,9.79289322 C6.40236893,10.1834175 6.40236893,10.8165825 6.79289322,11.2071068 C7.18341751,11.5976311 7.81658249,11.5976311 8.20710678,11.2071068 Z" id="Line"></path>
            <path d="M16,2 L16,6 C16,6.55228475 16.4477153,7 17,7 C17.5522847,7 18,6.55228475 18,6 L18,1 C18,0.44771525 17.5522847,0 17,0 L12,0 C11.4477153,0 11,0.44771525 11,1 C11,1.55228475 11.4477153,2 12,2 L16,2 Z" id="Path"></path>
            <path d="M7.43974038,2 L3,2 C1.34314575,2 0,3.34314575 0,5 L0,15 C0,16.6568542 1.34314575,18 3,18 L13,18 C14.6568542,18 16,16.6568542 16,15 L16,10.5384615 C16,9.98617679 15.5522847,9.53846154 15,9.53846154 C14.4477153,9.53846154 14,9.98617679 14,10.5384615 L14,15 C14,15.5522847 13.5522847,16 13,16 L3,16 C2.44771525,16 2,15.5522847 2,15 L2,5 C2,4.44771525 2.44771525,4 3,4 L7.43974038,4 C7.99202513,4 8.43974038,3.55228475 8.43974038,3 C8.43974038,2.44771525 7.99202513,2 7.43974038,2 Z" id="Path-3"></path>
        </g>
    </g>
</svg>