<svg xmlns="http://www.w3.org/2000/svg" width="24" height="24" viewBox="0 0 24 24">
    <path fill="#666D7C" fill-rule="nonzero" d="M8.79 19.041l-1.215 1.206a2.718 2.718 0 0 1-3.817 0 2.627 2.627 0 0 1-.784-1.877c0-.708.279-1.375.784-1.877l4.47-4.435c.926-.919 2.669-2.271 3.94-1.012a1.487 1.487 0 1 0 2.095-2.11c-2.16-2.142-5.35-1.746-8.13 1.011l-4.47 4.435A5.581 5.581 0 0 0 0 18.37a5.58 5.58 0 0 0 1.663 3.988A5.666 5.666 0 0 0 5.666 24c1.45 0 2.9-.547 4.005-1.643l1.215-1.206a1.487 1.487 0 1 0-2.097-2.11zM22.335 1.813c-2.319-2.3-5.561-2.426-7.708-.296L13.114 3.02a1.486 1.486 0 1 0 2.096 2.11l1.513-1.501c1.112-1.105 2.569-.647 3.518.295.507.502.785 1.17.785 1.878 0 .709-.279 1.376-.784 1.877l-4.77 4.731c-2.18 2.164-3.203 1.149-3.64.715a1.487 1.487 0 0 0-2.095 2.11c1.001.994 2.144 1.487 3.342 1.487 1.466 0 3.016-.739 4.489-2.201l4.769-4.731A5.583 5.583 0 0 0 24 5.8a5.584 5.584 0 0 0-1.664-3.988z"/>
</svg>
