<svg xmlns="http://www.w3.org/2000/svg" xmlns:xlink="http://www.w3.org/1999/xlink" width="24" height="24" viewBox="0 0 24 24">
    <defs>
        <path id="a" d="M19.286 4c.394 0 .714.322.714.718v5.748c0 .396-.32.718-.714.718a.716.716 0 0 1-.715-.718V6.453l-7.352 7.394a.71.71 0 0 1-1.01 0 .721.721 0 0 1 0-1.016l7.352-7.394h-3.99a.716.716 0 0 1-.714-.719c0-.396.32-.718.714-.718h5.715zm-3.953 7.954c.368 0 .667.3.667.67v6.705c0 .37-.298.671-.667.671H4.667A.669.669 0 0 1 4 19.33V8.6c0-.37.298-.67.667-.67h6.666c.369 0 .667.3.667.67 0 .37-.298.67-.667.67h-6v9.388h9.334v-6.035c0-.37.298-.67.666-.67z"/>
    </defs>
    <use fill="currentColor" fill-rule="evenodd" xlink:href="#a"/>
</svg>
