<svg xmlns="http://www.w3.org/2000/svg" width="60" height="60" viewBox="0 0 60 60">
    <path fill="#BBC2D0" fill-rule="evenodd" d="M25.01 36.103l-.51 7.647c.75 0 1.081-.343 1.5-.75l3.603-3.504 7.497 5.539c1.38.761 2.375.367 2.719-1.281l4.921-23.19c.504-2.02-.77-2.937-2.09-2.338L13.753 29.37c-1.973.791-1.961 1.891-.36 2.382l7.416 2.314 17.168-10.83c.81-.492 1.555-.228.944.314L25.01 36.102zM30 60C13.431 60 0 46.569 0 30 0 13.431 13.431 0 30 0c16.569 0 30 13.431 30 30 0 16.569-13.431 30-30 30z"/>
</svg>
