<svg width="12px" height="5px" viewBox="0 0 12 5" version="1.1" xmlns="http://www.w3.org/2000/svg" xmlns:xlink="http://www.w3.org/1999/xlink">
    <g id="feature/divide-papershow" stroke="none" stroke-width="1" fill="currentColor" fill-rule="evenodd">
        <g id="[feature/divide-papershow]-paper_show-copy-41" transform="translate(-288.000000, -275.000000)" fill="currenColor">
            <path d="M300,275.338785 C300,276.709508 299.662825,277.829046 298.988465,278.69743 C298.314105,279.565814 297.472942,280 296.464951,280 C295.93966,280 295.455193,279.890967 295.011535,279.672897 C294.567877,279.454828 294.072762,279.079053 293.526176,278.545561 C292.979589,278.012069 292.587401,277.681075 292.349601,277.55257 C292.1118,277.424065 291.858032,277.359813 291.588287,277.359813 C291.112686,277.359813 290.738244,277.562303 290.464951,277.96729 C290.191658,278.372276 290.055013,278.901866 290.055013,279.556075 L288,279.556075 C288,278.224292 288.322978,277.132014 288.968944,276.279206 C289.61491,275.426398 290.463171,275 291.513753,275 C292.039044,275 292.537708,275.114874 293.00976,275.344626 C293.481812,275.574378 293.975153,275.946259 294.489796,276.46028 C295.004439,276.974302 295.380655,277.297507 295.618456,277.429907 C295.856257,277.562306 296.113574,277.628505 296.390417,277.628505 C296.866018,277.628505 297.252882,277.410438 297.55102,276.974299 C297.849159,276.53816 297.998225,275.992994 297.998225,275.338785 L300,275.338785 Z" id="~"></path>
        </g>
    </g>
</svg>