<?xml version="1.0" encoding="UTF-8"?>
<svg width="24px" height="24px" viewBox="0 0 24 24" version="1.1" xmlns="http://www.w3.org/2000/svg" xmlns:xlink="http://www.w3.org/1999/xlink">
    <!-- Generator: sketchtool 51.3 (57544) - http://www.bohemiancoding.com/sketch -->
    <title>ADDA8D13-C2F5-4358-9B0E-1C359912CA41</title>
    <desc>Created with sketchtool.</desc>
    <defs>
        <path d="M6,10 L18,10 L18,18 C18,19.1 17.1,20 16,20 L8,20 C6.9,20 6,19.1 6,18 L6,10 Z M16,7 L20,7 L20,9 L4,9 L4,7 L8,7 L8,5 C8,4.4 8.4,4 9,4 L15,4 C15.6,4 16,4.4 16,5 L16,7 Z M14,7 L14,6 L10,6 L10,7 L14,7 Z" id="trash-path-1"></path>
    </defs>
    <g id="Symbols" stroke="none" stroke-width="1" fill="none" fill-rule="evenodd">
        <g id="Icon/Delete">
            <mask id="trash-mask-2" fill="white">
                <use xlink:href="#trash-path-1"></use>
            </mask>
            <g id="Mask" fill-rule="nonzero"></g>
            <g id="Mixin/Fill/Black" mask="url(#trash-mask-2)" fill="currentColor">
                <rect id="Rectangle" x="0" y="0" width="24" height="24" rx="5"></rect>
            </g>
        </g>
    </g>
</svg>