<?xml version="1.0" encoding="UTF-8"?>
<svg width="24px" height="24px" viewBox="0 0 24 24" version="1.1" xmlns="http://www.w3.org/2000/svg" xmlns:xlink="http://www.w3.org/1999/xlink">
    <!-- Generator: Sketch 58 (84663) - https://sketch.com -->
    <title>Icon/twitter</title>
    <desc>Created with Sketch.</desc>
    <g id="Icon/twitter" stroke="none" stroke-width="1" fill="none" fill-rule="evenodd">
        <path d="M8.2896,20 C15.8368,20 19.9648,13.8421422 19.9648,8.50344171 C19.9648,8.33015842 19.9648,8.15529984 19.952,7.98201655 C20.755422,7.40994872 21.4489207,6.70155009 22,5.89001471 C21.2511469,6.21700489 20.4567055,6.43153313 19.6432,6.52643696 C20.4992,6.02234013 21.1408,5.22681232 21.448,4.29265789 C20.6422205,4.76303836 19.7607391,5.09441849 18.8416,5.2724961 C17.5695009,3.94172167 15.5489795,3.61633173 13.9125288,4.47870585 C12.2760782,5.34107997 11.4304438,7.17687198 11.8496,8.95712885 C8.54990474,8.79430497 5.47561466,7.25970042 3.392,4.73531792 C2.30280878,6.58153212 2.8590804,8.94333777 4.6624,10.129154 C4.00939766,10.110068 3.37063546,9.93663364 2.8,9.62348185 L2.8,9.67389153 C2.8,11.597336 4.176,13.2545543 6.0928,13.6342022 C5.48831599,13.7972054 4.85390103,13.8214573 4.2384,13.7050909 C4.7767226,15.3500584 6.31696934,16.4766526 8.072,16.5091295 C6.3541266,17.8390664 4.16972008,18.4420526 2,18.1852514 C3.87648985,19.3709253 6.05992428,19.9998215 8.2896,19.9968494" id="Path" fill="#000000" fill-rule="nonzero"></path>
    </g>
</svg>