<svg xmlns="http://www.w3.org/2000/svg" width="14" height="12" viewBox="0 0 14 12">
    <g fill="none" fill-rule="evenodd">
        <path d="M-3-4h20v20H-3z"/>
        <path fill="currentColor" fill-rule="nonzero" d="M4.681 11.08c4.717 0 7.297-3.909 7.297-7.298 0-.11 0-.221-.008-.331a5.218 5.218 0 0 0 1.28-1.328 5.119 5.119 0 0 1-1.473.404c.535-.32.936-.825 1.128-1.418a5.14 5.14 0 0 1-1.629.622 2.567 2.567 0 0 0-4.37 2.339A7.281 7.281 0 0 1 1.62 1.39a2.567 2.567 0 0 0 .794 3.424 2.546 2.546 0 0 1-1.164-.321v.032c0 1.221.86 2.273 2.058 2.514a2.56 2.56 0 0 1-1.159.045 2.568 2.568 0 0 0 2.396 1.78A5.146 5.146 0 0 1 .75 9.928a7.26 7.26 0 0 0 3.931 1.15"/>
    </g>
</svg>