<svg xmlns="http://www.w3.org/2000/svg" width="64" height="60" viewBox="0 0 64 60">
    <g fill="#DDE2EA" fill-rule="nonzero">
        <path d="M63.692 19.243c-1.082-2.942-4.42-5.431-9.92-7.397a52.646 52.646 0 0 0-6.31-1.79 17.178 17.178 0 0 0-5.683-6.92A16.735 16.735 0 0 0 31.999 0a16.735 16.735 0 0 0-9.778 3.136 17.178 17.178 0 0 0-5.682 6.92 52.61 52.61 0 0 0-6.31 1.79c-5.502 1.966-8.84 4.455-9.92 7.398-.413 1.12-.617 2.875.749 4.871 2.434 3.56 8.706 5.88 12.228 6.946C19.144 32.835 25.79 33.81 32 33.81c6.21 0 12.856-.976 18.715-2.75 3.521-1.066 9.793-3.386 12.228-6.946 1.365-1.996 1.16-3.75.749-4.872zM32 4.236c4.94 0 9.464 2.932 11.582 7.399-1.101 1.163-4.24 3.517-11.582 3.517-5.166 0-8.205-1.17-9.844-2.152-.832-.498-1.386-.989-1.738-1.365C22.536 7.168 27.06 4.236 32 4.236zM59.514 21.7c-1.448 2.118-6.111 4.128-9.993 5.302-5.403 1.636-11.789 2.574-17.521 2.574-12.462 0-25.023-4.233-27.514-7.875-.407-.596-.31-.862-.268-.975.6-1.632 3.278-3.405 7.348-4.865 2.173-.78 4.28-1.31 5.565-1.598.539.625 1.331 1.376 2.465 2.113 3.076 2 7.249 3.014 12.404 3.014 5.154 0 9.328-1.014 12.403-3.014 1.134-.737 1.927-1.489 2.465-2.113 1.286.289 3.392.818 5.566 1.597 4.07 1.461 6.748 3.234 7.347 4.866.042.113.14.379-.267.974z"/>
        <circle cx="15.094" cy="21.132" r="1.811"/>
        <circle cx="47.698" cy="21.132" r="1.811"/>
        <circle cx="32" cy="24.755" r="1.811"/>
        <path d="M30.189 38.642h3.623v13.283h-3.623zM39.849 38.642h3.623V59.17h-3.623zM19.321 38.642h3.623V59.17h-3.623z"/>
    </g>
</svg>
