<svg xmlns="http://www.w3.org/2000/svg" xmlns:xlink="http://www.w3.org/1999/xlink" width="24" height="24" viewBox="0 0 24 24">
    <defs>
        <path id="a" d="M16.714 11h-.643V8.75c0-2.619-1.826-4.47-4.071-4.47-2.245 0-4.071 1.851-4.071 4.47V11h-.643C6.576 11 6 11.672 6 12.5v6c0 .828.576 1.5 1.286 1.5h9.428c.71 0 1.286-.672 1.286-1.5v-6c0-.828-.576-1.5-1.286-1.5zm-.639 0H9.667V8.5C9.667 7.122 10.713 6 12 6c1.002 0 1.86.68 2.189 1.633l1.553-.688c.181.459.292.977.333 1.555V11z"/>
    </defs>
    <use fill="currentColor" fill-rule="evenodd" xlink:href="#a"/>
</svg>
