<?xml version="1.0" encoding="UTF-8"?>
<svg width="24px" height="24px" viewBox="0 0 24 24" version="1.1" xmlns="http://www.w3.org/2000/svg" xmlns:xlink="http://www.w3.org/1999/xlink">
    <!-- Generator: Sketch 58 (84663) - https://sketch.com -->
    <title>Icon/upload</title>
    <desc>Created with Sketch.</desc>
    <g id="Icon/upload" stroke="none" stroke-width="1" fill="none" fill-rule="evenodd">
        <g id="Group" transform="translate(3.000000, 5.000000)" fill="#000000">
            <polygon id="a-path" transform="translate(9.000000, 5.500000) rotate(180.000000) translate(-9.000000, -5.500000) " points="9 11 4.5 6.6 7.875 6.6 7.875 0 10.125 0 10.125 6.6 13.5 6.6"></polygon>
            <path d="M1,9.5 C0.723857625,9.5 0.5,9.72385763 0.5,10 L0.5,14 C0.5,14.8284271 1.17157288,15.5 2,15.5 L16,15.5 C16.8284271,15.5 17.5,14.8284271 17.5,14 L17.5,10 C17.5,9.72385763 17.2761424,9.5 17,9.5 L16.9756209,9.5 C16.6994786,9.5 16.4756209,9.72385763 16.4756209,10 L16.4756209,14.5 L1.5,14.5 L1.5,10 C1.5,9.72385763 1.27614237,9.5 1,9.5 Z" id="Rectangle" stroke="#000000"></path>
        </g>
    </g>
</svg>