<svg xmlns="http://www.w3.org/2000/svg" xmlns:xlink="http://www.w3.org/1999/xlink" width="223" height="205" viewBox="0 0 223 205">
    <defs>
        <path id="wallet_a" d="M186 114h31.067a5 5 0 0 1 5 5v36.277a5 5 0 0 1-5 5H186c-11.046 0-20-8.954-20-20V134c0-11.046 8.954-20 20-20z"/>
    </defs>
    <g fill="none" fill-rule="evenodd" transform="translate(0 -1)">
        <path stroke="#BBC2D0" stroke-width="4" d="M78.12 67.379C64.886 70.532 54 85.61 54 100.965v75.231c0 15.018 10.35 24.419 23.192 21.358l90.346-21.53c13.231-3.153 24.119-18.23 24.119-33.585V67.207c0-15.018-10.35-24.418-23.192-21.358L78.119 67.38z"/>
        <rect width="162.926" height="135.919" x="51.467" y="69.514" fill="#FFF" rx="30"/>
        <rect width="150.139" height="125.252" x="51.467" y="69.514" fill="#F5F6F9" rx="30"/>
        <path fill="#FFCF48" fill-opacity=".761" d="M45.273 25.686L38 23.209l7.273-2.476A20 20 0 0 0 57.761 8.246L60.237.972l2.476 7.274a20 20 0 0 0 12.488 12.487l7.273 2.476-7.273 2.477a20 20 0 0 0-12.488 12.487l-2.476 7.273-2.476-7.273a20 20 0 0 0-12.488-12.487zM.662 76.435L0 76.209l.662-.225a20 20 0 0 0 12.487-12.487l.226-.662.225.662a20 20 0 0 0 12.488 12.487l.662.225-.662.226A20 20 0 0 0 13.6 88.922l-.225.662-.226-.662A20 20 0 0 0 .662 76.435z"/>
        <path stroke="#BBC2D0" stroke-width="4" d="M82 71c-15.464 0-28 12.536-28 28v76.722c0 15.464 12.536 28 28 28h105.644c15.464 0 28-12.536 28-28V99c0-15.464-12.536-28-28-28H82z"/>
        <use fill="#FFF" xlink:href="#wallet_a"/>
        <path stroke="#BBC2D0" stroke-width="4" d="M186 116c-9.941 0-18 8.059-18 18v6.277c0 9.941 8.059 18 18 18h31.067a3 3 0 0 0 3-3V119a3 3 0 0 0-3-3H186z"/>
        <rect width="16.033" height="8" x="181" y="133" fill="#6096FF" rx="4"/>
    </g>
</svg>
