<?xml version="1.0" encoding="UTF-8"?>
<svg width="24px" height="24px" viewBox="0 0 24 24" version="1.1" xmlns="http://www.w3.org/2000/svg" xmlns:xlink="http://www.w3.org/1999/xlink">
    <!-- Generator: Sketch 58 (84663) - https://sketch.com -->
    <title>Icon/x-button</title>
    <desc>Created with Sketch.</desc>
    <g id="Icon/x-button" stroke="none" stroke-width="1" fill="none" fill-rule="evenodd">
        <path d="M4.95289322,4.95289322 C5.34341751,4.56236893 5.97658249,4.56236893 6.36710678,4.95289322 L6.36710678,4.95289322 L12.024,10.609 L17.6808153,4.95289322 C18.0412992,4.59240926 18.6085303,4.56467972 19.0008215,4.86970461 L19.0950288,4.95289322 C19.4855531,5.34341751 19.4855531,5.97658249 19.0950288,6.36710678 L19.0950288,6.36710678 L13.439,12.024 L19.0950288,17.6808153 C19.4555128,18.0412992 19.4832423,18.6085303 19.1782174,19.0008215 L19.0950288,19.0950288 C18.7045046,19.4855531 18.0713396,19.4855531 17.6808153,19.0950288 L17.6808153,19.0950288 L12.024,13.439 L6.36710678,19.0950288 C6.00662282,19.4555128 5.43939176,19.4832423 5.04710056,19.1782174 L4.95289322,19.0950288 C4.56236893,18.7045046 4.56236893,18.0713396 4.95289322,17.6808153 L4.95289322,17.6808153 L10.609,12.024 L4.95289322,6.36710678 C4.59240926,6.00662282 4.56467972,5.43939176 4.86970461,5.04710056 Z" id="Combined-Shape" fill="#000000" fill-rule="nonzero"></path>
    </g>
</svg>